<svg xmlns="http://www.w3.org/2000/svg" width="52" height="47" fill="none" viewBox="0 0 52 47">
  <path fill="#E2DFF4" d="M26 8.034 21.07 0h-4.956l2.485 18.073h13.58l-6.178-10.04Zm25.514 15.912c0 2.432-2.033 4.412-4.531 4.412H10.306l-7.455-5.033-.133-.84h48.53c.173.452.266.944.266 1.461Z"/>
  <path fill="#F4F4F6" d="M51.249 22.485H2.719L.485 7.788h8.212l4.532 8.81h28.039c2.153 0 4.106 1.113 5.143 2.937h.584c1.954 0 3.641 1.23 4.253 2.95Z"/>
  <path fill="#B4B9F1" d="M26 25.421h-7.814L13.216 47h6.206L26 35.758l6.06-10.35H26v.013Z"/>
</svg>
