<svg width="327" height="56" viewBox="0 0 327 56" fill="none" xmlns="http://www.w3.org/2000/svg">
<rect width="327" height="56" rx="20" fill="#0056B3"/>
<g clip-path="url(#clip0_369_11498)">
<path fill-rule="evenodd" clip-rule="evenodd" d="M61.5 28.0558C61.5 33.0275 65.1108 37.1617 69.8333 38V30.7775H67.3333V28H69.8333V25.7775C69.8333 23.2775 71.4442 21.8892 73.7225 21.8892C74.4442 21.8892 75.2225 22 75.9442 22.1108V24.6667H74.6667C73.4442 24.6667 73.1667 25.2775 73.1667 26.0558V28H75.8333L75.3892 30.7775H73.1667V38C77.8892 37.1617 81.5 33.0283 81.5 28.0558C81.5 22.525 77 18 71.5 18C66 18 61.5 22.525 61.5 28.0558Z" fill="white"/>
</g>
<path d="M102.636 33.16C101.644 33.16 100.812 33.016 100.14 32.728C99.4787 32.4293 98.972 32.0453 98.62 31.576C98.2787 31.096 98.0973 30.5947 98.076 30.072C98.076 29.976 98.108 29.896 98.172 29.832C98.236 29.768 98.316 29.736 98.412 29.736H99.836C99.9747 29.736 100.076 29.768 100.14 29.832C100.215 29.8853 100.279 29.9547 100.332 30.04C100.396 30.2427 100.519 30.4453 100.7 30.648C100.881 30.84 101.127 31 101.436 31.128C101.756 31.256 102.156 31.32 102.636 31.32C103.404 31.32 103.975 31.192 104.348 30.936C104.732 30.68 104.924 30.3333 104.924 29.896C104.924 29.5867 104.823 29.3413 104.62 29.16C104.417 28.968 104.103 28.7973 103.676 28.648C103.26 28.488 102.705 28.3227 102.012 28.152C101.212 27.96 100.54 27.7307 99.996 27.464C99.4627 27.1867 99.0573 26.84 98.78 26.424C98.5133 26.008 98.38 25.48 98.38 24.84C98.38 24.2213 98.5453 23.672 98.876 23.192C99.2173 22.712 99.6973 22.3333 100.316 22.056C100.945 21.7787 101.692 21.64 102.556 21.64C103.249 21.64 103.863 21.736 104.396 21.928C104.929 22.1093 105.372 22.3547 105.724 22.664C106.076 22.9627 106.343 23.288 106.524 23.64C106.716 23.9813 106.817 24.3173 106.828 24.648C106.828 24.7333 106.796 24.8133 106.732 24.888C106.679 24.952 106.599 24.984 106.492 24.984H105.004C104.919 24.984 104.833 24.9627 104.748 24.92C104.663 24.8773 104.593 24.7973 104.54 24.68C104.476 24.3493 104.268 24.0667 103.916 23.832C103.564 23.5973 103.111 23.48 102.556 23.48C101.98 23.48 101.516 23.5867 101.164 23.8C100.812 24.0133 100.636 24.344 100.636 24.792C100.636 25.0907 100.721 25.3413 100.892 25.544C101.073 25.736 101.356 25.9067 101.74 26.056C102.135 26.2053 102.652 26.3653 103.292 26.536C104.199 26.7387 104.94 26.9733 105.516 27.24C106.092 27.5067 106.513 27.848 106.78 28.264C107.047 28.6693 107.18 29.1867 107.18 29.816C107.18 30.52 106.988 31.1227 106.604 31.624C106.231 32.1147 105.703 32.4933 105.02 32.76C104.337 33.0267 103.543 33.16 102.636 33.16ZM109.206 33C109.099 33 109.008 32.9627 108.934 32.888C108.859 32.8133 108.822 32.7227 108.822 32.616V25.064C108.822 24.9573 108.859 24.8667 108.934 24.792C109.008 24.7173 109.099 24.68 109.206 24.68H110.534C110.651 24.68 110.742 24.7173 110.806 24.792C110.88 24.8667 110.918 24.9573 110.918 25.064V32.616C110.918 32.7227 110.88 32.8133 110.806 32.888C110.742 32.9627 110.651 33 110.534 33H109.206ZM109.142 23.304C109.024 23.304 108.928 23.272 108.854 23.208C108.79 23.1333 108.758 23.0373 108.758 22.92V21.768C108.758 21.6613 108.79 21.5707 108.854 21.496C108.928 21.4213 109.024 21.384 109.142 21.384H110.598C110.715 21.384 110.811 21.4213 110.886 21.496C110.96 21.5707 110.998 21.6613 110.998 21.768V22.92C110.998 23.0373 110.96 23.1333 110.886 23.208C110.811 23.272 110.715 23.304 110.598 23.304H109.142ZM116.8 36.52C116.022 36.52 115.382 36.4187 114.88 36.216C114.379 36.0133 113.984 35.768 113.696 35.48C113.408 35.192 113.2 34.904 113.072 34.616C112.955 34.3387 112.891 34.12 112.88 33.96C112.87 33.8533 112.902 33.7573 112.976 33.672C113.062 33.5973 113.158 33.56 113.264 33.56H114.656C114.763 33.56 114.848 33.5813 114.912 33.624C114.976 33.6773 115.03 33.768 115.072 33.896C115.136 34.0347 115.222 34.184 115.328 34.344C115.435 34.504 115.595 34.6373 115.808 34.744C116.032 34.8613 116.336 34.92 116.72 34.92C117.126 34.92 117.467 34.8613 117.744 34.744C118.022 34.6267 118.23 34.4293 118.368 34.152C118.518 33.8747 118.592 33.4907 118.592 33V31.912C118.336 32.2213 118.006 32.472 117.6 32.664C117.206 32.856 116.715 32.952 116.128 32.952C115.552 32.952 115.056 32.8613 114.64 32.68C114.224 32.488 113.878 32.2267 113.6 31.896C113.323 31.5547 113.11 31.1547 112.96 30.696C112.822 30.2373 112.742 29.7307 112.72 29.176C112.71 28.888 112.71 28.6 112.72 28.312C112.742 27.7787 112.822 27.2827 112.96 26.824C113.099 26.3653 113.307 25.9653 113.584 25.624C113.872 25.272 114.224 25 114.64 24.808C115.056 24.616 115.552 24.52 116.128 24.52C116.736 24.52 117.248 24.6373 117.664 24.872C118.08 25.096 118.422 25.3787 118.688 25.72V25.08C118.688 24.9627 118.726 24.8667 118.8 24.792C118.875 24.7173 118.966 24.68 119.072 24.68H120.368C120.475 24.68 120.566 24.7173 120.64 24.792C120.715 24.8667 120.752 24.9627 120.752 25.08L120.768 32.792C120.768 33.56 120.624 34.2213 120.336 34.776C120.048 35.3307 119.611 35.7573 119.024 36.056C118.448 36.3653 117.707 36.52 116.8 36.52ZM116.72 31.256C117.158 31.256 117.51 31.16 117.776 30.968C118.043 30.776 118.24 30.5253 118.368 30.216C118.496 29.9067 118.571 29.592 118.592 29.272C118.603 29.1333 118.608 28.9573 118.608 28.744C118.608 28.5307 118.603 28.36 118.592 28.232C118.571 27.9013 118.496 27.5867 118.368 27.288C118.24 26.9787 118.043 26.728 117.776 26.536C117.51 26.3333 117.158 26.232 116.72 26.232C116.283 26.232 115.931 26.3333 115.664 26.536C115.398 26.728 115.206 26.984 115.088 27.304C114.982 27.624 114.918 27.976 114.896 28.36C114.875 28.616 114.875 28.8773 114.896 29.144C114.918 29.5173 114.982 29.8693 115.088 30.2C115.206 30.52 115.398 30.776 115.664 30.968C115.931 31.16 116.283 31.256 116.72 31.256ZM123.284 33C123.177 33 123.086 32.9627 123.012 32.888C122.937 32.8133 122.9 32.7227 122.9 32.616V25.064C122.9 24.9573 122.937 24.8667 123.012 24.792C123.086 24.7173 123.177 24.68 123.284 24.68H124.596C124.702 24.68 124.793 24.7173 124.868 24.792C124.942 24.8667 124.98 24.9573 124.98 25.064V25.72C125.257 25.3787 125.609 25.096 126.036 24.872C126.473 24.6373 127.012 24.52 127.652 24.52C128.302 24.52 128.868 24.6693 129.348 24.968C129.828 25.256 130.196 25.6667 130.452 26.2C130.718 26.7333 130.852 27.3733 130.852 28.12V32.616C130.852 32.7227 130.814 32.8133 130.74 32.888C130.665 32.9627 130.574 33 130.468 33H129.06C128.953 33 128.862 32.9627 128.788 32.888C128.713 32.8133 128.676 32.7227 128.676 32.616V28.216C128.676 27.5973 128.521 27.112 128.212 26.76C127.913 26.408 127.476 26.232 126.9 26.232C126.345 26.232 125.902 26.408 125.572 26.76C125.241 27.112 125.076 27.5973 125.076 28.216V32.616C125.076 32.7227 125.038 32.8133 124.964 32.888C124.889 32.9627 124.798 33 124.692 33H123.284ZM136.924 33C136.818 33 136.727 32.9627 136.652 32.888C136.578 32.8133 136.54 32.7227 136.54 32.616V25.064C136.54 24.9573 136.578 24.8667 136.652 24.792C136.727 24.7173 136.818 24.68 136.924 24.68H138.252C138.37 24.68 138.46 24.7173 138.524 24.792C138.599 24.8667 138.636 24.9573 138.636 25.064V32.616C138.636 32.7227 138.599 32.8133 138.524 32.888C138.46 32.9627 138.37 33 138.252 33H136.924ZM136.86 23.304C136.743 23.304 136.647 23.272 136.572 23.208C136.508 23.1333 136.476 23.0373 136.476 22.92V21.768C136.476 21.6613 136.508 21.5707 136.572 21.496C136.647 21.4213 136.743 21.384 136.86 21.384H138.316C138.434 21.384 138.53 21.4213 138.604 21.496C138.679 21.5707 138.716 21.6613 138.716 21.768V22.92C138.716 23.0373 138.679 23.1333 138.604 23.208C138.53 23.272 138.434 23.304 138.316 23.304H136.86ZM141.471 33C141.365 33 141.274 32.9627 141.199 32.888C141.125 32.8133 141.087 32.7227 141.087 32.616V25.064C141.087 24.9573 141.125 24.8667 141.199 24.792C141.274 24.7173 141.365 24.68 141.471 24.68H142.783C142.89 24.68 142.981 24.7173 143.055 24.792C143.13 24.8667 143.167 24.9573 143.167 25.064V25.72C143.445 25.3787 143.797 25.096 144.223 24.872C144.661 24.6373 145.199 24.52 145.839 24.52C146.49 24.52 147.055 24.6693 147.535 24.968C148.015 25.256 148.383 25.6667 148.639 26.2C148.906 26.7333 149.039 27.3733 149.039 28.12V32.616C149.039 32.7227 149.002 32.8133 148.927 32.888C148.853 32.9627 148.762 33 148.655 33H147.247C147.141 33 147.05 32.9627 146.975 32.888C146.901 32.8133 146.863 32.7227 146.863 32.616V28.216C146.863 27.5973 146.709 27.112 146.399 26.76C146.101 26.408 145.663 26.232 145.087 26.232C144.533 26.232 144.09 26.408 143.759 26.76C143.429 27.112 143.263 27.5973 143.263 28.216V32.616C143.263 32.7227 143.226 32.8133 143.151 32.888C143.077 32.9627 142.986 33 142.879 33H141.471ZM156.641 33C156.491 33 156.379 32.9627 156.305 32.888C156.23 32.8133 156.166 32.7173 156.113 32.6L153.825 25.176C153.814 25.1227 153.809 25.0747 153.809 25.032C153.809 24.936 153.841 24.856 153.905 24.792C153.979 24.7173 154.059 24.68 154.145 24.68H155.329C155.457 24.68 155.558 24.7173 155.633 24.792C155.707 24.856 155.75 24.92 155.761 24.984L157.329 30.28L158.993 25.032C159.014 24.9573 159.062 24.8827 159.137 24.808C159.211 24.7227 159.323 24.68 159.473 24.68H160.273C160.422 24.68 160.534 24.7227 160.609 24.808C160.683 24.8827 160.731 24.9573 160.753 25.032L162.417 30.28L163.985 24.984C163.995 24.92 164.033 24.856 164.097 24.792C164.171 24.7173 164.273 24.68 164.401 24.68H165.585C165.681 24.68 165.761 24.7173 165.825 24.792C165.899 24.856 165.937 24.936 165.937 25.032C165.937 25.0747 165.926 25.1227 165.905 25.176L163.617 32.6C163.585 32.7173 163.526 32.8133 163.441 32.888C163.366 32.9627 163.254 33 163.105 33H162.065C161.915 33 161.798 32.9627 161.713 32.888C161.627 32.8133 161.569 32.7173 161.536 32.6L159.873 27.544L158.209 32.6C158.166 32.7173 158.102 32.8133 158.016 32.888C157.942 32.9627 157.825 33 157.665 33H156.641ZM167.878 33C167.771 33 167.68 32.9627 167.606 32.888C167.531 32.8133 167.493 32.7227 167.493 32.616V25.064C167.493 24.9573 167.531 24.8667 167.606 24.792C167.68 24.7173 167.771 24.68 167.878 24.68H169.206C169.323 24.68 169.414 24.7173 169.478 24.792C169.552 24.8667 169.59 24.9573 169.59 25.064V32.616C169.59 32.7227 169.552 32.8133 169.478 32.888C169.414 32.9627 169.323 33 169.206 33H167.878ZM167.814 23.304C167.696 23.304 167.6 23.272 167.526 23.208C167.462 23.1333 167.43 23.0373 167.43 22.92V21.768C167.43 21.6613 167.462 21.5707 167.526 21.496C167.6 21.4213 167.696 21.384 167.814 21.384H169.27C169.387 21.384 169.483 21.4213 169.558 21.496C169.632 21.5707 169.67 21.6613 169.67 21.768V22.92C169.67 23.0373 169.632 23.1333 169.558 23.208C169.483 23.272 169.387 23.304 169.27 23.304H167.814ZM175.472 33C174.832 33 174.294 32.888 173.856 32.664C173.419 32.44 173.094 32.1093 172.88 31.672C172.667 31.224 172.56 30.6693 172.56 30.008V26.376H171.296C171.19 26.376 171.099 26.3387 171.024 26.264C170.95 26.1893 170.912 26.0987 170.912 25.992V25.064C170.912 24.9573 170.95 24.8667 171.024 24.792C171.099 24.7173 171.19 24.68 171.296 24.68H172.56V22.024C172.56 21.9173 172.592 21.8267 172.656 21.752C172.731 21.6773 172.827 21.64 172.944 21.64H174.24C174.347 21.64 174.438 21.6773 174.512 21.752C174.587 21.8267 174.624 21.9173 174.624 22.024V24.68H176.624C176.731 24.68 176.822 24.7173 176.896 24.792C176.971 24.8667 177.008 24.9573 177.008 25.064V25.992C177.008 26.0987 176.971 26.1893 176.896 26.264C176.822 26.3387 176.731 26.376 176.624 26.376H174.624V29.848C174.624 30.2853 174.699 30.6267 174.848 30.872C175.008 31.1173 175.28 31.24 175.664 31.24H176.768C176.875 31.24 176.966 31.2773 177.04 31.352C177.115 31.4267 177.152 31.5173 177.152 31.624V32.616C177.152 32.7227 177.115 32.8133 177.04 32.888C176.966 32.9627 176.875 33 176.768 33H175.472ZM178.972 33C178.865 33 178.774 32.9627 178.7 32.888C178.625 32.8133 178.588 32.7227 178.588 32.616V22.024C178.588 21.9173 178.625 21.8267 178.7 21.752C178.774 21.6773 178.865 21.64 178.972 21.64H180.396C180.513 21.64 180.604 21.6773 180.668 21.752C180.742 21.8267 180.78 21.9173 180.78 22.024V25.672C181.068 25.3307 181.42 25.0533 181.836 24.84C182.252 24.6267 182.764 24.52 183.372 24.52C184.022 24.52 184.588 24.6693 185.068 24.968C185.558 25.256 185.937 25.6667 186.204 26.2C186.47 26.7333 186.604 27.3733 186.604 28.12V32.616C186.604 32.7227 186.566 32.8133 186.492 32.888C186.417 32.9627 186.326 33 186.22 33H184.78C184.673 33 184.582 32.9627 184.508 32.888C184.433 32.8133 184.396 32.7227 184.396 32.616V28.216C184.396 27.5973 184.241 27.112 183.932 26.76C183.633 26.408 183.196 26.232 182.62 26.232C182.065 26.232 181.617 26.408 181.276 26.76C180.945 27.112 180.78 27.5973 180.78 28.216V32.616C180.78 32.7227 180.742 32.8133 180.668 32.888C180.604 32.9627 180.513 33 180.396 33H178.972ZM192.866 33C192.76 33 192.669 32.9627 192.594 32.888C192.52 32.8133 192.482 32.7227 192.482 32.616V22.2C192.482 22.0827 192.52 21.9867 192.594 21.912C192.669 21.8373 192.76 21.8 192.866 21.8H199.81C199.928 21.8 200.024 21.8373 200.098 21.912C200.173 21.9867 200.21 22.0827 200.21 22.2V23.32C200.21 23.4373 200.173 23.5333 200.098 23.608C200.024 23.672 199.928 23.704 199.81 23.704H194.674V26.744H199.49C199.608 26.744 199.704 26.7813 199.778 26.856C199.853 26.9307 199.89 27.0267 199.89 27.144V28.264C199.89 28.3707 199.853 28.4613 199.778 28.536C199.704 28.6107 199.608 28.648 199.49 28.648H194.674V32.616C194.674 32.7227 194.637 32.8133 194.562 32.888C194.488 32.9627 194.392 33 194.274 33H192.866ZM203.91 33.16C203.355 33.16 202.854 33.0533 202.406 32.84C201.958 32.616 201.6 32.3227 201.334 31.96C201.078 31.5867 200.95 31.1707 200.95 30.712C200.95 29.9653 201.248 29.3733 201.846 28.936C202.454 28.488 203.254 28.1893 204.246 28.04L206.438 27.72V27.384C206.438 26.936 206.326 26.5893 206.102 26.344C205.878 26.0987 205.494 25.976 204.95 25.976C204.566 25.976 204.251 26.056 204.006 26.216C203.771 26.3653 203.595 26.568 203.478 26.824C203.392 26.9627 203.27 27.032 203.11 27.032H201.846C201.728 27.032 201.638 27 201.574 26.936C201.52 26.872 201.493 26.7867 201.493 26.68C201.504 26.5093 201.574 26.3013 201.702 26.056C201.83 25.8107 202.032 25.576 202.31 25.352C202.587 25.1173 202.944 24.92 203.382 24.76C203.819 24.6 204.347 24.52 204.966 24.52C205.638 24.52 206.203 24.6053 206.662 24.776C207.131 24.936 207.504 25.1547 207.782 25.432C208.059 25.7093 208.262 26.0347 208.39 26.408C208.518 26.7813 208.582 27.176 208.582 27.592V32.616C208.582 32.7227 208.544 32.8133 208.47 32.888C208.395 32.9627 208.304 33 208.198 33H206.902C206.784 33 206.688 32.9627 206.614 32.888C206.55 32.8133 206.518 32.7227 206.518 32.616V31.992C206.379 32.1947 206.192 32.3867 205.958 32.568C205.723 32.7387 205.435 32.8827 205.094 33C204.763 33.1067 204.368 33.16 203.91 33.16ZM204.454 31.64C204.827 31.64 205.163 31.56 205.462 31.4C205.771 31.24 206.011 30.9947 206.182 30.664C206.363 30.3227 206.454 29.896 206.454 29.384V29.048L204.854 29.304C204.224 29.4 203.755 29.5547 203.446 29.768C203.136 29.9813 202.982 30.2427 202.982 30.552C202.982 30.7867 203.051 30.9893 203.19 31.16C203.339 31.32 203.526 31.4427 203.75 31.528C203.974 31.6027 204.208 31.64 204.454 31.64ZM214.234 33.16C213.466 33.16 212.789 33.016 212.202 32.728C211.626 32.44 211.173 32.024 210.842 31.48C210.522 30.9253 210.346 30.2587 210.314 29.48C210.303 29.32 210.298 29.112 210.298 28.856C210.298 28.5893 210.303 28.3707 210.314 28.2C210.346 27.4213 210.522 26.76 210.842 26.216C211.173 25.6613 211.626 25.24 212.202 24.952C212.789 24.664 213.466 24.52 214.234 24.52C214.917 24.52 215.498 24.616 215.978 24.808C216.458 25 216.853 25.24 217.162 25.528C217.471 25.816 217.701 26.12 217.85 26.44C218.01 26.7493 218.095 27.032 218.106 27.288C218.117 27.4053 218.079 27.5013 217.994 27.576C217.919 27.64 217.829 27.672 217.722 27.672H216.314C216.207 27.672 216.122 27.6453 216.058 27.592C216.005 27.5387 215.951 27.4587 215.898 27.352C215.738 26.9253 215.525 26.6267 215.258 26.456C215.002 26.2747 214.671 26.184 214.266 26.184C213.733 26.184 213.306 26.3547 212.986 26.696C212.677 27.0267 212.511 27.5547 212.49 28.28C212.469 28.6853 212.469 29.0587 212.49 29.4C212.511 30.136 212.677 30.6693 212.986 31C213.306 31.3307 213.733 31.496 214.266 31.496C214.682 31.496 215.018 31.4107 215.274 31.24C215.53 31.0587 215.738 30.7547 215.898 30.328C215.951 30.2213 216.005 30.1413 216.058 30.088C216.122 30.0347 216.207 30.008 216.314 30.008H217.722C217.829 30.008 217.919 30.0453 217.994 30.12C218.079 30.184 218.117 30.2747 218.106 30.392C218.095 30.584 218.042 30.8027 217.946 31.048C217.861 31.2827 217.717 31.528 217.514 31.784C217.322 32.0293 217.077 32.2587 216.778 32.472C216.479 32.6747 216.117 32.84 215.69 32.968C215.274 33.096 214.789 33.16 214.234 33.16ZM223.359 33.16C222.175 33.16 221.236 32.8187 220.543 32.136C219.849 31.4533 219.476 30.4827 219.423 29.224C219.412 29.1173 219.407 28.984 219.407 28.824C219.407 28.6533 219.412 28.52 219.423 28.424C219.465 27.624 219.647 26.9307 219.967 26.344C220.297 25.7573 220.751 25.3093 221.327 25C221.903 24.68 222.58 24.52 223.359 24.52C224.223 24.52 224.948 24.7013 225.535 25.064C226.121 25.416 226.564 25.912 226.863 26.552C227.161 27.1813 227.311 27.912 227.311 28.744V29.08C227.311 29.1867 227.273 29.2773 227.199 29.352C227.124 29.4267 227.028 29.464 226.911 29.464H221.599C221.599 29.464 221.599 29.48 221.599 29.512C221.599 29.544 221.599 29.5707 221.599 29.592C221.609 29.9653 221.679 30.312 221.807 30.632C221.945 30.9413 222.143 31.192 222.399 31.384C222.665 31.576 222.98 31.672 223.343 31.672C223.641 31.672 223.892 31.6293 224.095 31.544C224.297 31.448 224.463 31.3413 224.591 31.224C224.719 31.1067 224.809 31.0107 224.863 30.936C224.959 30.808 225.033 30.7333 225.087 30.712C225.151 30.68 225.241 30.664 225.359 30.664H226.735C226.841 30.664 226.927 30.696 226.991 30.76C227.065 30.824 227.097 30.904 227.087 31C227.076 31.1707 226.985 31.3787 226.815 31.624C226.655 31.8693 226.42 32.1093 226.111 32.344C225.801 32.5787 225.412 32.776 224.943 32.936C224.484 33.0853 223.956 33.16 223.359 33.16ZM221.599 28.12H225.135V28.072C225.135 27.656 225.065 27.2933 224.927 26.984C224.788 26.6747 224.585 26.4293 224.319 26.248C224.052 26.0667 223.732 25.976 223.359 25.976C222.985 25.976 222.665 26.0667 222.399 26.248C222.132 26.4293 221.929 26.6747 221.791 26.984C221.663 27.2933 221.599 27.656 221.599 28.072V28.12ZM233.617 33.16C232.998 33.16 232.481 33.0533 232.065 32.84C231.66 32.6267 231.324 32.3547 231.057 32.024V32.616C231.057 32.7227 231.02 32.8133 230.945 32.888C230.881 32.9627 230.79 33 230.673 33H229.409C229.302 33 229.212 32.9627 229.137 32.888C229.062 32.8133 229.025 32.7227 229.025 32.616V22.024C229.025 21.9173 229.062 21.8267 229.137 21.752C229.212 21.6773 229.302 21.64 229.409 21.64H230.769C230.886 21.64 230.977 21.6773 231.041 21.752C231.116 21.8267 231.153 21.9173 231.153 22.024V25.576C231.42 25.2667 231.75 25.016 232.145 24.824C232.55 24.6213 233.041 24.52 233.617 24.52C234.182 24.52 234.673 24.616 235.089 24.808C235.505 25 235.852 25.272 236.129 25.624C236.417 25.9653 236.636 26.3653 236.785 26.824C236.934 27.2827 237.014 27.7787 237.025 28.312C237.036 28.504 237.041 28.68 237.041 28.84C237.041 28.9893 237.036 29.16 237.025 29.352C237.004 29.9067 236.918 30.4187 236.769 30.888C236.62 31.3467 236.406 31.7467 236.129 32.088C235.852 32.4293 235.505 32.696 235.089 32.888C234.673 33.0693 234.182 33.16 233.617 33.16ZM233.025 31.448C233.484 31.448 233.841 31.352 234.097 31.16C234.353 30.9573 234.534 30.696 234.641 30.376C234.758 30.056 234.828 29.704 234.849 29.32C234.87 29 234.87 28.68 234.849 28.36C234.828 27.976 234.758 27.624 234.641 27.304C234.534 26.984 234.353 26.728 234.097 26.536C233.841 26.3333 233.484 26.232 233.025 26.232C232.598 26.232 232.252 26.328 231.985 26.52C231.718 26.712 231.516 26.9573 231.377 27.256C231.238 27.544 231.164 27.848 231.153 28.168C231.142 28.36 231.137 28.568 231.137 28.792C231.137 29.0053 231.142 29.208 231.153 29.4C231.174 29.7307 231.244 30.056 231.361 30.376C231.489 30.6853 231.686 30.9413 231.953 31.144C232.23 31.3467 232.588 31.448 233.025 31.448ZM242.502 33.16C241.648 33.16 240.928 33.0107 240.342 32.712C239.766 32.4133 239.323 31.992 239.014 31.448C238.715 30.904 238.544 30.2693 238.502 29.544C238.491 29.352 238.486 29.1173 238.486 28.84C238.486 28.5627 238.491 28.328 238.502 28.136C238.544 27.4 238.72 26.7653 239.03 26.232C239.35 25.688 239.798 25.2667 240.374 24.968C240.96 24.6693 241.67 24.52 242.502 24.52C243.334 24.52 244.038 24.6693 244.614 24.968C245.2 25.2667 245.648 25.688 245.958 26.232C246.278 26.7653 246.459 27.4 246.502 28.136C246.512 28.328 246.518 28.5627 246.518 28.84C246.518 29.1173 246.512 29.352 246.502 29.544C246.459 30.2693 246.283 30.904 245.974 31.448C245.675 31.992 245.232 32.4133 244.646 32.712C244.07 33.0107 243.355 33.16 242.502 33.16ZM242.502 31.576C243.067 31.576 243.504 31.4 243.814 31.048C244.123 30.6853 244.294 30.1573 244.326 29.464C244.336 29.304 244.342 29.096 244.342 28.84C244.342 28.584 244.336 28.376 244.326 28.216C244.294 27.5333 244.123 27.0107 243.814 26.648C243.504 26.2853 243.067 26.104 242.502 26.104C241.936 26.104 241.499 26.2853 241.19 26.648C240.88 27.0107 240.71 27.5333 240.678 28.216C240.667 28.376 240.662 28.584 240.662 28.84C240.662 29.096 240.667 29.304 240.678 29.464C240.71 30.1573 240.88 30.6853 241.19 31.048C241.499 31.4 241.936 31.576 242.502 31.576ZM251.97 33.16C251.117 33.16 250.397 33.0107 249.81 32.712C249.234 32.4133 248.792 31.992 248.482 31.448C248.184 30.904 248.013 30.2693 247.97 29.544C247.96 29.352 247.954 29.1173 247.954 28.84C247.954 28.5627 247.96 28.328 247.97 28.136C248.013 27.4 248.189 26.7653 248.498 26.232C248.818 25.688 249.266 25.2667 249.842 24.968C250.429 24.6693 251.138 24.52 251.97 24.52C252.802 24.52 253.506 24.6693 254.082 24.968C254.669 25.2667 255.117 25.688 255.426 26.232C255.746 26.7653 255.928 27.4 255.97 28.136C255.981 28.328 255.986 28.5627 255.986 28.84C255.986 29.1173 255.981 29.352 255.97 29.544C255.928 30.2693 255.752 30.904 255.442 31.448C255.144 31.992 254.701 32.4133 254.114 32.712C253.538 33.0107 252.824 33.16 251.97 33.16ZM251.97 31.576C252.536 31.576 252.973 31.4 253.282 31.048C253.592 30.6853 253.762 30.1573 253.794 29.464C253.805 29.304 253.81 29.096 253.81 28.84C253.81 28.584 253.805 28.376 253.794 28.216C253.762 27.5333 253.592 27.0107 253.282 26.648C252.973 26.2853 252.536 26.104 251.97 26.104C251.405 26.104 250.968 26.2853 250.658 26.648C250.349 27.0107 250.178 27.5333 250.146 28.216C250.136 28.376 250.13 28.584 250.13 28.84C250.13 29.096 250.136 29.304 250.146 29.464C250.178 30.1573 250.349 30.6853 250.658 31.048C250.968 31.4 251.405 31.576 251.97 31.576ZM258.159 33C258.052 33 257.962 32.9627 257.887 32.888C257.812 32.8133 257.775 32.7227 257.775 32.616V22.024C257.775 21.9173 257.812 21.8267 257.887 21.752C257.962 21.6773 258.052 21.64 258.159 21.64H259.455C259.572 21.64 259.663 21.6773 259.727 21.752C259.802 21.8267 259.839 21.9173 259.839 22.024V27.496L262.527 24.952C262.623 24.8667 262.708 24.8027 262.783 24.76C262.858 24.7067 262.97 24.68 263.119 24.68H264.607C264.714 24.68 264.799 24.712 264.863 24.776C264.927 24.84 264.959 24.9253 264.959 25.032C264.959 25.0747 264.948 25.1227 264.927 25.176C264.906 25.2293 264.863 25.2773 264.799 25.32L261.503 28.408L265.199 32.376C265.306 32.4827 265.359 32.5733 265.359 32.648C265.359 32.7547 265.322 32.84 265.247 32.904C265.183 32.968 265.103 33 265.007 33H263.487C263.327 33 263.21 32.9787 263.135 32.936C263.071 32.8827 262.991 32.8133 262.895 32.728L259.839 29.512V32.616C259.839 32.7227 259.802 32.8133 259.727 32.888C259.663 32.9627 259.572 33 259.455 33H258.159Z" fill="white"/>
<defs>
<clipPath id="clip0_369_11498">
<rect width="20" height="20" fill="white" transform="translate(61.5 18)"/>
</clipPath>
</defs>
</svg>
