<svg width="327" height="56" viewBox="0 0 327 56" fill="none" xmlns="http://www.w3.org/2000/svg">
<rect width="327" height="56" rx="20" fill="#0056B3"/>
<g clip-path="url(#clip0_360_11575)">
<path fill-rule="evenodd" clip-rule="evenodd" d="M66 28.0558C66 33.0275 69.6108 37.1617 74.3333 38V30.7775H71.8333V28H74.3333V25.7775C74.3333 23.2775 75.9442 21.8892 78.2225 21.8892C78.9442 21.8892 79.7225 22 80.4442 22.1108V24.6667H79.1667C77.9442 24.6667 77.6667 25.2775 77.6667 26.0558V28H80.3333L79.8892 30.7775H77.6667V38C82.3892 37.1617 86 33.0283 86 28.0558C86 22.525 81.5 18 76 18C70.5 18 66 22.525 66 28.0558Z" fill="white"/>
</g>
<path d="M103.882 33C103.775 33 103.685 32.9627 103.61 32.888C103.535 32.8133 103.498 32.7227 103.498 32.616V22.184C103.498 22.0773 103.535 21.9867 103.61 21.912C103.685 21.8373 103.775 21.8 103.882 21.8H105.37C105.477 21.8 105.567 21.8373 105.642 21.912C105.717 21.9867 105.754 22.0773 105.754 22.184V31.096H110.826C110.943 31.096 111.039 31.1333 111.114 31.208C111.189 31.2827 111.226 31.3787 111.226 31.496V32.616C111.226 32.7227 111.189 32.8133 111.114 32.888C111.039 32.9627 110.943 33 110.826 33H103.882ZM116.142 33.16C115.289 33.16 114.569 33.0107 113.982 32.712C113.406 32.4133 112.964 31.992 112.654 31.448C112.356 30.904 112.185 30.2693 112.142 29.544C112.132 29.352 112.126 29.1173 112.126 28.84C112.126 28.5627 112.132 28.328 112.142 28.136C112.185 27.4 112.361 26.7653 112.67 26.232C112.99 25.688 113.438 25.2667 114.014 24.968C114.601 24.6693 115.31 24.52 116.142 24.52C116.974 24.52 117.678 24.6693 118.254 24.968C118.841 25.2667 119.289 25.688 119.598 26.232C119.918 26.7653 120.1 27.4 120.142 28.136C120.153 28.328 120.158 28.5627 120.158 28.84C120.158 29.1173 120.153 29.352 120.142 29.544C120.1 30.2693 119.924 30.904 119.614 31.448C119.316 31.992 118.873 32.4133 118.286 32.712C117.71 33.0107 116.996 33.16 116.142 33.16ZM116.142 31.576C116.708 31.576 117.145 31.4 117.454 31.048C117.764 30.6853 117.934 30.1573 117.966 29.464C117.977 29.304 117.982 29.096 117.982 28.84C117.982 28.584 117.977 28.376 117.966 28.216C117.934 27.5333 117.764 27.0107 117.454 26.648C117.145 26.2853 116.708 26.104 116.142 26.104C115.577 26.104 115.14 26.2853 114.83 26.648C114.521 27.0107 114.35 27.5333 114.318 28.216C114.308 28.376 114.302 28.584 114.302 28.84C114.302 29.096 114.308 29.304 114.318 29.464C114.35 30.1573 114.521 30.6853 114.83 31.048C115.14 31.4 115.577 31.576 116.142 31.576ZM125.691 36.52C124.912 36.52 124.272 36.4187 123.771 36.216C123.27 36.0133 122.875 35.768 122.587 35.48C122.299 35.192 122.091 34.904 121.963 34.616C121.846 34.3387 121.782 34.12 121.771 33.96C121.76 33.8533 121.792 33.7573 121.867 33.672C121.952 33.5973 122.048 33.56 122.155 33.56H123.547C123.654 33.56 123.739 33.5813 123.803 33.624C123.867 33.6773 123.92 33.768 123.963 33.896C124.027 34.0347 124.112 34.184 124.219 34.344C124.326 34.504 124.486 34.6373 124.699 34.744C124.923 34.8613 125.227 34.92 125.611 34.92C126.016 34.92 126.358 34.8613 126.635 34.744C126.912 34.6267 127.12 34.4293 127.259 34.152C127.408 33.8747 127.483 33.4907 127.483 33V31.912C127.227 32.2213 126.896 32.472 126.491 32.664C126.096 32.856 125.606 32.952 125.019 32.952C124.443 32.952 123.947 32.8613 123.531 32.68C123.115 32.488 122.768 32.2267 122.491 31.896C122.214 31.5547 122 31.1547 121.851 30.696C121.712 30.2373 121.632 29.7307 121.611 29.176C121.6 28.888 121.6 28.6 121.611 28.312C121.632 27.7787 121.712 27.2827 121.851 26.824C121.99 26.3653 122.198 25.9653 122.475 25.624C122.763 25.272 123.115 25 123.531 24.808C123.947 24.616 124.443 24.52 125.019 24.52C125.627 24.52 126.139 24.6373 126.555 24.872C126.971 25.096 127.312 25.3787 127.579 25.72V25.08C127.579 24.9627 127.616 24.8667 127.691 24.792C127.766 24.7173 127.856 24.68 127.963 24.68H129.259C129.366 24.68 129.456 24.7173 129.531 24.792C129.606 24.8667 129.643 24.9627 129.643 25.08L129.659 32.792C129.659 33.56 129.515 34.2213 129.227 34.776C128.939 35.3307 128.502 35.7573 127.915 36.056C127.339 36.3653 126.598 36.52 125.691 36.52ZM125.611 31.256C126.048 31.256 126.4 31.16 126.667 30.968C126.934 30.776 127.131 30.5253 127.259 30.216C127.387 29.9067 127.462 29.592 127.483 29.272C127.494 29.1333 127.499 28.9573 127.499 28.744C127.499 28.5307 127.494 28.36 127.483 28.232C127.462 27.9013 127.387 27.5867 127.259 27.288C127.131 26.9787 126.934 26.728 126.667 26.536C126.4 26.3333 126.048 26.232 125.611 26.232C125.174 26.232 124.822 26.3333 124.555 26.536C124.288 26.728 124.096 26.984 123.979 27.304C123.872 27.624 123.808 27.976 123.787 28.36C123.766 28.616 123.766 28.8773 123.787 29.144C123.808 29.5173 123.872 29.8693 123.979 30.2C124.096 30.52 124.288 30.776 124.555 30.968C124.822 31.16 125.174 31.256 125.611 31.256ZM132.174 33C132.068 33 131.977 32.9627 131.902 32.888C131.828 32.8133 131.79 32.7227 131.79 32.616V25.064C131.79 24.9573 131.828 24.8667 131.902 24.792C131.977 24.7173 132.068 24.68 132.174 24.68H133.502C133.62 24.68 133.71 24.7173 133.774 24.792C133.849 24.8667 133.886 24.9573 133.886 25.064V32.616C133.886 32.7227 133.849 32.8133 133.774 32.888C133.71 32.9627 133.62 33 133.502 33H132.174ZM132.11 23.304C131.993 23.304 131.897 23.272 131.822 23.208C131.758 23.1333 131.726 23.0373 131.726 22.92V21.768C131.726 21.6613 131.758 21.5707 131.822 21.496C131.897 21.4213 131.993 21.384 132.11 21.384H133.566C133.684 21.384 133.78 21.4213 133.854 21.496C133.929 21.5707 133.966 21.6613 133.966 21.768V22.92C133.966 23.0373 133.929 23.1333 133.854 23.208C133.78 23.272 133.684 23.304 133.566 23.304H132.11ZM136.721 33C136.615 33 136.524 32.9627 136.449 32.888C136.375 32.8133 136.337 32.7227 136.337 32.616V25.064C136.337 24.9573 136.375 24.8667 136.449 24.792C136.524 24.7173 136.615 24.68 136.721 24.68H138.033C138.14 24.68 138.231 24.7173 138.305 24.792C138.38 24.8667 138.417 24.9573 138.417 25.064V25.72C138.695 25.3787 139.047 25.096 139.473 24.872C139.911 24.6373 140.449 24.52 141.089 24.52C141.74 24.52 142.305 24.6693 142.785 24.968C143.265 25.256 143.633 25.6667 143.889 26.2C144.156 26.7333 144.289 27.3733 144.289 28.12V32.616C144.289 32.7227 144.252 32.8133 144.177 32.888C144.103 32.9627 144.012 33 143.905 33H142.497C142.391 33 142.3 32.9627 142.225 32.888C142.151 32.8133 142.113 32.7227 142.113 32.616V28.216C142.113 27.5973 141.959 27.112 141.649 26.76C141.351 26.408 140.913 26.232 140.337 26.232C139.783 26.232 139.34 26.408 139.009 26.76C138.679 27.112 138.513 27.5973 138.513 28.216V32.616C138.513 32.7227 138.476 32.8133 138.401 32.888C138.327 32.9627 138.236 33 138.129 33H136.721ZM151.891 33C151.741 33 151.629 32.9627 151.555 32.888C151.48 32.8133 151.416 32.7173 151.363 32.6L149.075 25.176C149.064 25.1227 149.059 25.0747 149.059 25.032C149.059 24.936 149.091 24.856 149.155 24.792C149.229 24.7173 149.309 24.68 149.395 24.68H150.579C150.707 24.68 150.808 24.7173 150.883 24.792C150.957 24.856 151 24.92 151.011 24.984L152.579 30.28L154.243 25.032C154.264 24.9573 154.312 24.8827 154.387 24.808C154.461 24.7227 154.573 24.68 154.723 24.68H155.523C155.672 24.68 155.784 24.7227 155.859 24.808C155.933 24.8827 155.981 24.9573 156.003 25.032L157.667 30.28L159.235 24.984C159.245 24.92 159.283 24.856 159.347 24.792C159.421 24.7173 159.523 24.68 159.651 24.68H160.835C160.931 24.68 161.011 24.7173 161.075 24.792C161.149 24.856 161.187 24.936 161.187 25.032C161.187 25.0747 161.176 25.1227 161.155 25.176L158.867 32.6C158.835 32.7173 158.776 32.8133 158.691 32.888C158.616 32.9627 158.504 33 158.355 33H157.315C157.165 33 157.048 32.9627 156.963 32.888C156.877 32.8133 156.819 32.7173 156.786 32.6L155.123 27.544L153.459 32.6C153.416 32.7173 153.352 32.8133 153.266 32.888C153.192 32.9627 153.075 33 152.915 33H151.891ZM163.128 33C163.021 33 162.93 32.9627 162.856 32.888C162.781 32.8133 162.743 32.7227 162.743 32.616V25.064C162.743 24.9573 162.781 24.8667 162.856 24.792C162.93 24.7173 163.021 24.68 163.128 24.68H164.456C164.573 24.68 164.664 24.7173 164.728 24.792C164.802 24.8667 164.84 24.9573 164.84 25.064V32.616C164.84 32.7227 164.802 32.8133 164.728 32.888C164.664 32.9627 164.573 33 164.456 33H163.128ZM163.064 23.304C162.946 23.304 162.85 23.272 162.776 23.208C162.712 23.1333 162.68 23.0373 162.68 22.92V21.768C162.68 21.6613 162.712 21.5707 162.776 21.496C162.85 21.4213 162.946 21.384 163.064 21.384H164.52C164.637 21.384 164.733 21.4213 164.808 21.496C164.882 21.5707 164.92 21.6613 164.92 21.768V22.92C164.92 23.0373 164.882 23.1333 164.808 23.208C164.733 23.272 164.637 23.304 164.52 23.304H163.064ZM170.722 33C170.082 33 169.544 32.888 169.106 32.664C168.669 32.44 168.344 32.1093 168.13 31.672C167.917 31.224 167.81 30.6693 167.81 30.008V26.376H166.546C166.44 26.376 166.349 26.3387 166.274 26.264C166.2 26.1893 166.162 26.0987 166.162 25.992V25.064C166.162 24.9573 166.2 24.8667 166.274 24.792C166.349 24.7173 166.44 24.68 166.546 24.68H167.81V22.024C167.81 21.9173 167.842 21.8267 167.906 21.752C167.981 21.6773 168.077 21.64 168.194 21.64H169.49C169.597 21.64 169.688 21.6773 169.762 21.752C169.837 21.8267 169.874 21.9173 169.874 22.024V24.68H171.874C171.981 24.68 172.072 24.7173 172.146 24.792C172.221 24.8667 172.258 24.9573 172.258 25.064V25.992C172.258 26.0987 172.221 26.1893 172.146 26.264C172.072 26.3387 171.981 26.376 171.874 26.376H169.874V29.848C169.874 30.2853 169.949 30.6267 170.098 30.872C170.258 31.1173 170.53 31.24 170.914 31.24H172.018C172.125 31.24 172.216 31.2773 172.29 31.352C172.365 31.4267 172.402 31.5173 172.402 31.624V32.616C172.402 32.7227 172.365 32.8133 172.29 32.888C172.216 32.9627 172.125 33 172.018 33H170.722ZM174.222 33C174.115 33 174.024 32.9627 173.95 32.888C173.875 32.8133 173.838 32.7227 173.838 32.616V22.024C173.838 21.9173 173.875 21.8267 173.95 21.752C174.024 21.6773 174.115 21.64 174.222 21.64H175.646C175.763 21.64 175.854 21.6773 175.918 21.752C175.992 21.8267 176.03 21.9173 176.03 22.024V25.672C176.318 25.3307 176.67 25.0533 177.086 24.84C177.502 24.6267 178.014 24.52 178.622 24.52C179.272 24.52 179.838 24.6693 180.318 24.968C180.808 25.256 181.187 25.6667 181.454 26.2C181.72 26.7333 181.854 27.3733 181.854 28.12V32.616C181.854 32.7227 181.816 32.8133 181.742 32.888C181.667 32.9627 181.576 33 181.47 33H180.03C179.923 33 179.832 32.9627 179.758 32.888C179.683 32.8133 179.646 32.7227 179.646 32.616V28.216C179.646 27.5973 179.491 27.112 179.182 26.76C178.883 26.408 178.446 26.232 177.87 26.232C177.315 26.232 176.867 26.408 176.526 26.76C176.195 27.112 176.03 27.5973 176.03 28.216V32.616C176.03 32.7227 175.992 32.8133 175.918 32.888C175.854 32.9627 175.763 33 175.646 33H174.222ZM188.116 33C188.01 33 187.919 32.9627 187.844 32.888C187.77 32.8133 187.732 32.7227 187.732 32.616V22.2C187.732 22.0827 187.77 21.9867 187.844 21.912C187.919 21.8373 188.01 21.8 188.116 21.8H195.06C195.178 21.8 195.274 21.8373 195.348 21.912C195.423 21.9867 195.46 22.0827 195.46 22.2V23.32C195.46 23.4373 195.423 23.5333 195.348 23.608C195.274 23.672 195.178 23.704 195.06 23.704H189.924V26.744H194.74C194.858 26.744 194.954 26.7813 195.028 26.856C195.103 26.9307 195.14 27.0267 195.14 27.144V28.264C195.14 28.3707 195.103 28.4613 195.028 28.536C194.954 28.6107 194.858 28.648 194.74 28.648H189.924V32.616C189.924 32.7227 189.887 32.8133 189.812 32.888C189.738 32.9627 189.642 33 189.524 33H188.116ZM199.16 33.16C198.605 33.16 198.104 33.0533 197.656 32.84C197.208 32.616 196.85 32.3227 196.584 31.96C196.328 31.5867 196.2 31.1707 196.2 30.712C196.2 29.9653 196.498 29.3733 197.096 28.936C197.704 28.488 198.504 28.1893 199.496 28.04L201.688 27.72V27.384C201.688 26.936 201.576 26.5893 201.352 26.344C201.128 26.0987 200.744 25.976 200.2 25.976C199.816 25.976 199.501 26.056 199.256 26.216C199.021 26.3653 198.845 26.568 198.728 26.824C198.642 26.9627 198.52 27.032 198.36 27.032H197.096C196.978 27.032 196.888 27 196.824 26.936C196.77 26.872 196.743 26.7867 196.743 26.68C196.754 26.5093 196.824 26.3013 196.952 26.056C197.08 25.8107 197.282 25.576 197.56 25.352C197.837 25.1173 198.194 24.92 198.632 24.76C199.069 24.6 199.597 24.52 200.216 24.52C200.888 24.52 201.453 24.6053 201.912 24.776C202.381 24.936 202.754 25.1547 203.032 25.432C203.309 25.7093 203.512 26.0347 203.64 26.408C203.768 26.7813 203.832 27.176 203.832 27.592V32.616C203.832 32.7227 203.794 32.8133 203.72 32.888C203.645 32.9627 203.554 33 203.448 33H202.152C202.034 33 201.938 32.9627 201.864 32.888C201.8 32.8133 201.768 32.7227 201.768 32.616V31.992C201.629 32.1947 201.442 32.3867 201.208 32.568C200.973 32.7387 200.685 32.8827 200.344 33C200.013 33.1067 199.618 33.16 199.16 33.16ZM199.704 31.64C200.077 31.64 200.413 31.56 200.712 31.4C201.021 31.24 201.261 30.9947 201.432 30.664C201.613 30.3227 201.704 29.896 201.704 29.384V29.048L200.104 29.304C199.474 29.4 199.005 29.5547 198.696 29.768C198.386 29.9813 198.232 30.2427 198.232 30.552C198.232 30.7867 198.301 30.9893 198.44 31.16C198.589 31.32 198.776 31.4427 199 31.528C199.224 31.6027 199.458 31.64 199.704 31.64ZM209.484 33.16C208.716 33.16 208.039 33.016 207.452 32.728C206.876 32.44 206.423 32.024 206.092 31.48C205.772 30.9253 205.596 30.2587 205.564 29.48C205.553 29.32 205.548 29.112 205.548 28.856C205.548 28.5893 205.553 28.3707 205.564 28.2C205.596 27.4213 205.772 26.76 206.092 26.216C206.423 25.6613 206.876 25.24 207.452 24.952C208.039 24.664 208.716 24.52 209.484 24.52C210.167 24.52 210.748 24.616 211.228 24.808C211.708 25 212.103 25.24 212.412 25.528C212.721 25.816 212.951 26.12 213.1 26.44C213.26 26.7493 213.345 27.032 213.356 27.288C213.367 27.4053 213.329 27.5013 213.244 27.576C213.169 27.64 213.079 27.672 212.972 27.672H211.564C211.457 27.672 211.372 27.6453 211.308 27.592C211.255 27.5387 211.201 27.4587 211.148 27.352C210.988 26.9253 210.775 26.6267 210.508 26.456C210.252 26.2747 209.921 26.184 209.516 26.184C208.983 26.184 208.556 26.3547 208.236 26.696C207.927 27.0267 207.761 27.5547 207.74 28.28C207.719 28.6853 207.719 29.0587 207.74 29.4C207.761 30.136 207.927 30.6693 208.236 31C208.556 31.3307 208.983 31.496 209.516 31.496C209.932 31.496 210.268 31.4107 210.524 31.24C210.78 31.0587 210.988 30.7547 211.148 30.328C211.201 30.2213 211.255 30.1413 211.308 30.088C211.372 30.0347 211.457 30.008 211.564 30.008H212.972C213.079 30.008 213.169 30.0453 213.244 30.12C213.329 30.184 213.367 30.2747 213.356 30.392C213.345 30.584 213.292 30.8027 213.196 31.048C213.111 31.2827 212.967 31.528 212.764 31.784C212.572 32.0293 212.327 32.2587 212.028 32.472C211.729 32.6747 211.367 32.84 210.94 32.968C210.524 33.096 210.039 33.16 209.484 33.16ZM218.609 33.16C217.425 33.16 216.486 32.8187 215.793 32.136C215.099 31.4533 214.726 30.4827 214.673 29.224C214.662 29.1173 214.657 28.984 214.657 28.824C214.657 28.6533 214.662 28.52 214.673 28.424C214.715 27.624 214.897 26.9307 215.217 26.344C215.547 25.7573 216.001 25.3093 216.577 25C217.153 24.68 217.83 24.52 218.609 24.52C219.473 24.52 220.198 24.7013 220.785 25.064C221.371 25.416 221.814 25.912 222.113 26.552C222.411 27.1813 222.561 27.912 222.561 28.744V29.08C222.561 29.1867 222.523 29.2773 222.449 29.352C222.374 29.4267 222.278 29.464 222.161 29.464H216.849C216.849 29.464 216.849 29.48 216.849 29.512C216.849 29.544 216.849 29.5707 216.849 29.592C216.859 29.9653 216.929 30.312 217.057 30.632C217.195 30.9413 217.393 31.192 217.649 31.384C217.915 31.576 218.23 31.672 218.593 31.672C218.891 31.672 219.142 31.6293 219.345 31.544C219.547 31.448 219.713 31.3413 219.841 31.224C219.969 31.1067 220.059 31.0107 220.113 30.936C220.209 30.808 220.283 30.7333 220.337 30.712C220.401 30.68 220.491 30.664 220.609 30.664H221.985C222.091 30.664 222.177 30.696 222.241 30.76C222.315 30.824 222.347 30.904 222.337 31C222.326 31.1707 222.235 31.3787 222.065 31.624C221.905 31.8693 221.67 32.1093 221.361 32.344C221.051 32.5787 220.662 32.776 220.193 32.936C219.734 33.0853 219.206 33.16 218.609 33.16ZM216.849 28.12H220.385V28.072C220.385 27.656 220.315 27.2933 220.177 26.984C220.038 26.6747 219.835 26.4293 219.569 26.248C219.302 26.0667 218.982 25.976 218.609 25.976C218.235 25.976 217.915 26.0667 217.649 26.248C217.382 26.4293 217.179 26.6747 217.041 26.984C216.913 27.2933 216.849 27.656 216.849 28.072V28.12ZM228.867 33.16C228.248 33.16 227.731 33.0533 227.315 32.84C226.91 32.6267 226.574 32.3547 226.307 32.024V32.616C226.307 32.7227 226.27 32.8133 226.195 32.888C226.131 32.9627 226.04 33 225.923 33H224.659C224.552 33 224.462 32.9627 224.387 32.888C224.312 32.8133 224.275 32.7227 224.275 32.616V22.024C224.275 21.9173 224.312 21.8267 224.387 21.752C224.462 21.6773 224.552 21.64 224.659 21.64H226.019C226.136 21.64 226.227 21.6773 226.291 21.752C226.366 21.8267 226.403 21.9173 226.403 22.024V25.576C226.67 25.2667 227 25.016 227.395 24.824C227.8 24.6213 228.291 24.52 228.867 24.52C229.432 24.52 229.923 24.616 230.339 24.808C230.755 25 231.102 25.272 231.379 25.624C231.667 25.9653 231.886 26.3653 232.035 26.824C232.184 27.2827 232.264 27.7787 232.275 28.312C232.286 28.504 232.291 28.68 232.291 28.84C232.291 28.9893 232.286 29.16 232.275 29.352C232.254 29.9067 232.168 30.4187 232.019 30.888C231.87 31.3467 231.656 31.7467 231.379 32.088C231.102 32.4293 230.755 32.696 230.339 32.888C229.923 33.0693 229.432 33.16 228.867 33.16ZM228.275 31.448C228.734 31.448 229.091 31.352 229.347 31.16C229.603 30.9573 229.784 30.696 229.891 30.376C230.008 30.056 230.078 29.704 230.099 29.32C230.12 29 230.12 28.68 230.099 28.36C230.078 27.976 230.008 27.624 229.891 27.304C229.784 26.984 229.603 26.728 229.347 26.536C229.091 26.3333 228.734 26.232 228.275 26.232C227.848 26.232 227.502 26.328 227.235 26.52C226.968 26.712 226.766 26.9573 226.627 27.256C226.488 27.544 226.414 27.848 226.403 28.168C226.392 28.36 226.387 28.568 226.387 28.792C226.387 29.0053 226.392 29.208 226.403 29.4C226.424 29.7307 226.494 30.056 226.611 30.376C226.739 30.6853 226.936 30.9413 227.203 31.144C227.48 31.3467 227.838 31.448 228.275 31.448ZM237.752 33.16C236.898 33.16 236.178 33.0107 235.592 32.712C235.016 32.4133 234.573 31.992 234.264 31.448C233.965 30.904 233.794 30.2693 233.752 29.544C233.741 29.352 233.736 29.1173 233.736 28.84C233.736 28.5627 233.741 28.328 233.752 28.136C233.794 27.4 233.97 26.7653 234.28 26.232C234.6 25.688 235.048 25.2667 235.624 24.968C236.21 24.6693 236.92 24.52 237.752 24.52C238.584 24.52 239.288 24.6693 239.864 24.968C240.45 25.2667 240.898 25.688 241.208 26.232C241.528 26.7653 241.709 27.4 241.752 28.136C241.762 28.328 241.768 28.5627 241.768 28.84C241.768 29.1173 241.762 29.352 241.752 29.544C241.709 30.2693 241.533 30.904 241.224 31.448C240.925 31.992 240.482 32.4133 239.896 32.712C239.32 33.0107 238.605 33.16 237.752 33.16ZM237.752 31.576C238.317 31.576 238.754 31.4 239.064 31.048C239.373 30.6853 239.544 30.1573 239.576 29.464C239.586 29.304 239.592 29.096 239.592 28.84C239.592 28.584 239.586 28.376 239.576 28.216C239.544 27.5333 239.373 27.0107 239.064 26.648C238.754 26.2853 238.317 26.104 237.752 26.104C237.186 26.104 236.749 26.2853 236.44 26.648C236.13 27.0107 235.96 27.5333 235.928 28.216C235.917 28.376 235.912 28.584 235.912 28.84C235.912 29.096 235.917 29.304 235.928 29.464C235.96 30.1573 236.13 30.6853 236.44 31.048C236.749 31.4 237.186 31.576 237.752 31.576ZM247.22 33.16C246.367 33.16 245.647 33.0107 245.06 32.712C244.484 32.4133 244.042 31.992 243.732 31.448C243.434 30.904 243.263 30.2693 243.22 29.544C243.21 29.352 243.204 29.1173 243.204 28.84C243.204 28.5627 243.21 28.328 243.22 28.136C243.263 27.4 243.439 26.7653 243.748 26.232C244.068 25.688 244.516 25.2667 245.092 24.968C245.679 24.6693 246.388 24.52 247.22 24.52C248.052 24.52 248.756 24.6693 249.332 24.968C249.919 25.2667 250.367 25.688 250.676 26.232C250.996 26.7653 251.178 27.4 251.22 28.136C251.231 28.328 251.236 28.5627 251.236 28.84C251.236 29.1173 251.231 29.352 251.22 29.544C251.178 30.2693 251.002 30.904 250.692 31.448C250.394 31.992 249.951 32.4133 249.364 32.712C248.788 33.0107 248.074 33.16 247.22 33.16ZM247.22 31.576C247.786 31.576 248.223 31.4 248.532 31.048C248.842 30.6853 249.012 30.1573 249.044 29.464C249.055 29.304 249.06 29.096 249.06 28.84C249.06 28.584 249.055 28.376 249.044 28.216C249.012 27.5333 248.842 27.0107 248.532 26.648C248.223 26.2853 247.786 26.104 247.22 26.104C246.655 26.104 246.218 26.2853 245.908 26.648C245.599 27.0107 245.428 27.5333 245.396 28.216C245.386 28.376 245.38 28.584 245.38 28.84C245.38 29.096 245.386 29.304 245.396 29.464C245.428 30.1573 245.599 30.6853 245.908 31.048C246.218 31.4 246.655 31.576 247.22 31.576ZM253.409 33C253.302 33 253.212 32.9627 253.137 32.888C253.062 32.8133 253.025 32.7227 253.025 32.616V22.024C253.025 21.9173 253.062 21.8267 253.137 21.752C253.212 21.6773 253.302 21.64 253.409 21.64H254.705C254.822 21.64 254.913 21.6773 254.977 21.752C255.052 21.8267 255.089 21.9173 255.089 22.024V27.496L257.777 24.952C257.873 24.8667 257.958 24.8027 258.033 24.76C258.108 24.7067 258.22 24.68 258.369 24.68H259.857C259.964 24.68 260.049 24.712 260.113 24.776C260.177 24.84 260.209 24.9253 260.209 25.032C260.209 25.0747 260.198 25.1227 260.177 25.176C260.156 25.2293 260.113 25.2773 260.049 25.32L256.753 28.408L260.449 32.376C260.556 32.4827 260.609 32.5733 260.609 32.648C260.609 32.7547 260.572 32.84 260.497 32.904C260.433 32.968 260.353 33 260.257 33H258.737C258.577 33 258.46 32.9787 258.385 32.936C258.321 32.8827 258.241 32.8133 258.145 32.728L255.089 29.512V32.616C255.089 32.7227 255.052 32.8133 254.977 32.888C254.913 32.9627 254.822 33 254.705 33H253.409Z" fill="white"/>
<defs>
<clipPath id="clip0_360_11575">
<rect width="20" height="20" fill="white" transform="translate(66 18)"/>
</clipPath>
</defs>
</svg>
