<svg width="327" height="56" viewBox="0 0 327 56" fill="none" xmlns="http://www.w3.org/2000/svg">
<rect x="1" y="1" width="325" height="54" rx="19" fill="white"/>
<path d="M94.6711 26.3679H93.9998V26.3333H86.4998V29.6666H91.2094C90.5223 31.607 88.6761 33 86.4998 33C83.7386 33 81.4998 30.7612 81.4998 28C81.4998 25.2387 83.7386 23 86.4998 23C87.7744 23 88.934 23.4808 89.8169 24.2662L92.174 21.9091C90.6857 20.522 88.6948 19.6666 86.4998 19.6666C81.8978 19.6666 78.1665 23.3979 78.1665 28C78.1665 32.602 81.8978 36.3333 86.4998 36.3333C91.1019 36.3333 94.8332 32.602 94.8332 28C94.8332 27.4412 94.7757 26.8958 94.6711 26.3679Z" fill="#FFC107"/>
<path d="M79.1274 24.1212L81.8654 26.1291C82.6062 24.295 84.4004 23 86.4999 23C87.7745 23 88.9341 23.4808 89.817 24.2662L92.1741 21.9091C90.6858 20.522 88.6949 19.6666 86.4999 19.6666C83.2991 19.6666 80.5233 21.4737 79.1274 24.1212Z" fill="#FF3D00"/>
<path d="M86.4998 36.3334C88.6523 36.3334 90.6081 35.5096 92.0869 34.17L89.5077 31.9875C88.6429 32.6452 87.5862 33.0009 86.4998 33C84.3323 33 82.4919 31.618 81.7986 29.6892L79.0811 31.783C80.4602 34.4817 83.2611 36.3334 86.4998 36.3334Z" fill="#4CAF50"/>
<path d="M94.6713 26.368H94V26.3334H86.5V29.6667H91.2096C90.8809 30.5902 90.2889 31.3972 89.5067 31.988L89.5079 31.9871L92.0871 34.1696C91.9046 34.3355 94.8333 32.1667 94.8333 28C94.8333 27.4413 94.7758 26.8959 94.6713 26.368Z" fill="#1976D2"/>
<path d="M114.28 33C114.174 33 114.083 32.9627 114.008 32.888C113.934 32.8133 113.896 32.7227 113.896 32.616V22.184C113.896 22.0773 113.934 21.9867 114.008 21.912C114.083 21.8373 114.174 21.8 114.28 21.8H115.768C115.875 21.8 115.966 21.8373 116.04 21.912C116.115 21.9867 116.152 22.0773 116.152 22.184V31.096H121.224C121.342 31.096 121.438 31.1333 121.512 31.208C121.587 31.2827 121.624 31.3787 121.624 31.496V32.616C121.624 32.7227 121.587 32.8133 121.512 32.888C121.438 32.9627 121.342 33 121.224 33H114.28ZM126.541 33.16C125.687 33.16 124.967 33.0107 124.381 32.712C123.805 32.4133 123.362 31.992 123.053 31.448C122.754 30.904 122.583 30.2693 122.541 29.544C122.53 29.352 122.525 29.1173 122.525 28.84C122.525 28.5627 122.53 28.328 122.541 28.136C122.583 27.4 122.759 26.7653 123.069 26.232C123.389 25.688 123.837 25.2667 124.413 24.968C124.999 24.6693 125.709 24.52 126.541 24.52C127.373 24.52 128.077 24.6693 128.653 24.968C129.239 25.2667 129.687 25.688 129.997 26.232C130.317 26.7653 130.498 27.4 130.541 28.136C130.551 28.328 130.557 28.5627 130.557 28.84C130.557 29.1173 130.551 29.352 130.541 29.544C130.498 30.2693 130.322 30.904 130.013 31.448C129.714 31.992 129.271 32.4133 128.685 32.712C128.109 33.0107 127.394 33.16 126.541 33.16ZM126.541 31.576C127.106 31.576 127.543 31.4 127.853 31.048C128.162 30.6853 128.333 30.1573 128.365 29.464C128.375 29.304 128.381 29.096 128.381 28.84C128.381 28.584 128.375 28.376 128.365 28.216C128.333 27.5333 128.162 27.0107 127.853 26.648C127.543 26.2853 127.106 26.104 126.541 26.104C125.975 26.104 125.538 26.2853 125.229 26.648C124.919 27.0107 124.749 27.5333 124.717 28.216C124.706 28.376 124.701 28.584 124.701 28.84C124.701 29.096 124.706 29.304 124.717 29.464C124.749 30.1573 124.919 30.6853 125.229 31.048C125.538 31.4 125.975 31.576 126.541 31.576ZM136.089 36.52C135.311 36.52 134.671 36.4187 134.169 36.216C133.668 36.0133 133.273 35.768 132.985 35.48C132.697 35.192 132.489 34.904 132.361 34.616C132.244 34.3387 132.18 34.12 132.169 33.96C132.159 33.8533 132.191 33.7573 132.265 33.672C132.351 33.5973 132.447 33.56 132.553 33.56H133.945C134.052 33.56 134.137 33.5813 134.201 33.624C134.265 33.6773 134.319 33.768 134.361 33.896C134.425 34.0347 134.511 34.184 134.617 34.344C134.724 34.504 134.884 34.6373 135.097 34.744C135.321 34.8613 135.625 34.92 136.009 34.92C136.415 34.92 136.756 34.8613 137.033 34.744C137.311 34.6267 137.519 34.4293 137.657 34.152C137.807 33.8747 137.881 33.4907 137.881 33V31.912C137.625 32.2213 137.295 32.472 136.889 32.664C136.495 32.856 136.004 32.952 135.417 32.952C134.841 32.952 134.345 32.8613 133.929 32.68C133.513 32.488 133.167 32.2267 132.889 31.896C132.612 31.5547 132.399 31.1547 132.249 30.696C132.111 30.2373 132.031 29.7307 132.009 29.176C131.999 28.888 131.999 28.6 132.009 28.312C132.031 27.7787 132.111 27.2827 132.249 26.824C132.388 26.3653 132.596 25.9653 132.873 25.624C133.161 25.272 133.513 25 133.929 24.808C134.345 24.616 134.841 24.52 135.417 24.52C136.025 24.52 136.537 24.6373 136.953 24.872C137.369 25.096 137.711 25.3787 137.977 25.72V25.08C137.977 24.9627 138.015 24.8667 138.089 24.792C138.164 24.7173 138.255 24.68 138.361 24.68H139.657C139.764 24.68 139.855 24.7173 139.929 24.792C140.004 24.8667 140.041 24.9627 140.041 25.08L140.057 32.792C140.057 33.56 139.913 34.2213 139.625 34.776C139.337 35.3307 138.9 35.7573 138.313 36.056C137.737 36.3653 136.996 36.52 136.089 36.52ZM136.009 31.256C136.447 31.256 136.799 31.16 137.065 30.968C137.332 30.776 137.529 30.5253 137.657 30.216C137.785 29.9067 137.86 29.592 137.881 29.272C137.892 29.1333 137.897 28.9573 137.897 28.744C137.897 28.5307 137.892 28.36 137.881 28.232C137.86 27.9013 137.785 27.5867 137.657 27.288C137.529 26.9787 137.332 26.728 137.065 26.536C136.799 26.3333 136.447 26.232 136.009 26.232C135.572 26.232 135.22 26.3333 134.953 26.536C134.687 26.728 134.495 26.984 134.377 27.304C134.271 27.624 134.207 27.976 134.185 28.36C134.164 28.616 134.164 28.8773 134.185 29.144C134.207 29.5173 134.271 29.8693 134.377 30.2C134.495 30.52 134.687 30.776 134.953 30.968C135.22 31.16 135.572 31.256 136.009 31.256ZM142.573 33C142.466 33 142.375 32.9627 142.301 32.888C142.226 32.8133 142.189 32.7227 142.189 32.616V25.064C142.189 24.9573 142.226 24.8667 142.301 24.792C142.375 24.7173 142.466 24.68 142.573 24.68H143.901C144.018 24.68 144.109 24.7173 144.173 24.792C144.247 24.8667 144.285 24.9573 144.285 25.064V32.616C144.285 32.7227 144.247 32.8133 144.173 32.888C144.109 32.9627 144.018 33 143.901 33H142.573ZM142.509 23.304C142.391 23.304 142.295 23.272 142.221 23.208C142.157 23.1333 142.125 23.0373 142.125 22.92V21.768C142.125 21.6613 142.157 21.5707 142.221 21.496C142.295 21.4213 142.391 21.384 142.509 21.384H143.965C144.082 21.384 144.178 21.4213 144.253 21.496C144.327 21.5707 144.365 21.6613 144.365 21.768V22.92C144.365 23.0373 144.327 23.1333 144.253 23.208C144.178 23.272 144.082 23.304 143.965 23.304H142.509ZM147.12 33C147.013 33 146.922 32.9627 146.848 32.888C146.773 32.8133 146.736 32.7227 146.736 32.616V25.064C146.736 24.9573 146.773 24.8667 146.848 24.792C146.922 24.7173 147.013 24.68 147.12 24.68H148.432C148.538 24.68 148.629 24.7173 148.704 24.792C148.778 24.8667 148.816 24.9573 148.816 25.064V25.72C149.093 25.3787 149.445 25.096 149.872 24.872C150.309 24.6373 150.848 24.52 151.488 24.52C152.138 24.52 152.704 24.6693 153.184 24.968C153.664 25.256 154.032 25.6667 154.288 26.2C154.554 26.7333 154.688 27.3733 154.688 28.12V32.616C154.688 32.7227 154.65 32.8133 154.576 32.888C154.501 32.9627 154.41 33 154.304 33H152.896C152.789 33 152.698 32.9627 152.624 32.888C152.549 32.8133 152.512 32.7227 152.512 32.616V28.216C152.512 27.5973 152.357 27.112 152.048 26.76C151.749 26.408 151.312 26.232 150.736 26.232C150.181 26.232 149.738 26.408 149.408 26.76C149.077 27.112 148.912 27.5973 148.912 28.216V32.616C148.912 32.7227 148.874 32.8133 148.8 32.888C148.725 32.9627 148.634 33 148.528 33H147.12ZM162.289 33C162.14 33 162.028 32.9627 161.953 32.888C161.878 32.8133 161.814 32.7173 161.761 32.6L159.473 25.176C159.462 25.1227 159.457 25.0747 159.457 25.032C159.457 24.936 159.489 24.856 159.553 24.792C159.628 24.7173 159.708 24.68 159.793 24.68H160.977C161.105 24.68 161.206 24.7173 161.281 24.792C161.356 24.856 161.398 24.92 161.409 24.984L162.977 30.28L164.641 25.032C164.662 24.9573 164.71 24.8827 164.785 24.808C164.86 24.7227 164.972 24.68 165.121 24.68H165.921C166.07 24.68 166.182 24.7227 166.257 24.808C166.332 24.8827 166.38 24.9573 166.401 25.032L168.065 30.28L169.633 24.984C169.644 24.92 169.681 24.856 169.745 24.792C169.82 24.7173 169.921 24.68 170.049 24.68H171.233C171.329 24.68 171.409 24.7173 171.473 24.792C171.548 24.856 171.585 24.936 171.585 25.032C171.585 25.0747 171.574 25.1227 171.553 25.176L169.265 32.6C169.233 32.7173 169.174 32.8133 169.089 32.888C169.014 32.9627 168.902 33 168.753 33H167.713C167.564 33 167.446 32.9627 167.361 32.888C167.276 32.8133 167.217 32.7173 167.185 32.6L165.521 27.544L163.857 32.6C163.814 32.7173 163.75 32.8133 163.665 32.888C163.59 32.9627 163.473 33 163.313 33H162.289ZM173.526 33C173.419 33 173.329 32.9627 173.254 32.888C173.179 32.8133 173.142 32.7227 173.142 32.616V25.064C173.142 24.9573 173.179 24.8667 173.254 24.792C173.329 24.7173 173.419 24.68 173.526 24.68H174.854C174.971 24.68 175.062 24.7173 175.126 24.792C175.201 24.8667 175.238 24.9573 175.238 25.064V32.616C175.238 32.7227 175.201 32.8133 175.126 32.888C175.062 32.9627 174.971 33 174.854 33H173.526ZM173.462 23.304C173.345 23.304 173.249 23.272 173.174 23.208C173.11 23.1333 173.078 23.0373 173.078 22.92V21.768C173.078 21.6613 173.11 21.5707 173.174 21.496C173.249 21.4213 173.345 21.384 173.462 21.384H174.918C175.035 21.384 175.131 21.4213 175.206 21.496C175.281 21.5707 175.318 21.6613 175.318 21.768V22.92C175.318 23.0373 175.281 23.1333 175.206 23.208C175.131 23.272 175.035 23.304 174.918 23.304H173.462ZM181.121 33C180.481 33 179.942 32.888 179.505 32.664C179.067 32.44 178.742 32.1093 178.529 31.672C178.315 31.224 178.209 30.6693 178.209 30.008V26.376H176.945C176.838 26.376 176.747 26.3387 176.673 26.264C176.598 26.1893 176.561 26.0987 176.561 25.992V25.064C176.561 24.9573 176.598 24.8667 176.673 24.792C176.747 24.7173 176.838 24.68 176.945 24.68H178.209V22.024C178.209 21.9173 178.241 21.8267 178.305 21.752C178.379 21.6773 178.475 21.64 178.593 21.64H179.889C179.995 21.64 180.086 21.6773 180.161 21.752C180.235 21.8267 180.273 21.9173 180.273 22.024V24.68H182.273C182.379 24.68 182.47 24.7173 182.545 24.792C182.619 24.8667 182.657 24.9573 182.657 25.064V25.992C182.657 26.0987 182.619 26.1893 182.545 26.264C182.47 26.3387 182.379 26.376 182.273 26.376H180.273V29.848C180.273 30.2853 180.347 30.6267 180.497 30.872C180.657 31.1173 180.929 31.24 181.313 31.24H182.417C182.523 31.24 182.614 31.2773 182.689 31.352C182.763 31.4267 182.801 31.5173 182.801 31.624V32.616C182.801 32.7227 182.763 32.8133 182.689 32.888C182.614 32.9627 182.523 33 182.417 33H181.121ZM184.62 33C184.513 33 184.423 32.9627 184.348 32.888C184.273 32.8133 184.236 32.7227 184.236 32.616V22.024C184.236 21.9173 184.273 21.8267 184.348 21.752C184.423 21.6773 184.513 21.64 184.62 21.64H186.044C186.161 21.64 186.252 21.6773 186.316 21.752C186.391 21.8267 186.428 21.9173 186.428 22.024V25.672C186.716 25.3307 187.068 25.0533 187.484 24.84C187.9 24.6267 188.412 24.52 189.02 24.52C189.671 24.52 190.236 24.6693 190.716 24.968C191.207 25.256 191.585 25.6667 191.852 26.2C192.119 26.7333 192.252 27.3733 192.252 28.12V32.616C192.252 32.7227 192.215 32.8133 192.14 32.888C192.065 32.9627 191.975 33 191.868 33H190.428C190.321 33 190.231 32.9627 190.156 32.888C190.081 32.8133 190.044 32.7227 190.044 32.616V28.216C190.044 27.5973 189.889 27.112 189.58 26.76C189.281 26.408 188.844 26.232 188.268 26.232C187.713 26.232 187.265 26.408 186.924 26.76C186.593 27.112 186.428 27.5973 186.428 28.216V32.616C186.428 32.7227 186.391 32.8133 186.316 32.888C186.252 32.9627 186.161 33 186.044 33H184.62ZM202.483 33.16C201.501 33.16 200.664 32.9893 199.971 32.648C199.288 32.3067 198.755 31.816 198.371 31.176C197.997 30.5253 197.795 29.752 197.763 28.856C197.752 28.3973 197.747 27.9067 197.747 27.384C197.747 26.8507 197.752 26.3493 197.763 25.88C197.795 24.9947 197.997 24.2373 198.371 23.608C198.755 22.9787 199.293 22.4933 199.987 22.152C200.691 21.8107 201.523 21.64 202.483 21.64C203.261 21.64 203.944 21.7467 204.531 21.96C205.117 22.1627 205.603 22.4293 205.987 22.76C206.381 23.08 206.675 23.4267 206.867 23.8C207.069 24.1733 207.176 24.52 207.187 24.84C207.197 24.936 207.171 25.016 207.107 25.08C207.043 25.144 206.957 25.176 206.851 25.176H205.203C205.096 25.176 205.016 25.1547 204.963 25.112C204.909 25.0693 204.861 25.0053 204.819 24.92C204.733 24.696 204.6 24.4773 204.419 24.264C204.237 24.04 203.992 23.8533 203.683 23.704C203.373 23.5547 202.973 23.48 202.483 23.48C201.757 23.48 201.176 23.672 200.739 24.056C200.312 24.44 200.083 25.0747 200.051 25.96C200.019 26.888 200.019 27.8267 200.051 28.776C200.083 29.6827 200.317 30.3333 200.755 30.728C201.203 31.1227 201.789 31.32 202.515 31.32C202.995 31.32 203.421 31.2347 203.795 31.064C204.179 30.8933 204.477 30.6267 204.691 30.264C204.915 29.9013 205.027 29.4373 205.027 28.872V28.376H203.075C202.968 28.376 202.877 28.3387 202.803 28.264C202.728 28.1893 202.691 28.0933 202.691 27.976V27.128C202.691 27.0107 202.728 26.9147 202.803 26.84C202.877 26.7653 202.968 26.728 203.075 26.728H206.899C207.016 26.728 207.107 26.7653 207.171 26.84C207.245 26.9147 207.283 27.0107 207.283 27.128V28.808C207.283 29.704 207.085 30.4773 206.691 31.128C206.307 31.7787 205.752 32.28 205.027 32.632C204.312 32.984 203.464 33.16 202.483 33.16ZM212.822 33.16C211.969 33.16 211.249 33.0107 210.662 32.712C210.086 32.4133 209.643 31.992 209.334 31.448C209.035 30.904 208.865 30.2693 208.822 29.544C208.811 29.352 208.806 29.1173 208.806 28.84C208.806 28.5627 208.811 28.328 208.822 28.136C208.865 27.4 209.041 26.7653 209.35 26.232C209.67 25.688 210.118 25.2667 210.694 24.968C211.281 24.6693 211.99 24.52 212.822 24.52C213.654 24.52 214.358 24.6693 214.934 24.968C215.521 25.2667 215.969 25.688 216.278 26.232C216.598 26.7653 216.779 27.4 216.822 28.136C216.833 28.328 216.838 28.5627 216.838 28.84C216.838 29.1173 216.833 29.352 216.822 29.544C216.779 30.2693 216.603 30.904 216.294 31.448C215.995 31.992 215.553 32.4133 214.966 32.712C214.39 33.0107 213.675 33.16 212.822 33.16ZM212.822 31.576C213.387 31.576 213.825 31.4 214.134 31.048C214.443 30.6853 214.614 30.1573 214.646 29.464C214.657 29.304 214.662 29.096 214.662 28.84C214.662 28.584 214.657 28.376 214.646 28.216C214.614 27.5333 214.443 27.0107 214.134 26.648C213.825 26.2853 213.387 26.104 212.822 26.104C212.257 26.104 211.819 26.2853 211.51 26.648C211.201 27.0107 211.03 27.5333 210.998 28.216C210.987 28.376 210.982 28.584 210.982 28.84C210.982 29.096 210.987 29.304 210.998 29.464C211.03 30.1573 211.201 30.6853 211.51 31.048C211.819 31.4 212.257 31.576 212.822 31.576ZM222.291 33.16C221.437 33.16 220.717 33.0107 220.131 32.712C219.555 32.4133 219.112 31.992 218.803 31.448C218.504 30.904 218.333 30.2693 218.291 29.544C218.28 29.352 218.275 29.1173 218.275 28.84C218.275 28.5627 218.28 28.328 218.291 28.136C218.333 27.4 218.509 26.7653 218.819 26.232C219.139 25.688 219.587 25.2667 220.163 24.968C220.749 24.6693 221.459 24.52 222.291 24.52C223.123 24.52 223.827 24.6693 224.403 24.968C224.989 25.2667 225.437 25.688 225.747 26.232C226.067 26.7653 226.248 27.4 226.291 28.136C226.301 28.328 226.307 28.5627 226.307 28.84C226.307 29.1173 226.301 29.352 226.291 29.544C226.248 30.2693 226.072 30.904 225.763 31.448C225.464 31.992 225.021 32.4133 224.435 32.712C223.859 33.0107 223.144 33.16 222.291 33.16ZM222.291 31.576C222.856 31.576 223.293 31.4 223.603 31.048C223.912 30.6853 224.083 30.1573 224.115 29.464C224.125 29.304 224.131 29.096 224.131 28.84C224.131 28.584 224.125 28.376 224.115 28.216C224.083 27.5333 223.912 27.0107 223.603 26.648C223.293 26.2853 222.856 26.104 222.291 26.104C221.725 26.104 221.288 26.2853 220.979 26.648C220.669 27.0107 220.499 27.5333 220.467 28.216C220.456 28.376 220.451 28.584 220.451 28.84C220.451 29.096 220.456 29.304 220.467 29.464C220.499 30.1573 220.669 30.6853 220.979 31.048C221.288 31.4 221.725 31.576 222.291 31.576ZM231.839 36.52C231.061 36.52 230.421 36.4187 229.919 36.216C229.418 36.0133 229.023 35.768 228.735 35.48C228.447 35.192 228.239 34.904 228.111 34.616C227.994 34.3387 227.93 34.12 227.919 33.96C227.909 33.8533 227.941 33.7573 228.015 33.672C228.101 33.5973 228.197 33.56 228.303 33.56H229.695C229.802 33.56 229.887 33.5813 229.951 33.624C230.015 33.6773 230.069 33.768 230.111 33.896C230.175 34.0347 230.261 34.184 230.367 34.344C230.474 34.504 230.634 34.6373 230.847 34.744C231.071 34.8613 231.375 34.92 231.759 34.92C232.165 34.92 232.506 34.8613 232.783 34.744C233.061 34.6267 233.269 34.4293 233.407 34.152C233.557 33.8747 233.631 33.4907 233.631 33V31.912C233.375 32.2213 233.045 32.472 232.639 32.664C232.245 32.856 231.754 32.952 231.167 32.952C230.591 32.952 230.095 32.8613 229.679 32.68C229.263 32.488 228.917 32.2267 228.639 31.896C228.362 31.5547 228.149 31.1547 227.999 30.696C227.861 30.2373 227.781 29.7307 227.759 29.176C227.749 28.888 227.749 28.6 227.759 28.312C227.781 27.7787 227.861 27.2827 227.999 26.824C228.138 26.3653 228.346 25.9653 228.623 25.624C228.911 25.272 229.263 25 229.679 24.808C230.095 24.616 230.591 24.52 231.167 24.52C231.775 24.52 232.287 24.6373 232.703 24.872C233.119 25.096 233.461 25.3787 233.727 25.72V25.08C233.727 24.9627 233.765 24.8667 233.839 24.792C233.914 24.7173 234.005 24.68 234.111 24.68H235.407C235.514 24.68 235.605 24.7173 235.679 24.792C235.754 24.8667 235.791 24.9627 235.791 25.08L235.807 32.792C235.807 33.56 235.663 34.2213 235.375 34.776C235.087 35.3307 234.65 35.7573 234.063 36.056C233.487 36.3653 232.746 36.52 231.839 36.52ZM231.759 31.256C232.197 31.256 232.549 31.16 232.815 30.968C233.082 30.776 233.279 30.5253 233.407 30.216C233.535 29.9067 233.61 29.592 233.631 29.272C233.642 29.1333 233.647 28.9573 233.647 28.744C233.647 28.5307 233.642 28.36 233.631 28.232C233.61 27.9013 233.535 27.5867 233.407 27.288C233.279 26.9787 233.082 26.728 232.815 26.536C232.549 26.3333 232.197 26.232 231.759 26.232C231.322 26.232 230.97 26.3333 230.703 26.536C230.437 26.728 230.245 26.984 230.127 27.304C230.021 27.624 229.957 27.976 229.935 28.36C229.914 28.616 229.914 28.8773 229.935 29.144C229.957 29.5173 230.021 29.8693 230.127 30.2C230.245 30.52 230.437 30.776 230.703 30.968C230.97 31.16 231.322 31.256 231.759 31.256ZM238.339 33C238.232 33 238.141 32.9627 238.067 32.888C237.992 32.8133 237.955 32.7227 237.955 32.616V22.024C237.955 21.9173 237.992 21.8267 238.067 21.752C238.141 21.6773 238.232 21.64 238.339 21.64H239.667C239.773 21.64 239.864 21.6773 239.939 21.752C240.013 21.8267 240.051 21.9173 240.051 22.024V32.616C240.051 32.7227 240.013 32.8133 239.939 32.888C239.864 32.9627 239.773 33 239.667 33H238.339ZM245.757 33.16C244.573 33.16 243.635 32.8187 242.941 32.136C242.248 31.4533 241.875 30.4827 241.821 29.224C241.811 29.1173 241.805 28.984 241.805 28.824C241.805 28.6533 241.811 28.52 241.821 28.424C241.864 27.624 242.045 26.9307 242.365 26.344C242.696 25.7573 243.149 25.3093 243.725 25C244.301 24.68 244.979 24.52 245.757 24.52C246.621 24.52 247.347 24.7013 247.933 25.064C248.52 25.416 248.963 25.912 249.261 26.552C249.56 27.1813 249.709 27.912 249.709 28.744V29.08C249.709 29.1867 249.672 29.2773 249.597 29.352C249.523 29.4267 249.427 29.464 249.309 29.464H243.997C243.997 29.464 243.997 29.48 243.997 29.512C243.997 29.544 243.997 29.5707 243.997 29.592C244.008 29.9653 244.077 30.312 244.205 30.632C244.344 30.9413 244.541 31.192 244.797 31.384C245.064 31.576 245.379 31.672 245.741 31.672C246.04 31.672 246.291 31.6293 246.493 31.544C246.696 31.448 246.861 31.3413 246.989 31.224C247.117 31.1067 247.208 31.0107 247.261 30.936C247.357 30.808 247.432 30.7333 247.485 30.712C247.549 30.68 247.64 30.664 247.757 30.664H249.133C249.24 30.664 249.325 30.696 249.389 30.76C249.464 30.824 249.496 30.904 249.485 31C249.475 31.1707 249.384 31.3787 249.213 31.624C249.053 31.8693 248.819 32.1093 248.509 32.344C248.2 32.5787 247.811 32.776 247.341 32.936C246.883 33.0853 246.355 33.16 245.757 33.16ZM243.997 28.12H247.533V28.072C247.533 27.656 247.464 27.2933 247.325 26.984C247.187 26.6747 246.984 26.4293 246.717 26.248C246.451 26.0667 246.131 25.976 245.757 25.976C245.384 25.976 245.064 26.0667 244.797 26.248C244.531 26.4293 244.328 26.6747 244.189 26.984C244.061 27.2933 243.997 27.656 243.997 28.072V28.12Z" fill="#0C092A"/>
<rect x="1" y="1" width="325" height="54" rx="19" stroke="#E6E6E6" stroke-width="2"/>
</svg>
