<svg xmlns="http://www.w3.org/2000/svg" width="16" height="16" fill="none" viewBox="0 0 16 16">
  <path stroke="#0C092A" stroke-linecap="round" stroke-linejoin="round" stroke-width="2" d="M8 15c3.889 0 7-3.111 7-7s-3.111-7-7-7a6.97 6.97 0 0 0-7 7c0 3.889 3.111 7 7 7ZM1.467 5.667h13.067M1.467 10.333h13.067"/>
  <path stroke="#0C092A" stroke-linecap="round" stroke-linejoin="round" stroke-width="2" d="M7.611 1A13.099 13.099 0 0 0 5.59 8c0 2.489.7 4.9 2.022 7m.777-14a13.099 13.099 0 0 1 2.022 7c0 2.489-.7 4.9-2.022 7"/>
</svg>
