<svg width="318" height="264" viewBox="0 0 318 264" fill="none" xmlns="http://www.w3.org/2000/svg">
<path d="M154.572 139.674C154.49 140.548 154.229 141.395 153.806 142.162C153.382 142.93 152.806 143.6 152.112 144.132C150.848 145.106 149.264 145.561 147.679 145.407C146.435 145.287 145.255 144.799 144.286 144.003C143.318 143.207 142.606 142.139 142.239 140.936C141.873 139.732 141.869 138.446 142.229 137.24C142.588 136.034 143.294 134.962 144.258 134.161C145.221 133.359 146.399 132.863 147.642 132.736C148.886 132.609 150.139 132.856 151.243 133.446C152.347 134.036 153.252 134.943 153.845 136.051C154.437 137.16 154.69 138.42 154.572 139.674Z" fill="#7C72E5"/>
<path d="M159.522 243.798L73.4628 179.046" stroke="#C4D0FB" stroke-width="4"/>
<path fill-rule="evenodd" clip-rule="evenodd" d="M140.453 69.9247L232.351 125.567L140.453 69.9247Z" fill="#C4D0FB"/>
<path d="M140.453 69.9247L232.351 125.567" stroke="#C4D0FB" stroke-width="4"/>
<path d="M161.817 239.721L256.127 177.711" stroke="#C4D0FB" stroke-width="4"/>
<path d="M88.3541 92.6969L57.5791 150.706" stroke="#C4D0FB" stroke-width="4"/>
<path fill-rule="evenodd" clip-rule="evenodd" d="M303.796 69.9247L286.35 113.418L303.796 69.9247Z" fill="#C4D0FB"/>
<path d="M303.796 69.9247L286.35 113.418" stroke="#C4D0FB" stroke-width="4"/>
<path fill-rule="evenodd" clip-rule="evenodd" d="M235.942 25.0885L302.835 65.7425L235.942 25.0885Z" fill="#70D6F5"/>
<path d="M235.942 25.0885L302.835 65.7425" stroke="#C4D0FB" stroke-width="4"/>
<path d="M24.1206 23.0074L88.103 45.0208" stroke="#C4D0FB" stroke-width="4"/>
<path d="M310.785 150.913C310.131 157.745 308 164.351 304.543 170.266C301.087 176.18 296.388 181.262 290.776 185.154C285.164 189.045 278.774 191.653 272.055 192.794C265.338 193.934 258.454 193.58 251.885 191.757C245.318 189.933 239.225 186.684 234.034 182.237C228.845 177.79 224.683 172.253 221.841 166.015C219.002 159.776 217.548 152.986 217.588 146.123C217.627 139.259 219.155 132.487 222.068 126.281C230.251 108.89 248.602 97.6655 268.719 99.5998C294.405 102.068 313.24 125.043 310.785 150.913Z" fill="#C4D0FB"/>
<path d="M38.8201 24.5489C38.5615 27.2776 37.4361 29.8495 35.6109 31.8822C33.7857 33.9151 31.3581 35.3003 28.6889 35.8319C26.0198 36.3636 23.2518 36.0135 20.796 34.8334C18.3403 33.6536 16.3278 31.7068 15.058 29.2825C14.7843 28.7623 14.5474 28.2233 14.3491 27.6696C13.705 25.874 13.4699 23.9553 13.6613 22.0557C13.8527 20.1562 14.4655 18.3243 15.4546 16.6955C16.4437 15.0669 17.7836 13.6831 19.3753 12.6466C20.9667 11.6101 22.7693 10.9475 24.6495 10.7077C26.5297 10.468 28.4394 10.6572 30.237 11.2615C32.0349 11.8657 33.6746 12.8695 35.0353 14.1985C36.396 15.5275 37.4426 17.1478 38.0978 18.9395C38.7529 20.7311 38.9997 22.6482 38.8201 24.5489Z" fill="#C4D0FB"/>
<path d="M172.678 242.952C172.449 245.386 171.542 247.708 170.064 249.646C168.585 251.586 166.592 253.065 164.316 253.914C162.039 254.764 159.572 254.949 157.195 254.448C154.819 253.948 152.63 252.783 150.883 251.086C149.459 249.705 148.368 248.013 147.694 246.14C147.037 244.307 146.795 242.348 146.992 240.408C147.187 238.469 147.813 236.599 148.822 234.936C149.831 233.273 151.2 231.86 152.825 230.802C154.449 229.744 156.289 229.067 158.209 228.822C160.129 228.577 162.079 228.77 163.914 229.387C165.75 230.004 167.423 231.028 168.812 232.385C170.201 233.742 171.271 235.396 171.94 237.225C172.61 239.055 172.861 241.011 172.678 242.952Z" fill="#C4D0FB"/>
<path d="M317.364 67.3655C317.106 70.0943 315.979 72.6664 314.156 74.6995C312.331 76.7324 309.903 78.118 307.234 78.6499C304.564 79.182 301.796 78.8318 299.34 77.652C296.884 76.4721 294.872 74.5253 293.602 72.101C293.328 71.5804 293.092 71.0414 292.891 70.4881C292.245 68.6921 292.011 66.7729 292.202 64.8727C292.393 62.9725 293.005 61.1398 293.994 59.5104C294.982 57.881 296.323 56.4965 297.914 55.4595C299.507 54.4223 301.309 53.7593 303.19 53.5194C305.072 53.2794 306.982 53.4686 308.78 54.0731C310.578 54.6774 312.218 55.6817 313.579 57.0113C314.94 58.3409 315.987 59.9617 316.643 61.754C317.297 63.5465 317.543 65.4641 317.364 67.3655Z" fill="#C4D0FB"/>
<path d="M244.934 23.6224C244.77 25.3706 244.248 27.0657 243.4 28.6002C242.553 30.135 241.399 31.4757 240.011 32.5381C239.556 32.8884 239.079 33.2066 238.581 33.4903C236.212 34.8465 233.471 35.3943 230.767 35.0517C228.064 34.7092 225.541 33.4947 223.58 31.5898C222.186 30.2365 221.117 28.5792 220.457 26.7451C219.813 24.9495 219.579 23.0309 219.77 21.1314C219.961 19.2319 220.573 17.4 221.562 15.7713C222.55 14.1425 223.891 12.7587 225.482 11.7222C227.073 10.6856 228.877 10.0229 230.756 9.78295C232.636 9.54303 234.546 9.7321 236.344 10.3362C238.142 10.9402 239.78 11.9438 241.143 13.2727C242.504 14.6016 243.549 16.2217 244.205 18.0132C244.861 19.8047 245.107 21.7217 244.928 23.6224H244.934Z" fill="#C4D0FB"/>
<path d="M218.917 122.401L220.12 120.197C220.626 119.096 221.075 117.971 221.467 116.824C222.073 115.025 221.861 112.459 224.517 110.037C227.174 107.615 223.245 108.283 221.918 109.4C220.811 110.331 219.911 112.971 218.81 113.566C218.558 113.208 218.36 112.815 218.22 112.4L215.813 101.04C215.778 100.858 215.68 100.695 215.536 100.58C215.39 100.466 215.209 100.408 215.026 100.417L214.585 100.431C214.478 100.437 214.374 100.465 214.277 100.514C214.183 100.563 214.098 100.631 214.031 100.714C213.962 100.798 213.913 100.895 213.886 100.999C213.856 101.103 213.85 101.211 213.866 101.318C214.236 103.748 215.522 110.979 215.392 110.983L215.126 111.11L211.436 99.6037C211.385 99.422 211.269 99.2659 211.111 99.1647C210.952 99.0637 210.762 99.025 210.577 99.0562L209.987 99.1554C209.884 99.1716 209.786 99.2087 209.699 99.2647C209.611 99.3204 209.536 99.3936 209.477 99.4799C209.42 99.566 209.378 99.6634 209.358 99.766C209.339 99.8684 209.341 99.9739 209.362 100.076C209.93 102.722 212.582 111.529 212.448 111.537L212.123 111.648L208.12 102.125C208.065 101.936 207.939 101.775 207.767 101.676C207.598 101.577 207.397 101.547 207.206 101.594L206.736 101.711C206.637 101.735 206.545 101.778 206.464 101.838C206.383 101.898 206.314 101.974 206.261 102.061C206.21 102.148 206.174 102.245 206.159 102.345C206.143 102.446 206.149 102.548 206.172 102.647L209.774 112.015L209.443 112.225L205.67 105.458C205.597 105.284 205.463 105.143 205.294 105.061C205.127 104.979 204.934 104.962 204.753 105.014L204.528 105.081C204.335 105.138 204.174 105.268 204.075 105.444C203.977 105.619 203.949 105.827 204 106.022C204.363 107.41 206.166 110.325 207.216 113.362C208.037 115.715 208.094 117.6 209.449 120.449C210.02 121.657 211.107 123.091 211.7 123.891" fill="#FFCCD7"/>
<path d="M287.334 187.379C278.577 192.382 268.45 194.4 258.46 193.134C248.473 191.868 239.157 187.385 231.902 180.352L232.465 165.805L214.388 162.797C211.72 162.059 209.4 160.386 207.847 158.08C206.293 155.774 205.606 152.986 205.909 150.215L207.388 121.659L221.67 122.651L222.064 126.285L224.272 145.466C224.272 145.466 239.214 147.348 259.604 152.608C279.454 157.728 285.3 175.486 287.334 187.379Z" fill="#9087E5"/>
<path d="M232.268 165.619L232.436 160.662" stroke="#C4D0FB" stroke-linecap="square"/>
<path d="M271.782 134.801C277.256 127.77 276.476 117.946 270.039 112.86C263.604 107.773 253.947 109.35 248.473 116.381C242.998 123.412 243.778 133.236 250.215 138.322C256.653 143.409 266.307 141.832 271.782 134.801Z" fill="#001833"/>
<path d="M250.201 158.293C249.126 157.509 248.334 156.394 247.947 155.116C247.557 153.838 247.592 152.467 248.045 151.211L255.154 131.547C255.396 130.749 255.798 130.009 256.333 129.373C256.867 128.736 257.527 128.216 258.267 127.844C259.009 127.472 259.817 127.255 260.644 127.208C261.471 127.161 262.298 127.283 263.076 127.568C263.856 127.853 264.566 128.295 265.171 128.866C265.773 129.438 266.256 130.127 266.587 130.892C266.918 131.656 267.091 132.481 267.095 133.315C267.099 134.15 266.935 134.976 266.612 135.744L259.502 155.411C259.177 156.302 258.653 157.106 257.97 157.76C257.286 158.413 256.461 158.898 255.561 159.176C254.659 159.455 253.706 159.52 252.777 159.366C251.847 159.211 250.965 158.842 250.201 158.287V158.293Z" fill="#FFCCD7"/>
<path d="M251.408 147.328L250.227 146.886C248.852 146.372 247.608 145.56 246.582 144.506C245.554 143.452 244.772 142.184 244.286 140.79C243.801 139.397 243.628 137.913 243.778 136.444C243.927 134.976 244.396 133.558 245.15 132.292L248.892 126.023C250.099 123.999 251.975 122.467 254.193 121.698C256.408 120.929 258.822 120.971 261.012 121.817C263.481 122.772 265.472 124.676 266.549 127.111C267.624 129.545 267.697 132.31 266.75 134.798L264.19 141.51C263.249 143.98 261.38 145.976 258.986 147.066C256.593 148.155 253.87 148.25 251.408 147.328Z" fill="#FFCCD7"/>
<path d="M252.352 129.58L247.23 133.77L249.241 135.291" stroke="#0C092A" stroke-linecap="square"/>
<path d="M253.653 132.54C254.25 132.54 254.734 132.052 254.734 131.451C254.734 130.85 254.25 130.362 253.653 130.362C253.057 130.362 252.572 130.85 252.572 131.451C252.572 132.052 253.057 132.54 253.653 132.54Z" fill="#0C092A"/>
<path d="M249.158 130.249C249.754 130.249 250.239 129.761 250.239 129.16C250.239 128.558 249.754 128.071 249.158 128.071C248.561 128.071 248.077 128.558 248.077 129.16C248.077 129.761 248.561 130.249 249.158 130.249Z" fill="#0C092A"/>
<path d="M281.93 164.027C281.93 164.027 276.945 176.603 267.233 171.016C251.154 161.765 254.457 149.6 258.99 144.035C260.795 141.819 263.322 140.837 265.958 140.032C258.292 133.221 262.061 127.797 262.061 127.797C262.061 127.797 241.558 126.47 248.189 116.671C254.819 106.873 266.661 108.156 272.939 112.412C287.531 122.307 282.565 132.394 285.894 136.107C304.773 157.182 281.93 164.027 281.93 164.027Z" fill="#001833"/>
<path d="M268.113 140.894C270.234 139.596 270.907 136.812 269.617 134.677C268.329 132.541 265.567 131.863 263.446 133.161L259.957 135.299C257.838 136.597 257.164 139.381 258.452 141.516C259.742 143.652 262.505 144.33 264.624 143.032L268.113 140.894Z" fill="#FFCCD7"/>
<path fill-rule="evenodd" clip-rule="evenodd" d="M267.16 136.377L262.209 139.406L267.16 136.377Z" fill="#0C092A"/>
<path d="M267.16 136.377L262.209 139.406" stroke="#0C092A" stroke-linecap="square"/>
<path d="M252.223 138.361C252.275 139.054 252.052 139.74 251.603 140.267C251.152 140.794 250.514 141.12 249.825 141.173C249.138 141.225 248.456 141.001 247.935 140.547C247.411 140.095 247.086 139.451 247.035 138.758C246.924 137.314 248.376 137.328 249.807 137.216C251.239 137.105 252.113 136.917 252.223 138.361Z" fill="#0C092A"/>
<path d="M161.502 54.7603C160.809 62.0224 158.546 69.0438 154.874 75.332C151.201 81.6199 146.208 87.0221 140.243 91.1594C134.279 95.2969 127.488 98.0693 120.347 99.2824C113.206 100.495 105.888 100.119 98.9071 98.1808C91.9257 96.2423 85.45 92.7883 79.9341 88.0611C74.4183 83.3337 69.996 77.4478 66.9776 70.816C63.959 64.1845 62.4173 56.9676 62.4609 49.6719C62.5044 42.3762 64.1318 35.1786 67.2291 28.5839C75.9261 10.0986 95.4252 -1.82585 116.806 0.229721C144.096 2.85241 164.107 27.2684 161.502 54.7603Z" fill="#9087E5"/>
<path d="M143.918 88.383L142.194 89.7723C140.408 91.1446 138.533 92.3942 136.581 93.5124C130.8 96.8136 124.42 98.9119 117.818 99.6833C111.217 100.455 104.53 99.883 98.1522 98.0024C91.7743 96.1218 85.8362 92.9708 80.6894 88.7355C75.5428 84.5004 71.2923 79.2674 68.1899 73.3468C76.0708 67.5111 89.2648 60.539 106.142 61.9621C134.371 64.355 143.918 88.383 143.918 88.383Z" fill="#C4D0FB"/>
<path d="M110.283 73.8169C109.965 73.8178 109.648 73.7988 109.333 73.76C107.239 73.5087 105.33 72.4299 104.025 70.7606C102.721 69.0914 102.128 66.9686 102.377 64.8589L106.144 32.9375C106.393 30.8275 107.465 28.9039 109.122 27.5899C109.943 26.9392 110.883 26.4579 111.888 26.1731C112.894 25.8885 113.945 25.806 114.982 25.9306C116.019 26.0552 117.021 26.3843 117.932 26.8994C118.843 27.4142 119.644 28.1049 120.29 28.9316C120.935 29.7584 121.413 30.7055 121.696 31.7183C121.979 32.7311 122.06 33.7903 121.937 34.8349L118.17 66.7563C117.939 68.7012 117.009 70.4932 115.556 71.7943C114.103 73.0953 112.227 73.8148 110.283 73.8169Z" fill="#FFCCD7"/>
<path d="M116.939 57.5095L118.626 57.6992C120.587 57.9221 122.573 57.7066 124.443 57.0682C126.312 56.4298 128.019 55.3843 129.441 54.0057C130.864 52.6273 131.967 50.95 132.673 49.0928C133.379 47.2359 133.67 45.245 133.526 43.2618L132.81 33.4372C132.578 30.2642 131.245 27.2747 129.043 24.9938C126.842 22.7128 123.913 21.2862 120.771 20.9646C117.227 20.6024 113.685 21.6734 110.924 23.9422C108.164 26.2109 106.411 29.4913 106.052 33.0619L105.081 42.6946C104.723 46.2397 105.768 49.7835 107.988 52.5571C110.209 55.3308 113.425 57.1102 116.939 57.5095Z" fill="#FFCCD7"/>
<path d="M109.127 47.067L109.128 47.0657C111.452 45.626 112.176 42.5614 110.747 40.2208L109.279 37.8165C107.85 35.4761 104.808 34.746 102.485 36.1857L102.483 36.1868C100.16 37.6267 99.4351 40.6913 100.864 43.0317L102.333 45.4362C103.762 47.7766 106.803 48.5067 109.127 47.067Z" fill="#FFCCD7"/>
<path d="M103.041 40.074L107 44.2898" stroke="#001833" stroke-linecap="square"/>
<path d="M126.582 34.6853L126.861 42.5808L124.073 42.6946" stroke="#001833" stroke-linecap="square"/>
<path d="M118.279 45.1466C118.048 45.5756 117.904 46.0464 117.854 46.5317C117.804 47.017 117.85 47.5074 117.988 47.975C118.126 48.4427 118.355 48.8782 118.66 49.2569C118.965 49.6357 119.342 49.9501 119.768 50.1822C120.194 50.4143 120.661 50.5598 121.142 50.61C121.624 50.6601 122.111 50.6144 122.575 50.475C123.039 50.3359 123.472 50.1057 123.847 49.7981C124.223 49.4905 124.535 49.1114 124.766 48.6822C125.735 46.8754 123.849 46.051 122.045 45.0749C120.242 44.0988 119.248 43.3419 118.279 45.1466Z" fill="#001833"/>
<path d="M110.164 43.7192L113.93 29.4652L114.824 26.0919C115.663 26.9985 116.646 27.7587 117.733 28.3415C121.675 30.4793 133.561 29.6275 135.208 21.2302C136.552 14.3826 129.334 18.3187 125.639 17.8907C119.832 17.2161 115.803 13.7733 107.851 18.1016C98.3402 23.2858 102.846 35.9945 102.846 35.9945C102.846 35.9945 107.031 34.3437 110.164 43.7192Z" fill="#001833"/>
<path opacity="0.4" d="M119.047 57.7413L114.01 57.2797L118.609 61.8012L119.047 57.7413Z" fill="black"/>
<path d="M121.215 38.9499C121.979 38.9499 122.598 38.3262 122.598 37.5565C122.598 36.7869 121.979 36.1632 121.215 36.1632C120.451 36.1632 119.832 36.7869 119.832 37.5565C119.832 38.3262 120.451 38.9499 121.215 38.9499Z" fill="#001833"/>
<path d="M129.466 38.9499C130.23 38.9499 130.849 38.3262 130.849 37.5565C130.849 36.7869 130.23 36.1632 129.466 36.1632C128.702 36.1632 128.083 36.7869 128.083 37.5565C128.083 38.3262 128.702 38.9499 129.466 38.9499Z" fill="#001833"/>
<path d="M99.0459 201.466C97.8696 214.031 92.01 225.678 82.648 234.063C81.7075 234.906 80.7374 235.711 79.7371 236.479C77.9517 237.851 76.0767 239.101 74.1246 240.219C65.3719 245.237 55.3057 247.44 45.2755 246.531L44.9218 246.499C37.2675 245.764 29.8874 243.247 23.3636 239.147C16.8398 235.048 11.3508 229.476 7.32957 222.874C6.77146 221.955 6.2393 221.017 5.73288 220.059C2.13709 213.183 0.178381 205.559 0.0115978 197.789C-0.154977 190.019 1.47477 182.316 4.77236 175.29C13.4694 156.809 32.9707 144.88 54.3492 146.935C81.6456 149.558 101.651 173.974 99.0459 201.466Z" fill="#C4D0FB"/>
<path d="M90.4849 225.14C88.2331 228.417 85.6024 231.412 82.648 234.063C81.7076 234.906 80.7374 235.711 79.7371 236.479C77.9517 237.851 76.0767 239.101 74.1247 240.219C71.2142 241.887 68.1433 243.253 64.9589 244.296L45.2755 246.531L44.9218 246.499C37.2676 245.764 29.8874 243.247 23.3636 239.147C16.8398 235.047 11.3508 229.477 7.32959 222.874C14.7689 209.13 28.0593 194.977 51.656 191.56C74.1519 188.302 86.5152 214.709 90.4849 225.14Z" fill="#9087E5"/>
<path d="M54.6652 203.383L54.4141 203.4C52.0184 203.51 49.6774 202.658 47.9057 201.03C46.1339 199.401 45.0765 197.131 44.9658 194.718L43.5009 162.705C43.4459 161.51 43.625 160.316 44.0283 159.191C44.4315 158.066 45.0507 157.031 45.8505 156.147C47.4661 154.361 49.7196 153.295 52.1153 153.183C54.511 153.072 56.8526 153.923 58.6251 155.551C60.3976 157.178 61.4556 159.449 61.5667 161.862L63.0316 193.872C63.1414 196.243 62.3286 198.564 60.7661 200.34C59.2035 202.116 57.0146 203.208 54.6652 203.383Z" fill="#FFCCD7"/>
<path d="M60.0163 186.642L61.6549 186.221C63.5585 185.721 65.3297 184.806 66.8425 183.539C68.3553 182.272 69.5726 180.685 70.4075 178.89C71.2427 177.096 71.6751 175.138 71.674 173.156C71.6732 171.174 71.2387 169.217 70.4021 167.423L66.2524 158.537C64.9114 155.668 62.6108 153.367 59.7537 152.037C56.8968 150.707 53.6662 150.433 50.6287 151.263C47.2016 152.201 44.2845 154.471 42.5185 157.575C40.7527 160.679 40.2825 164.362 41.2118 167.815L43.723 177.13C44.6494 180.557 46.8797 183.477 49.93 185.258C52.9802 187.039 56.6045 187.537 60.0163 186.642Z" fill="#FFCCD7"/>
<path d="M42.1438 180.65C44.3041 182.314 47.3945 181.899 49.0464 179.723C50.6986 177.547 50.2867 174.433 48.1267 172.769L45.9093 171.06C43.7493 169.396 40.6589 169.811 39.0068 171.987C37.3546 174.163 37.7664 177.277 39.9265 178.941L42.1438 180.65Z" fill="#FFCCD7"/>
<path d="M72.9003 176.671C74.1768 182.015 73.3188 189.854 66.8944 191.492C60.47 193.13 52.495 187.954 51.1557 182.62C49.8164 177.286 51.2833 174.307 57.7119 172.667C64.1405 171.027 71.2325 169.699 72.9003 176.671Z" fill="#001833"/>
<path fill-rule="evenodd" clip-rule="evenodd" d="M40.8999 175.416L45.1208 177.925L40.8999 175.416Z" fill="#001833"/>
<path d="M40.8999 175.416L45.1208 177.925" stroke="#001833" stroke-linecap="square"/>
<path d="M56.9523 177.495C56.8468 178.459 57.121 179.426 57.7157 180.188C58.3102 180.951 59.1783 181.448 60.1329 181.573C61.0876 181.698 62.0527 181.441 62.8213 180.857C63.5898 180.273 64.1002 179.409 64.2431 178.45C64.5047 176.422 62.456 176.342 60.4428 176.068C58.4297 175.794 57.2139 175.467 56.9523 177.495Z" fill="white"/>
<path opacity="0.4" d="M62.3416 192.198L57.313 192.573L62.5697 196.262L62.3416 192.198Z" fill="black"/>
<path d="M56.333 169.471C57.0935 169.471 57.71 168.85 57.71 168.084C57.71 167.318 57.0935 166.697 56.333 166.697C55.5725 166.697 54.9561 167.318 54.9561 168.084C54.9561 168.85 55.5725 169.471 56.333 169.471Z" fill="#001833"/>
<path d="M65.9653 166.73C66.7258 166.73 67.3423 166.109 67.3423 165.343C67.3423 164.577 66.7258 163.956 65.9653 163.956C65.2049 163.956 64.5884 164.577 64.5884 165.343C64.5884 166.109 65.2049 166.73 65.9653 166.73Z" fill="#001833"/>
<path d="M41.3184 245.452L46.8262 249.173C46.8262 249.173 46.5814 262.409 52.3591 261.702C52.3591 261.702 52.3822 263.794 53.5561 263.994C54.7301 264.194 57.9298 259.257 57.9298 259.257C57.9298 259.257 62.3243 257.587 63.1928 253.311C64.0612 249.036 64.2202 238.937 62.8642 238.176C61.5082 237.415 48.1299 237.082 48.1299 237.082C48.1299 237.082 42.576 237.761 41.3184 245.452Z" fill="#FFCCD7"/>
<path d="M50.6096 235.391L28.4004 227.131" stroke="#CCE3FF" stroke-linecap="square"/>
<path d="M32.8096 228.366L45.2713 213.085" stroke="#CCE3FF" stroke-linecap="square"/>
<path d="M41.2847 246.025C41.2847 246.025 40.7051 237.99 51.0134 235.515" stroke="#CCE3FF" stroke-linecap="square"/>
<path d="M62.0542 163.214L65.1095 170.46L62.5564 171.569" stroke="#001833" stroke-linecap="square"/>
</svg>
