<svg xmlns="http://www.w3.org/2000/svg" width="76" height="66" fill="none" viewBox="0 0 76 66">
  <path fill="#C4D0FB" d="M75.049 36.44a32.47 32.47 0 0 1-40.954 28.188 32.486 32.486 0 0 1-20.89-17.766 32.487 32.487 0 0 1 .158-27.422C19.053 7.438 31.813-.31 45.8 1.026c17.86 1.703 30.956 17.56 29.249 35.414Z"/>
  <path fill="#FFCCD7" d="m11.17 16.762.837-1.522c.352-.759.664-1.536.937-2.327.421-1.242.273-3.012 2.12-4.684 1.847-1.672-.884-1.21-1.807-.44-.77.642-1.395 2.465-2.16 2.876a3.132 3.132 0 0 1-.411-.806L9.013 2.02a.535.535 0 0 0-.548-.43l-.307.01a.54.54 0 0 0-.385.196.514.514 0 0 0-.1.196.52.52 0 0 0-.015.22C7.916 3.888 8.81 8.88 8.72 8.881l-.185.089-2.566-7.942A.532.532 0 0 0 5.372.65l-.41.069a.522.522 0 0 0-.355.224.542.542 0 0 0-.08.411c.394 1.827 2.239 7.904 2.146 7.91l-.226.077-2.784-6.573a.53.53 0 0 0-.635-.366l-.327.08a.529.529 0 0 0-.402.438.534.534 0 0 0 .01.209l2.504 6.465-.23.145-2.623-4.67a.535.535 0 0 0-.638-.307l-.156.047a.533.533 0 0 0-.367.649c.252.958 1.506 2.97 2.236 5.066.57 1.623.61 2.924 1.552 4.89.397.834 1.153 1.824 1.565 2.376"/>
  <path fill="#6A5AE0" d="M58.74 61.607a32.48 32.48 0 0 1-38.542-4.85l.392-10.04-12.57-2.075a8.086 8.086 0 0 1-5.895-8.684L3.153 16.25l9.93.685.275 2.508 1.535 13.237s10.389 1.3 24.567 4.93c13.801 3.533 17.867 15.789 19.28 23.997Z"/>
  <path stroke="#C4D0FB" stroke-linecap="square" d="m20.452 46.59.116-3.422"/>
  <path fill="#001833" d="M47.929 25.32c3.806-4.853 3.264-11.633-1.212-15.143-4.474-3.51-11.189-2.423-14.995 2.43-3.807 4.852-3.264 11.632 1.212 15.143 4.475 3.51 11.189 2.422 14.995-2.43Z"/>
  <path fill="#FFCCD7" d="M32.922 41.533a4.242 4.242 0 0 1-1.5-4.888l4.944-13.571a4.238 4.238 0 0 1 2.164-2.556 4.25 4.25 0 0 1 4.8.706 4.255 4.255 0 0 1 1.338 3.07 4.248 4.248 0 0 1-.335 1.677l-4.944 13.573a4.256 4.256 0 0 1-2.74 2.599 4.25 4.25 0 0 1-3.727-.614v.004Z"/>
  <path fill="#FFCCD7" d="m33.763 33.967-.821-.306a6.94 6.94 0 0 1-4.13-4.207 6.932 6.932 0 0 1 .6-5.865l2.601-4.326a6.932 6.932 0 0 1 12.278.75 6.94 6.94 0 0 1 .14 5.306l-1.78 4.632a6.932 6.932 0 0 1-8.888 4.016Z"/>
  <path stroke="#24272D" stroke-linecap="square" d="m34.418 21.716-3.561 2.892 1.398 1.05"/>
  <path fill="#24272D" d="M35.322 23.76a.752.752 0 1 0 0-1.504.752.752 0 0 0 0 1.504Zm-3.125-1.581a.752.752 0 1 0 0-1.504.752.752 0 0 0 0 1.504Z"/>
  <path fill="#001833" d="M54.985 45.49s-3.467 8.68-10.22 4.824c-11.18-6.384-8.883-14.78-5.731-18.62 1.255-1.53 3.012-2.208 4.845-2.764-5.33-4.7-2.71-8.444-2.71-8.444s-14.255-.916-9.645-7.678c4.61-6.762 12.844-5.877 17.21-2.94 10.145 6.83 6.692 13.79 9.007 16.354 13.127 14.545-2.756 19.268-2.756 19.268Z"/>
  <path fill="#FFCCD7" d="M45.376 29.526a3.122 3.122 0 1 0-3.245-5.338l-2.426 1.476A3.124 3.124 0 0 0 42.95 31l2.426-1.476Z"/>
  <path stroke="#24272D" stroke-linecap="square" d="m44.714 26.408-3.442 2.09"/>
  <path fill="#24272D" d="M34.33 27.776a1.812 1.812 0 0 1-2.982 1.51 1.806 1.806 0 0 1-.627-1.236c-.076-.996.933-.987 1.928-1.064.996-.076 1.603-.206 1.68.79Z"/>
</svg>
