<svg xmlns="http://www.w3.org/2000/svg" width="64" height="64" fill="none" viewBox="0 0 64 64">
  <path fill="#C4D0FB" d="M63.454 35.107A31.542 31.542 0 1 1 3.545 18.596C9.072 6.936 21.463-.586 35.05.71c17.342 1.654 30.06 17.055 28.404 34.396Z"/>
  <path fill="#6A5AE0" d="m52.278 56.315-1.096.876a31.784 31.784 0 0 1-3.567 2.36 31.556 31.556 0 0 1-35.518-3.014 31.553 31.553 0 0 1-7.943-9.706c5.008-3.681 13.393-8.079 24.118-7.181 17.94 1.509 24.006 16.665 24.006 16.665Z"/>
  <path fill="#FFCCD7" d="M30.906 47.127a5.052 5.052 0 0 1-5.024-5.65l2.393-20.135a5.054 5.054 0 0 1 10.036 1.197l-2.393 20.135a5.053 5.053 0 0 1-5.012 4.453Z"/>
  <path fill="#FFCCD7" d="m35.135 36.842 1.072.12a8.536 8.536 0 0 0 9.468-9.107l-.455-6.197a8.537 8.537 0 0 0-17.004-.237l-.617 6.076a8.535 8.535 0 0 0 7.536 9.345Z"/>
  <path fill="#FFCCD7" d="M30.17 30.254a3.138 3.138 0 0 0 1.03-4.318l-.934-1.517a3.138 3.138 0 0 0-4.317-1.028h-.002a3.139 3.139 0 0 0-1.028 4.318l.933 1.517a3.138 3.138 0 0 0 4.317 1.028Z"/>
  <path stroke="#001833" stroke-linecap="square" stroke-width=".5" d="m26.302 25.843 2.516 2.66m12.444-6.059.177 4.98-1.771.072"/>
  <path fill="#001833" d="M35.986 29.042a2.345 2.345 0 0 0 1.82 3.446 2.343 2.343 0 0 0 2.303-1.216c.615-1.14-.583-1.66-1.729-2.275-1.146-.616-1.778-1.093-2.394.045Zm-5.158-.9 2.394-8.991.568-2.128a7.079 7.079 0 0 0 1.849 1.42c2.505 1.348 10.058.81 11.105-4.486.853-4.32-3.733-1.837-6.081-2.107-3.69-.425-6.25-2.597-11.304.133-6.044 3.27-3.18 11.286-3.18 11.286s2.659-1.04 4.65 4.873Z"/>
  <path fill="#24272D" d="m36.474 36.988-3.201-.291 2.923 2.852.278-2.561Z" opacity=".4"/>
  <path fill="#001833" d="M37.852 25.134a.879.879 0 1 0 0-1.758.879.879 0 0 0 0 1.758Zm5.245 0a.879.879 0 1 0 0-1.757.879.879 0 0 0 0 1.757Z"/>
</svg>
