<svg width="28" height="28" viewBox="0 0 28 28" fill="none" xmlns="http://www.w3.org/2000/svg">
<path fill-rule="evenodd" clip-rule="evenodd" d="M5.53217 5.50006C5.82506 5.20716 6.29994 5.20716 6.59283 5.50006L22.5322 21.4394C22.8251 21.7323 22.8251 22.2072 22.5322 22.5001C22.2393 22.793 21.7644 22.793 21.4715 22.5001L5.53217 6.56072C5.23928 6.26782 5.23928 5.79295 5.53217 5.50006Z" fill="#26263A"/>
<path fill-rule="evenodd" clip-rule="evenodd" d="M5.46783 22.5001C5.17494 22.2072 5.17494 21.7323 5.46783 21.4394L21.4072 5.50006C21.7001 5.20716 22.1749 5.20716 22.4678 5.50006C22.7607 5.79295 22.7607 6.26782 22.4678 6.56072L6.52849 22.5001C6.2356 22.7929 5.76072 22.7929 5.46783 22.5001Z" fill="#26263A"/>
</svg>
