<svg width="25" height="24" viewBox="0 0 25 24" fill="none" xmlns="http://www.w3.org/2000/svg">
<g clip-path="url(#clip0_412_9401)">
<path d="M9.5 5H7.5C6.96957 5 6.46086 5.21071 6.08579 5.58579C5.71071 5.96086 5.5 6.46957 5.5 7V19C5.5 19.5304 5.71071 20.0391 6.08579 20.4142C6.46086 20.7893 6.96957 21 7.5 21H17.5C18.0304 21 18.5391 20.7893 18.9142 20.4142C19.2893 20.0391 19.5 19.5304 19.5 19V7C19.5 6.46957 19.2893 5.96086 18.9142 5.58579C18.5391 5.21071 18.0304 5 17.5 5H15.5" stroke="white" stroke-width="2" stroke-linecap="round" stroke-linejoin="round"/>
<path d="M13.5 3H11.5C10.3954 3 9.5 3.89543 9.5 5C9.5 6.10457 10.3954 7 11.5 7H13.5C14.6046 7 15.5 6.10457 15.5 5C15.5 3.89543 14.6046 3 13.5 3Z" stroke="white" stroke-width="2" stroke-linecap="round" stroke-linejoin="round"/>
</g>
<defs>
<clipPath id="clip0_412_9401">
<rect width="24" height="24" fill="white" transform="translate(0.5)"/>
</clipPath>
</defs>
</svg>
