<svg width="114" height="72" viewBox="0 0 114 72" fill="none" xmlns="http://www.w3.org/2000/svg">
<path d="M1.94062 42.8488C9.68862 33.6508 25.2363 23.3178 37.4438 35.2727C44.2032 41.8922 46.0528 58.4643 34.4027 61.8018C30.2373 62.9951 30.6876 59.0018 31.5238 56.9457C33.0423 53.212 36.5576 50.4868 40.6942 48.9789C51.1063 45.1835 57.874 54.3577 65.6303 58.6696C75.697 64.2658 91.4499 66.7249 102.879 64.6437C112.758 62.845 106.613 61.7077 100.549 58.4188C95.9367 55.9177 106.32 59.6444 107.776 60.4008C109.605 61.3513 111.599 61.0376 109.6 62.3588C106.213 64.5973 102.853 67.3566 99.8695 70.0126" stroke="white" stroke-linecap="round"/>
<path d="M5.99988 24.015C11.5036 19.3606 18.9852 16.0713 30.5891 16.2618C40.6705 16.4273 50.5617 18.1895 60.6267 18.6351C71.9991 19.1385 83.6069 18.2037 93.4505 16.102C96.806 15.3856 100.218 13.8919 103.656 13.4561" stroke="white" stroke-linecap="round"/>
<path d="M96.6597 11.8595C100.064 12.3031 103.973 12.5646 107.008 12.8656C108.586 13.022 108.534 12.803 107.785 13.043C105.357 13.8214 102.409 15.514 101.242 16.908" stroke="white" stroke-linecap="round"/>
</svg>
