<svg width="327" height="458" viewBox="0 0 327 458" fill="none" xmlns="http://www.w3.org/2000/svg">
<path d="M0 116H327V438C327 449.046 318.046 458 307 458H20C8.9543 458 0 449.046 0 438V116Z" fill="#EFEEFC"/>
<path d="M0 20C0 8.9543 8.9543 0 20 0H307C318.046 0 327 8.95431 327 20V116H0V20Z" fill="#9087E5"/>
<mask id="mask0_246_11501" style="mask-type:alpha" maskUnits="userSpaceOnUse" x="0" y="0" width="327" height="116">
<path d="M0 20C0 8.9543 8.9543 0 20 0H307C318.046 0 327 8.95431 327 20V116H0V20Z" fill="#9087E5"/>
</mask>
<g mask="url(#mask0_246_11501)">
<path opacity="0.1" fill-rule="evenodd" clip-rule="evenodd" d="M167.594 116.625C196.33 116.625 219.625 93.3298 219.625 64.5938C219.625 35.8577 196.33 12.5625 167.594 12.5625C138.858 12.5625 115.562 35.8577 115.562 64.5938C115.562 93.3298 138.858 116.625 167.594 116.625Z" fill="#C4D0FB"/>
<path opacity="0.3" fill-rule="evenodd" clip-rule="evenodd" d="M169 156C218.706 156 259 115.706 259 66C259 16.2944 218.706 -24 169 -24C119.294 -24 79 16.2944 79 66C79 115.706 119.294 156 169 156Z" stroke="#C4D0FB"/>
</g>
<circle cx="240" cy="40" r="32" fill="#FFD6DD"/>
<mask id="mask1_246_11501" style="mask-type:alpha" maskUnits="userSpaceOnUse" x="208" y="8" width="64" height="64">
<circle cx="240" cy="40" r="32" fill="#C4C4C4"/>
</mask>
<g mask="url(#mask1_246_11501)">
<path fill-rule="evenodd" clip-rule="evenodd" d="M241.143 24.5671C234.716 24.5671 229.507 29.7769 229.507 36.2035V37.3879C228.327 37.5857 227.429 38.6114 227.429 39.8469V42.6966C227.429 43.9572 228.364 44.9992 229.579 45.1666C230.033 49.2475 232.597 52.6912 236.156 54.3818V58.2071C227.355 58.6809 220.364 65.9677 220.364 74.8872H261.922C261.922 65.9677 254.931 58.6809 246.13 58.2071V54.3818C249.689 52.6912 252.253 49.2475 252.707 45.1666C253.922 44.9992 254.857 43.9572 254.857 42.6966V39.8469C254.857 38.6114 253.959 37.5857 252.779 37.3879V36.2035C252.779 29.7769 247.57 24.5671 241.143 24.5671Z" fill="#D0C6AC"/>
<mask id="mask2_246_11501" style="mask-type:alpha" maskUnits="userSpaceOnUse" x="220" y="24" width="42" height="51">
<path fill-rule="evenodd" clip-rule="evenodd" d="M241.143 24.5671C234.716 24.5671 229.507 29.7769 229.507 36.2035V37.3879C228.327 37.5857 227.429 38.6114 227.429 39.8469V42.6966C227.429 43.9572 228.364 44.9992 229.579 45.1666C230.033 49.2475 232.597 52.6912 236.156 54.3818V58.2071C227.355 58.6809 220.364 65.9677 220.364 74.8872H261.922C261.922 65.9677 254.931 58.6809 246.13 58.2071V54.3818C249.689 52.6912 252.253 49.2475 252.707 45.1666C253.922 44.9992 254.857 43.9572 254.857 42.6966V39.8469C254.857 38.6114 253.959 37.5857 252.779 37.3879V36.2035C252.779 29.7769 247.57 24.5671 241.143 24.5671Z" fill="white"/>
</mask>
<g mask="url(#mask2_246_11501)">
<rect x="213.714" y="24.5671" width="54.8571" height="50.3201" fill="#FFBF75"/>
<path fill-rule="evenodd" clip-rule="evenodd" d="M229.507 43.8653V45.5151C229.507 51.9417 234.717 57.1515 241.143 57.1515C247.57 57.1515 252.78 51.9417 252.78 45.5151V43.8653C252.78 50.2919 247.57 55.5016 241.143 55.5016C234.717 55.5016 229.507 50.2919 229.507 43.8653Z" fill="black" fill-opacity="0.1"/>
</g>
<path fill-rule="evenodd" clip-rule="evenodd" d="M236.156 55.2324C232.503 56.0937 229.897 57.8719 229.547 59.9677C224.099 62.7195 220.364 68.3671 220.364 74.8872H261.922C261.922 68.3671 258.187 62.7195 252.739 59.9677C252.389 57.8719 249.783 56.0937 246.13 55.2324V58.7638C246.13 61.5181 243.897 63.7508 241.143 63.7508C238.389 63.7508 236.156 61.5181 236.156 58.7638V55.2324Z" fill="#B7C1DB"/>
<mask id="mask3_246_11501" style="mask-type:alpha" maskUnits="userSpaceOnUse" x="220" y="55" width="42" height="20">
<path fill-rule="evenodd" clip-rule="evenodd" d="M236.156 55.2324C232.503 56.0937 229.897 57.8719 229.547 59.9677C224.099 62.7195 220.364 68.3671 220.364 74.8872H261.922C261.922 68.3671 258.187 62.7195 252.739 59.9677C252.389 57.8719 249.783 56.0937 246.13 55.2324V58.7638C246.13 61.5181 243.897 63.7508 241.143 63.7508C238.389 63.7508 236.156 61.5181 236.156 58.7638V55.2324Z" fill="white"/>
</mask>
<g mask="url(#mask3_246_11501)">
<rect x="213.714" y="52.202" width="54.8571" height="22.6853" fill="#FF6990"/>
<path fill-rule="evenodd" clip-rule="evenodd" d="M234.909 65.2638C234.396 65.0903 233.909 64.8959 233.455 64.6829V74.8872H234.909V65.2638ZM247.377 65.2638C247.89 65.0903 248.376 64.8959 248.831 64.6829V72.5101C248.831 72.9118 248.506 73.2374 248.104 73.2374C247.702 73.2374 247.377 72.9118 247.377 72.5101V65.2638Z" fill="#F4F4F4"/>
<path fill-rule="evenodd" clip-rule="evenodd" d="M241.143 66.2256C247.569 66.2256 252.779 63.4556 252.779 60.0387C252.779 58.0047 250.933 56.1999 248.083 55.0722C252.196 56.1082 254.961 58.0368 254.961 60.2449C254.961 63.548 248.774 66.2256 241.143 66.2256ZM234.203 55.0722C231.353 56.1999 229.507 58.0047 229.507 60.0387C229.507 63.4556 234.716 66.2256 241.143 66.2256C233.511 66.2256 227.325 63.548 227.325 60.2449C227.325 58.0368 230.09 56.1082 234.203 55.0722Z" fill="black" fill-opacity="0.16"/>
</g>
<path fill-rule="evenodd" clip-rule="evenodd" d="M238.233 47.8711C238.233 49.4657 239.536 50.7583 241.142 50.7583V50.7583C242.749 50.7583 244.052 49.4657 244.052 47.8711" fill="#0C092A"/>
<g opacity="0.3">
<path fill-rule="evenodd" clip-rule="evenodd" d="M238.649 43.9527C238.649 44.8639 239.766 45.6026 241.143 45.6026V45.6026C242.52 45.6026 243.636 44.8639 243.636 43.9527" fill="#0C092A"/>
</g>
<ellipse cx="235.74" cy="40.2406" rx="1.24675" ry="1.23738" fill="#0C092A"/>
<ellipse cx="246.545" cy="40.2406" rx="1.24675" ry="1.23738" fill="#0C092A"/>
<path d="M232.754 37.5923C233.568 36.4563 235.798 35.8192 237.719 36.2874C237.942 36.3418 238.167 36.2065 238.222 35.9853C238.277 35.764 238.14 35.5407 237.917 35.4863C235.686 34.9426 233.104 35.6803 232.077 37.1145C231.944 37.3002 231.988 37.5577 232.175 37.6896C232.362 37.8216 232.621 37.778 232.754 37.5923Z" fill="#0C092A"/>
<path d="M249.531 37.5923C248.718 36.4563 246.488 35.8192 244.567 36.2874C244.344 36.3418 244.119 36.2065 244.064 35.9853C244.009 35.764 244.145 35.5407 244.368 35.4863C246.599 34.9426 249.182 35.6803 250.209 37.1145C250.342 37.3002 250.298 37.5577 250.111 37.6896C249.924 37.8216 249.664 37.778 249.531 37.5923Z" fill="#0C092A"/>
<mask id="mask4_246_11501" style="mask-type:alpha" maskUnits="userSpaceOnUse" x="213" y="17" width="56" height="58">
<rect x="213.714" y="17.1429" width="54.8571" height="57.7444" fill="white"/>
</mask>
<g mask="url(#mask4_246_11501)">
<path fill-rule="evenodd" clip-rule="evenodd" d="M235.646 46.3612C235.984 46.16 236.312 45.9647 236.652 45.836C237.73 45.4271 239.731 45.5431 241.142 46.2826C242.554 45.5431 244.555 45.4271 245.633 45.836C245.973 45.9647 246.301 46.16 246.639 46.3612C247.496 46.8711 248.416 47.4182 249.737 47.0108C249.814 46.9872 249.889 47.0555 249.866 47.1305C249.58 48.0605 247.994 48.6975 247.455 48.7184C246.165 48.7682 245.013 48.252 243.896 47.7519C242.973 47.3383 242.074 46.9357 241.142 46.8733C240.211 46.9357 239.312 47.3383 238.389 47.7519C237.272 48.252 236.12 48.7682 234.83 48.7184C234.291 48.6975 232.705 48.0605 232.419 47.1305C232.396 47.0555 232.471 46.9872 232.548 47.0108C233.869 47.4182 234.789 46.8711 235.646 46.3612Z" fill="#28354B"/>
<mask id="mask5_246_11501" style="mask-type:alpha" maskUnits="userSpaceOnUse" x="232" y="45" width="18" height="4">
<path fill-rule="evenodd" clip-rule="evenodd" d="M235.646 46.3612C235.984 46.16 236.312 45.9647 236.652 45.836C237.73 45.4271 239.731 45.5431 241.142 46.2826C242.554 45.5431 244.555 45.4271 245.633 45.836C245.973 45.9647 246.301 46.16 246.639 46.3612C247.496 46.8711 248.416 47.4182 249.737 47.0108C249.814 46.9872 249.889 47.0555 249.866 47.1305C249.58 48.0605 247.994 48.6975 247.455 48.7184C246.165 48.7682 245.013 48.252 243.896 47.7519C242.973 47.3383 242.074 46.9357 241.142 46.8733C240.211 46.9357 239.312 47.3383 238.389 47.7519C237.272 48.252 236.12 48.7682 234.83 48.7184C234.291 48.6975 232.705 48.0605 232.419 47.1305C232.396 47.0555 232.471 46.9872 232.548 47.0108C233.869 47.4182 234.789 46.8711 235.646 46.3612Z" fill="white"/>
</mask>
<g mask="url(#mask5_246_11501)">
<rect x="223.688" y="31.9915" width="34.9091" height="31.347" fill="#0C092A"/>
</g>
<path fill-rule="evenodd" clip-rule="evenodd" d="M250.94 25.3757C250.366 24.7941 249.701 24.3005 249.053 23.8055C248.91 23.6964 248.765 23.5899 248.625 23.4766C248.593 23.4509 248.268 23.2196 248.229 23.1345C248.136 22.9298 248.19 23.0892 248.203 22.8449C248.219 22.5359 248.854 21.6633 248.38 21.4632C248.172 21.3752 247.8 21.6094 247.6 21.6868C247.209 21.8382 246.814 21.9673 246.409 22.0786C246.603 21.6957 246.972 20.9292 246.278 21.1343C245.738 21.2942 245.234 21.7051 244.691 21.8984C244.87 21.606 245.589 20.6999 244.94 20.6493C244.738 20.6335 244.15 21.0098 243.932 21.09C243.28 21.3305 242.614 21.4859 241.93 21.6083C239.603 22.0245 236.882 21.9058 234.729 22.9572C233.07 23.7678 231.431 25.0254 230.472 26.6269C229.548 28.1705 229.202 29.8599 229.009 31.6288C228.867 32.9269 228.855 34.2688 228.922 35.5716C228.944 35.9985 228.992 37.9661 229.617 37.3702C229.928 37.0733 229.926 35.8744 230.004 35.4686C230.16 34.6611 230.31 33.8501 230.571 33.0685C231.029 31.6912 231.57 30.224 232.712 29.2753C233.445 28.6667 233.959 27.8439 234.661 27.2299C234.976 26.954 234.735 26.9828 235.242 27.0189C235.582 27.0432 235.924 27.0525 236.265 27.0614C237.054 27.0817 237.844 27.0765 238.633 27.0793C240.222 27.085 241.803 27.1072 243.391 27.0247C244.096 26.988 244.803 26.9682 245.507 26.9034C245.9 26.8672 246.597 26.6172 246.921 26.8083C247.217 26.983 247.524 27.5537 247.737 27.7875C248.239 28.3399 248.838 28.7617 249.426 29.2147C250.65 30.1591 251.269 31.3453 251.641 32.8212C252.011 34.2916 251.907 35.6558 252.366 37.1028C252.447 37.3572 252.66 37.7958 252.923 37.4027C252.972 37.3297 252.96 36.9284 252.96 36.6975C252.96 35.7654 253.197 35.066 253.194 34.1278C253.183 31.2752 253.09 27.5556 250.94 25.3757Z" fill="#0C092A"/>
<mask id="mask6_246_11501" style="mask-type:alpha" maskUnits="userSpaceOnUse" x="228" y="20" width="26" height="18">
<path fill-rule="evenodd" clip-rule="evenodd" d="M250.94 25.3757C250.366 24.7941 249.701 24.3005 249.053 23.8055C248.91 23.6964 248.765 23.5899 248.625 23.4766C248.593 23.4509 248.268 23.2196 248.229 23.1345C248.136 22.9298 248.19 23.0892 248.203 22.8449C248.219 22.5359 248.854 21.6633 248.38 21.4632C248.172 21.3752 247.8 21.6094 247.6 21.6868C247.209 21.8382 246.814 21.9673 246.409 22.0786C246.603 21.6957 246.972 20.9292 246.278 21.1343C245.738 21.2942 245.234 21.7051 244.691 21.8984C244.87 21.606 245.589 20.6999 244.94 20.6493C244.738 20.6335 244.15 21.0098 243.932 21.09C243.28 21.3305 242.614 21.4859 241.93 21.6083C239.603 22.0245 236.882 21.9058 234.729 22.9572C233.07 23.7678 231.431 25.0254 230.472 26.6269C229.548 28.1705 229.202 29.8599 229.009 31.6288C228.867 32.9269 228.855 34.2688 228.922 35.5716C228.944 35.9985 228.992 37.9661 229.617 37.3702C229.928 37.0733 229.926 35.8744 230.004 35.4686C230.16 34.6611 230.31 33.8501 230.571 33.0685C231.029 31.6912 231.57 30.224 232.712 29.2753C233.445 28.6667 233.959 27.8439 234.661 27.2299C234.976 26.954 234.735 26.9828 235.242 27.0189C235.582 27.0432 235.924 27.0525 236.265 27.0614C237.054 27.0817 237.844 27.0765 238.633 27.0793C240.222 27.085 241.803 27.1072 243.391 27.0247C244.096 26.988 244.803 26.9682 245.507 26.9034C245.9 26.8672 246.597 26.6172 246.921 26.8083C247.217 26.983 247.524 27.5537 247.737 27.7875C248.239 28.3399 248.838 28.7617 249.426 29.2147C250.65 30.1591 251.269 31.3453 251.641 32.8212C252.011 34.2916 251.907 35.6558 252.366 37.1028C252.447 37.3572 252.66 37.7958 252.923 37.4027C252.972 37.3297 252.96 36.9284 252.96 36.6975C252.96 35.7654 253.197 35.066 253.194 34.1278C253.183 31.2752 253.09 27.5556 250.94 25.3757Z" fill="white"/>
</mask>
<g mask="url(#mask6_246_11501)">
<rect x="213.714" y="17.1429" width="54.8571" height="57.7444" fill="#0C092A"/>
</g>
</g>
</g>
<g clip-path="url(#clip0_246_11501)">
<rect x="24" y="24" width="64" height="64" rx="32" fill="#C4D0FB"/>
<circle cx="56" cy="56" r="32" fill="#C4D0FB"/>
<path fill-rule="evenodd" clip-rule="evenodd" d="M56.0003 39.8546C49.2524 39.8546 43.7821 45.3248 43.7821 52.0727V53.418C42.5439 53.6258 41.6003 54.7027 41.6003 56V59.0546C41.6003 60.375 42.5778 61.4672 43.8487 61.6468C44.2997 65.9681 47.0031 69.6194 50.764 71.406V75.4512C41.5117 76.0147 34.1821 83.6968 34.1821 93.0908H77.8185C77.8185 83.6968 70.489 76.0147 61.2367 75.4512V71.406C64.9976 69.6194 67.7009 65.9681 68.1519 61.6468C69.4228 61.4672 70.4003 60.375 70.4003 59.0546V56C70.4003 54.7027 69.4568 53.6258 68.2185 53.418V52.0727C68.2185 45.3248 62.7482 39.8546 56.0003 39.8546Z" fill="#D0C6AC"/>
<mask id="mask7_246_11501" style="mask-type:alpha" maskUnits="userSpaceOnUse" x="34" y="39" width="44" height="55">
<path fill-rule="evenodd" clip-rule="evenodd" d="M56.0003 39.8546C49.2524 39.8546 43.7821 45.3248 43.7821 52.0727V53.418C42.5439 53.6258 41.6003 54.7027 41.6003 56V59.0546C41.6003 60.375 42.5778 61.4672 43.8487 61.6468C44.2997 65.9681 47.0031 69.6194 50.764 71.406V75.4512C41.5117 76.0147 34.1821 83.6968 34.1821 93.0908H77.8185C77.8185 83.6968 70.489 76.0147 61.2367 75.4512V71.406C64.9976 69.6194 67.7009 65.9681 68.1519 61.6468C69.4228 61.4672 70.4003 60.375 70.4003 59.0546V56C70.4003 54.7027 69.4568 53.6258 68.2185 53.418V52.0727C68.2185 45.3248 62.7482 39.8546 56.0003 39.8546Z" fill="white"/>
</mask>
<g mask="url(#mask7_246_11501)">
<rect x="27.2002" y="39.8546" width="57.6" height="53.2364" fill="#FFCCD7"/>
<path fill-rule="evenodd" clip-rule="evenodd" d="M43.7822 60.3637V62.1093C43.7822 68.8572 49.2525 74.3275 56.0004 74.3275C62.7483 74.3275 68.2186 68.8572 68.2186 62.1093V60.3637C68.2186 67.1116 62.7483 72.5818 56.0004 72.5818C49.2525 72.5818 43.7822 67.1116 43.7822 60.3637Z" fill="black" fill-opacity="0.1"/>
</g>
<path fill-rule="evenodd" clip-rule="evenodd" d="M56.0003 81.5384C59.2538 81.5384 61.8912 79.0963 61.8912 76.0839C61.8912 75.8901 61.8803 75.6988 61.859 75.5103C70.8147 76.3666 77.8185 83.9107 77.8185 93.0907H34.1821C34.1821 83.9107 41.186 76.3666 50.1416 75.5103C50.1203 75.6988 50.1094 75.8901 50.1094 76.0839C50.1094 79.0963 52.7468 81.5384 56.0003 81.5384Z" fill="#909292"/>
<mask id="mask8_246_11501" style="mask-type:alpha" maskUnits="userSpaceOnUse" x="34" y="75" width="44" height="19">
<path fill-rule="evenodd" clip-rule="evenodd" d="M56.0003 81.5384C59.2538 81.5384 61.8912 79.0963 61.8912 76.0839C61.8912 75.8901 61.8803 75.6988 61.859 75.5103C70.8147 76.3666 77.8185 83.9107 77.8185 93.0907H34.1821C34.1821 83.9107 41.186 76.3666 50.1416 75.5103C50.1203 75.6988 50.1094 75.8901 50.1094 76.0839C50.1094 79.0963 52.7468 81.5384 56.0003 81.5384Z" fill="white"/>
</mask>
<g mask="url(#mask8_246_11501)">
<rect x="27.2002" y="69.0908" width="57.6" height="24" fill="#909292"/>
</g>
<path fill-rule="evenodd" clip-rule="evenodd" d="M62.9032 93.091C63.6453 90.4553 64.073 87.3547 64.073 84.0365C64.073 81.0034 63.7156 78.1521 63.0875 75.6715C71.447 77.0675 77.8185 84.3351 77.8185 93.091H62.9032ZM49.3156 93.091H34.1821C34.1821 84.2559 40.6695 76.936 49.1406 75.6351C48.5067 78.1241 48.1458 80.9885 48.1458 84.0365C48.1458 87.3547 48.5736 90.4553 49.3156 93.091Z" fill="#0C1626"/>
<path fill-rule="evenodd" clip-rule="evenodd" d="M66.6914 87.8544L67.3195 87.3834C68.4944 86.5022 70.1139 86.5164 71.2732 87.4181V87.4181L66.6914 87.8544Z" fill="#E6E6E6"/>
<path fill-rule="evenodd" clip-rule="evenodd" d="M49.2368 75.2C47.9277 81.5273 50.3277 93.0909 50.3277 93.0909H46.8368L43.7822 85.2363L45.0913 83.2727L43.7822 81.9636L47.9277 75.4182C47.9277 75.4182 48.5913 75.2117 49.2368 75.2Z" fill="#0C092A"/>
<path fill-rule="evenodd" clip-rule="evenodd" d="M62.7637 75.2C64.0728 81.5273 61.6728 93.0909 61.6728 93.0909H65.1637L68.2183 85.2363L66.9092 83.2727L68.2183 81.9636L64.0728 75.4182C64.0728 75.4182 63.4092 75.2117 62.7637 75.2Z" fill="#0C092A"/>
<path fill-rule="evenodd" clip-rule="evenodd" d="M50.7638 73.7902C49.2862 74.7931 48.3638 76.2157 48.3638 77.7935C48.3638 79.4083 49.3299 80.8605 50.8684 81.8667L52.1647 80.8455L53.1638 80.9178L52.9456 80.2303L52.9625 80.217C51.6316 79.5314 50.7638 78.4072 50.7638 77.1366C50.7638 77.1366 50.7638 77.1366 50.7638 77.1365V73.7902ZM61.2365 77.1365C61.2365 77.1366 61.2365 77.1366 61.2365 77.1366C61.2365 78.4072 60.3687 79.5314 59.0377 80.217L59.0547 80.2303L58.8365 80.9178L59.8356 80.8455L61.1318 81.8667C62.6704 80.8605 63.6365 79.4083 63.6365 77.7935C63.6365 76.2157 62.7141 74.7931 61.2365 73.7901V77.1365Z" fill="#0C092A"/>
<path d="M52.9458 64.7272C52.9458 65.8992 54.2894 66.6909 56.0003 66.6909C57.7113 66.6909 59.0549 65.8992 59.0549 64.7272C59.0549 64.4862 58.8477 64.2909 58.6185 64.2909C58.3365 64.2909 58.2106 64.4884 58.1822 64.7272C57.9111 65.3682 57.2403 65.7562 56.0003 65.8181C54.7604 65.7562 54.0896 65.3682 53.8185 64.7272C53.7901 64.4884 53.6642 64.2909 53.3822 64.2909C53.153 64.2909 52.9458 64.4862 52.9458 64.7272Z" fill="#0C092A"/>
<path fill-rule="evenodd" clip-rule="evenodd" d="M53.3818 60.3636C53.3818 61.3275 54.554 62.109 56 62.109V62.109C57.446 62.109 58.6182 61.3275 58.6182 60.3636" fill="black" fill-opacity="0.16"/>
<ellipse cx="50.3276" cy="56.4362" rx="1.30909" ry="1.30909" fill="#0C092A"/>
<ellipse cx="61.6733" cy="56.4362" rx="1.30909" ry="1.30909" fill="#0C092A"/>
<path d="M47.1925 53.6344C48.0466 52.4325 50.3883 51.7585 52.4054 52.2539C52.6395 52.3114 52.8758 52.1682 52.9333 51.9342C52.9908 51.7001 52.8476 51.4638 52.6136 51.4063C50.2711 50.8311 47.5594 51.6115 46.4811 53.1289C46.3415 53.3253 46.3876 53.5977 46.584 53.7373C46.7805 53.8769 47.0529 53.8309 47.1925 53.6344Z" fill="#0C092A"/>
<path d="M64.8085 53.6344C63.9543 52.4325 61.6126 51.7585 59.5955 52.2539C59.3615 52.3114 59.1252 52.1682 59.0677 51.9342C59.0102 51.7001 59.1534 51.4638 59.3874 51.4063C61.7299 50.8311 64.4415 51.6115 65.5199 53.1289C65.6595 53.3253 65.6134 53.5977 65.417 53.7373C65.2205 53.8769 64.9481 53.8309 64.8085 53.6344Z" fill="#0C092A"/>
<mask id="mask9_246_11501" style="mask-type:alpha" maskUnits="userSpaceOnUse" x="27" y="32" width="58" height="62">
<rect x="27.2002" y="32" width="57.6" height="61.0909" fill="white"/>
</mask>
<g mask="url(#mask9_246_11501)">
<path fill-rule="evenodd" clip-rule="evenodd" d="M56.1103 68.1835C53.5988 68.266 52.4784 69.4665 51.6347 68.2465C51.0014 67.3307 51.2664 65.7907 51.8581 64.9243C52.7 63.6912 53.8422 64.2876 55.1193 64.1469C55.4666 64.1087 55.8154 64.0123 56.1103 63.8546C56.4052 64.0123 56.754 64.1087 57.1013 64.1469C58.3784 64.2876 59.5205 63.6912 60.3626 64.9243C60.9542 65.7907 61.2192 67.3307 60.5859 68.2465C59.7422 69.4665 58.6219 68.101 56.1103 68.1835ZM68.3037 53.3819C67.5565 56.4527 67.2132 59.5856 66.6714 62.6919C66.5585 63.3395 66.4349 63.9847 66.3037 64.6291C66.2762 64.7644 66.249 65.2668 66.1157 65.3304C65.7118 65.5233 64.8887 64.4975 64.6686 64.2659C64.1159 63.6843 63.5678 63.0973 62.8946 62.6409C61.5343 61.7187 59.9417 61.1733 58.2846 61.0439C57.5912 60.9897 56.6536 61.0842 56.0002 61.4787C55.3467 61.0842 54.4092 60.9897 53.7158 61.0439C52.0586 61.1733 50.466 61.7187 49.1057 62.6409C48.4325 63.0973 47.8845 63.6843 47.3317 64.2659C47.1116 64.4975 46.2885 65.5233 45.8846 65.3304C45.7513 65.2668 45.7241 64.7644 45.6966 64.6291C45.5654 63.9847 45.4418 63.3395 45.3289 62.6919C44.7872 59.5856 44.4439 56.4527 43.6967 53.3819C43.4793 53.3819 43.2886 57.4723 43.2643 57.8534C43.1656 59.4013 43.0503 60.9147 43.1976 62.4639C43.4516 65.1364 43.7164 68.4875 45.7527 70.5282C47.5927 72.3723 50.2642 72.7578 52.5685 73.9218C52.8651 74.0717 53.2587 74.2567 53.683 74.4083C54.1301 74.7493 55.0168 74.9819 56.0381 74.9819C57.1095 74.9819 58.0326 74.7261 58.4556 74.3574C58.8267 74.2166 59.1677 74.0552 59.4319 73.9218C61.7359 72.7576 64.4076 72.3723 66.2476 70.5282C68.2839 68.4875 68.5487 65.1364 68.8028 62.4639C68.95 60.9147 68.8347 59.4013 68.7361 57.8534C68.7117 57.4723 68.521 53.3819 68.3037 53.3819Z" fill="#0C092A"/>
<mask id="mask10_246_11501" style="mask-type:alpha" maskUnits="userSpaceOnUse" x="43" y="53" width="26" height="22">
<path fill-rule="evenodd" clip-rule="evenodd" d="M56.1103 68.1835C53.5988 68.266 52.4784 69.4665 51.6347 68.2465C51.0014 67.3307 51.2664 65.7907 51.8581 64.9243C52.7 63.6912 53.8422 64.2876 55.1193 64.1469C55.4666 64.1087 55.8154 64.0123 56.1103 63.8546C56.4052 64.0123 56.754 64.1087 57.1013 64.1469C58.3784 64.2876 59.5205 63.6912 60.3626 64.9243C60.9542 65.7907 61.2192 67.3307 60.5859 68.2465C59.7422 69.4665 58.6219 68.101 56.1103 68.1835ZM68.3037 53.3819C67.5565 56.4527 67.2132 59.5856 66.6714 62.6919C66.5585 63.3395 66.4349 63.9847 66.3037 64.6291C66.2762 64.7644 66.249 65.2668 66.1157 65.3304C65.7118 65.5233 64.8887 64.4975 64.6686 64.2659C64.1159 63.6843 63.5678 63.0973 62.8946 62.6409C61.5343 61.7187 59.9417 61.1733 58.2846 61.0439C57.5912 60.9897 56.6536 61.0842 56.0002 61.4787C55.3467 61.0842 54.4092 60.9897 53.7158 61.0439C52.0586 61.1733 50.466 61.7187 49.1057 62.6409C48.4325 63.0973 47.8845 63.6843 47.3317 64.2659C47.1116 64.4975 46.2885 65.5233 45.8846 65.3304C45.7513 65.2668 45.7241 64.7644 45.6966 64.6291C45.5654 63.9847 45.4418 63.3395 45.3289 62.6919C44.7872 59.5856 44.4439 56.4527 43.6967 53.3819C43.4793 53.3819 43.2886 57.4723 43.2643 57.8534C43.1656 59.4013 43.0503 60.9147 43.1976 62.4639C43.4516 65.1364 43.7164 68.4875 45.7527 70.5282C47.5927 72.3723 50.2642 72.7578 52.5685 73.9218C52.8651 74.0717 53.2587 74.2567 53.683 74.4083C54.1301 74.7493 55.0168 74.9819 56.0381 74.9819C57.1095 74.9819 58.0326 74.7261 58.4556 74.3574C58.8267 74.2166 59.1677 74.0552 59.4319 73.9218C61.7359 72.7576 64.4076 72.3723 66.2476 70.5282C68.2839 68.4875 68.5487 65.1364 68.8028 62.4639C68.95 60.9147 68.8347 59.4013 68.7361 57.8534C68.7117 57.4723 68.521 53.3819 68.3037 53.3819Z" fill="white"/>
</mask>
<g mask="url(#mask10_246_11501)">
<rect x="37.6729" y="47.7092" width="36.6546" height="33.1637" fill="#0C092A"/>
</g>
<path fill-rule="evenodd" clip-rule="evenodd" d="M47.5462 43.3501C47.5731 43.3382 47.5065 43.3337 47.3464 43.3364C47.5409 43.336 47.6075 43.3406 47.5462 43.3501M45.7712 39.9202C45.7708 39.9159 45.7749 39.9532 45.7712 39.9202ZM69.2579 47.4397C69.2003 46.716 69.0982 45.9967 68.9266 45.2896C68.7904 44.7276 68.6042 44.1914 68.3841 43.6552C68.2512 43.3313 67.9406 42.8863 67.9042 42.5369C67.8682 42.1927 68.1368 41.8114 68.1941 41.4106C68.2498 41.0206 68.2403 40.6105 68.1603 40.224C67.9785 39.3463 67.3762 38.5301 66.446 38.3013C66.2384 38.2502 65.7994 38.3132 65.6526 38.1923C65.4844 38.0536 65.3672 37.5812 65.2149 37.3917C64.7806 36.8515 64.1033 36.5036 63.389 36.6249C62.863 36.7141 63.165 36.8229 62.7707 36.5133C62.5514 36.3412 62.3876 36.0784 62.1747 35.8921C61.8545 35.6122 61.4873 35.3726 61.1073 35.176C60.1131 34.6615 58.9792 34.2875 57.8686 34.1053C55.8428 33.7727 53.6806 34.0626 51.7169 34.5895C50.7398 34.8516 49.7561 35.1843 48.8485 35.6243C48.4594 35.813 48.2348 35.9694 47.8291 36.0189C47.1901 36.0967 46.6489 36.0928 46.0436 36.3638C44.1811 37.1977 43.3423 39.1322 44.067 40.9836C44.2128 41.3559 44.4102 41.6829 44.6823 41.9836C45.0141 42.3503 45.1341 42.2781 44.8483 42.6998C44.421 43.3304 44.0607 44.0027 43.7674 44.7009C42.9974 46.534 42.8686 48.5986 42.9187 50.5535C42.9362 51.2379 42.9656 51.9307 43.0735 52.6085C43.1201 52.9019 43.1332 53.4536 43.3533 53.6713C43.4649 53.7817 43.624 53.8433 43.7827 53.7993C44.1557 53.696 44.0274 53.4207 44.0361 53.1652C44.0797 51.8815 44.0208 50.7459 44.3261 49.4777C44.5516 48.5407 44.9275 47.6897 45.4145 46.8519C46.0338 45.7862 46.7024 44.8503 47.5542 43.9379C47.7544 43.7233 47.7982 43.6323 48.0667 43.6168C48.27 43.605 48.5675 43.7443 48.7651 43.7925C49.201 43.8987 49.6377 44.0037 50.0815 44.0753C50.8975 44.2068 51.7055 44.2156 52.5288 44.1898C54.1491 44.1392 55.7764 44.0255 57.3474 43.6175C58.3907 43.3465 59.3157 42.8602 60.315 42.5037C60.3329 42.4973 60.5833 42.3189 60.6272 42.3261C60.6885 42.3362 61.0586 42.7245 61.1211 42.7734C61.6066 43.1542 62.1393 43.3141 62.6637 43.609C63.3102 43.9726 62.6841 43.4523 63.0407 43.9054C63.1446 44.0374 63.1979 44.2821 63.2813 44.4316C63.5465 44.9078 63.9156 45.3264 64.3571 45.6585C64.7837 45.9794 65.4247 46.1344 65.6422 46.552C65.81 46.8743 65.8665 47.3122 66.0018 47.6562C66.3569 48.5584 66.8258 49.3998 67.2947 50.2496C67.6725 50.9344 68.0857 51.5327 68.1277 52.3152C68.1423 52.5876 67.8831 54.2216 68.5145 53.7247C68.6081 53.651 68.8099 52.8179 68.8513 52.6765C69.0196 52.1021 69.0794 51.5025 69.1556 50.9123C69.3071 49.7386 69.3569 48.6218 69.2579 47.4397" fill="#28354B"/>
<mask id="mask11_246_11501" style="mask-type:alpha" maskUnits="userSpaceOnUse" x="42" y="33" width="28" height="21">
<path fill-rule="evenodd" clip-rule="evenodd" d="M47.5462 43.3501C47.5731 43.3382 47.5065 43.3337 47.3464 43.3364C47.5409 43.336 47.6075 43.3406 47.5462 43.3501M45.7712 39.9202C45.7708 39.9159 45.7749 39.9532 45.7712 39.9202ZM69.2579 47.4397C69.2003 46.716 69.0982 45.9967 68.9266 45.2896C68.7904 44.7276 68.6042 44.1914 68.3841 43.6552C68.2512 43.3313 67.9406 42.8863 67.9042 42.5369C67.8682 42.1927 68.1368 41.8114 68.1941 41.4106C68.2498 41.0206 68.2403 40.6105 68.1603 40.224C67.9785 39.3463 67.3761 38.5301 66.446 38.3013C66.2384 38.2502 65.7994 38.3132 65.6526 38.1923C65.4844 38.0536 65.3672 37.5812 65.2149 37.3917C64.7806 36.8515 64.1033 36.5036 63.389 36.6249C62.863 36.7141 63.165 36.8229 62.7707 36.5133C62.5514 36.3412 62.3876 36.0784 62.1746 35.8921C61.8545 35.6122 61.4873 35.3726 61.1073 35.176C60.1131 34.6615 58.9792 34.2875 57.8686 34.1053C55.8428 33.7727 53.6806 34.0626 51.7169 34.5895C50.7398 34.8516 49.7561 35.1843 48.8485 35.6243C48.4594 35.813 48.2348 35.9694 47.8291 36.0189C47.1901 36.0967 46.6489 36.0928 46.0436 36.3638C44.1811 37.1977 43.3423 39.1322 44.067 40.9836C44.2128 41.3559 44.4102 41.6829 44.6823 41.9836C45.0141 42.3503 45.1341 42.2781 44.8483 42.6998C44.421 43.3304 44.0607 44.0027 43.7674 44.7009C42.9974 46.534 42.8686 48.5986 42.9187 50.5535C42.9362 51.2379 42.9656 51.9307 43.0735 52.6085C43.1201 52.9019 43.1332 53.4536 43.3533 53.6713C43.4649 53.7817 43.624 53.8433 43.7827 53.7993C44.1557 53.696 44.0274 53.4207 44.0361 53.1652C44.0797 51.8815 44.0208 50.7459 44.3261 49.4777C44.5516 48.5407 44.9275 47.6897 45.4145 46.8519C46.0338 45.7862 46.7024 44.8503 47.5542 43.9379C47.7544 43.7233 47.7982 43.6323 48.0667 43.6168C48.27 43.605 48.5675 43.7443 48.7651 43.7925C49.201 43.8987 49.6377 44.0037 50.0815 44.0753C50.8975 44.2068 51.7055 44.2156 52.5288 44.1898C54.1491 44.1392 55.7764 44.0255 57.3474 43.6175C58.3907 43.3465 59.3157 42.8602 60.315 42.5037C60.3329 42.4973 60.5833 42.3189 60.6272 42.3261C60.6885 42.3362 61.0586 42.7245 61.121 42.7734C61.6066 43.1542 62.1393 43.3141 62.6637 43.609C63.3102 43.9726 62.6841 43.4523 63.0407 43.9054C63.1446 44.0374 63.1979 44.2821 63.2813 44.4316C63.5465 44.9078 63.9156 45.3264 64.3571 45.6585C64.7837 45.9794 65.4247 46.1344 65.6422 46.552C65.81 46.8743 65.8665 47.3122 66.0018 47.6562C66.3569 48.5584 66.8258 49.3998 67.2947 50.2496C67.6725 50.9344 68.0857 51.5327 68.1277 52.3152C68.1423 52.5876 67.8831 54.2216 68.5145 53.7247C68.6081 53.651 68.8098 52.8179 68.8513 52.6765C69.0196 52.1021 69.0794 51.5025 69.1556 50.9123C69.3071 49.7386 69.3569 48.6218 69.2579 47.4397" fill="white"/>
</mask>
<g mask="url(#mask11_246_11501)">
<rect x="27.2002" y="32" width="57.6" height="61.0909" fill="#0C092A"/>
</g>
</g>
</g>
<circle cx="245.5" cy="85.5" r="23.5" fill="#FFD6DD"/>
<mask id="mask12_246_11501" style="mask-type:alpha" maskUnits="userSpaceOnUse" x="222" y="62" width="47" height="47">
<circle cx="245.5" cy="85.5" r="23.5" fill="#C4C4C4"/>
</mask>
<g mask="url(#mask12_246_11501)">
<path fill-rule="evenodd" clip-rule="evenodd" d="M245.5 74.1664C240.78 74.1664 236.955 77.9923 236.955 82.7119V83.5817C236.088 83.727 235.429 84.4802 235.429 85.3875V87.4803C235.429 88.406 236.115 89.1713 237.007 89.2942C237.341 92.291 239.224 94.8201 241.838 96.0616V98.8708C235.374 99.2187 230.24 104.57 230.24 111.12H260.76C260.76 104.57 255.626 99.2187 249.162 98.8708V96.0616C251.776 94.8201 253.659 92.291 253.993 89.2942C254.884 89.1713 255.571 88.406 255.571 87.4803V85.3875C255.571 84.4802 254.911 83.727 254.045 83.5817V82.7119C254.045 77.9923 250.219 74.1664 245.5 74.1664Z" fill="#D0C6AC"/>
<mask id="mask13_246_11501" style="mask-type:alpha" maskUnits="userSpaceOnUse" x="230" y="74" width="31" height="38">
<path fill-rule="evenodd" clip-rule="evenodd" d="M245.5 74.1664C240.78 74.1664 236.955 77.9923 236.955 82.7119V83.5817C236.088 83.727 235.429 84.4802 235.429 85.3875V87.4803C235.429 88.406 236.115 89.1713 237.007 89.2942C237.341 92.291 239.224 94.8201 241.838 96.0616V98.8708C235.374 99.2187 230.24 104.57 230.24 111.12H260.76C260.76 104.57 255.626 99.2187 249.162 98.8708V96.0616C251.776 94.8201 253.659 92.291 253.993 89.2942C254.884 89.1713 255.571 88.406 255.571 87.4803V85.3875C255.571 84.4802 254.911 83.727 254.045 83.5817V82.7119C254.045 77.9923 250.219 74.1664 245.5 74.1664Z" fill="white"/>
</mask>
<g mask="url(#mask13_246_11501)">
<rect width="40.2857" height="36.9538" transform="translate(225.357 74.1664)" fill="#FFCCD7"/>
<rect x="225.357" y="74.1664" width="40.2857" height="36.9538" fill="#FFCCD7"/>
<path fill-rule="evenodd" clip-rule="evenodd" d="M236.955 88.3385V89.5501C236.955 94.2696 240.781 98.0956 245.5 98.0956C250.22 98.0956 254.045 94.2696 254.045 89.5501V88.3385C254.045 93.058 250.22 96.8839 245.5 96.8839C240.781 96.8839 236.955 93.058 236.955 88.3385Z" fill="black" fill-opacity="0.1"/>
</g>
<path fill-rule="evenodd" clip-rule="evenodd" d="M245.576 104.431C249.748 104.431 253.13 102.432 253.13 99.9658C253.13 99.8974 253.127 99.8295 253.122 99.7619C257.602 101.587 260.76 105.985 260.76 111.12H230.24C230.24 105.925 233.473 101.484 238.036 99.6988C238.027 99.7871 238.023 99.8761 238.023 99.9658C238.023 102.432 241.405 104.431 245.576 104.431Z" fill="#6223A9"/>
<mask id="mask14_246_11501" style="mask-type:alpha" maskUnits="userSpaceOnUse" x="230" y="99" width="31" height="13">
<path fill-rule="evenodd" clip-rule="evenodd" d="M245.576 104.431C249.748 104.431 253.13 102.432 253.13 99.9658C253.13 99.8974 253.127 99.8295 253.122 99.7619C257.602 101.587 260.76 105.985 260.76 111.12H230.24C230.24 105.925 233.473 101.484 238.036 99.6988C238.027 99.7871 238.023 99.8761 238.023 99.9658C238.023 102.432 241.405 104.431 245.576 104.431Z" fill="white"/>
</mask>
<g mask="url(#mask14_246_11501)">
<rect x="225.357" y="94.4609" width="40.2857" height="16.6595" fill="#6223A9"/>
</g>
<path fill-rule="evenodd" clip-rule="evenodd" d="M243.363 91.2803C243.363 92.4513 244.32 93.4006 245.5 93.4006V93.4006C246.68 93.4006 247.636 92.4513 247.636 91.2803" fill="#0C092A"/>
<g opacity="0.3">
<path fill-rule="evenodd" clip-rule="evenodd" d="M243.668 88.403C243.668 89.0721 244.488 89.6146 245.5 89.6146V89.6146C246.511 89.6146 247.331 89.0721 247.331 88.403" fill="#0C092A"/>
</g>
<ellipse cx="241.532" cy="85.6765" rx="0.915584" ry="0.9087" fill="#0C092A"/>
<ellipse cx="249.467" cy="85.6765" rx="0.915585" ry="0.9087" fill="#0C092A"/>
<path d="M239.339 83.7318C239.937 82.8975 241.574 82.4296 242.985 82.7735C243.149 82.8134 243.314 82.714 243.354 82.5516C243.394 82.3891 243.294 82.2251 243.131 82.1852C241.492 81.7858 239.596 82.3276 238.842 83.3808C238.744 83.5172 238.776 83.7063 238.914 83.8032C239.051 83.9001 239.242 83.8681 239.339 83.7318Z" fill="#0C092A"/>
<path d="M251.66 83.7318C251.062 82.8975 249.425 82.4296 248.014 82.7735C247.85 82.8134 247.685 82.714 247.645 82.5516C247.605 82.3891 247.705 82.2251 247.868 82.1852C249.507 81.7858 251.403 82.3276 252.157 83.3808C252.255 83.5172 252.223 83.7063 252.085 83.8032C251.948 83.9001 251.758 83.8681 251.66 83.7318Z" fill="#0C092A"/>
<mask id="mask15_246_11501" style="mask-type:alpha" maskUnits="userSpaceOnUse" x="225" y="68" width="41" height="44">
<rect x="225.357" y="68.7143" width="40.2857" height="42.406" fill="white"/>
</mask>
<g mask="url(#mask15_246_11501)">
<path fill-rule="evenodd" clip-rule="evenodd" d="M231.308 90.6746C231.214 86.0045 235.63 76.2558 237.259 74.318C238.468 72.8806 241.791 71.6753 245.5 71.7433C249.209 71.8114 252.651 72.6236 253.893 74.1665C255.773 76.5031 259.671 85.3858 259.691 90.6746C259.706 94.4306 258.236 98.1956 256.182 98.3986C255.022 98.5131 253.548 98.3644 251.778 98.1857L251.778 98.1857L251.778 98.1857C250.967 98.1039 250.095 98.0158 249.162 97.9438V96.0617C252.049 94.6902 254.045 91.7475 254.045 88.3386V84.0961C252.442 83.2193 251.076 82.1608 249.939 81.0852C250.451 82.0304 251.037 82.8886 251.697 83.5372C247.03 82.2377 243.804 79.5764 241.871 77.4899C240.982 79.1678 239.39 81.6217 236.954 83.491V88.3386C236.954 91.7475 238.95 94.6902 241.837 96.0617V98.0571C240.776 98.2013 239.79 98.3842 238.883 98.5525L238.883 98.5525L238.883 98.5525L238.883 98.5526L238.883 98.5526C237.227 98.8597 235.833 99.1182 234.724 99.0044C232.554 98.7818 231.384 94.4299 231.308 90.6746Z" fill="#E6E6E6"/>
<mask id="mask16_246_11501" style="mask-type:alpha" maskUnits="userSpaceOnUse" x="231" y="71" width="29" height="29">
<path fill-rule="evenodd" clip-rule="evenodd" d="M231.308 90.6746C231.214 86.0045 235.63 76.2558 237.259 74.318C238.468 72.8806 241.791 71.6753 245.5 71.7433C249.209 71.8114 252.651 72.6236 253.893 74.1665C255.773 76.5031 259.671 85.3858 259.691 90.6746C259.706 94.4306 258.236 98.1956 256.182 98.3986C255.022 98.5131 253.548 98.3644 251.778 98.1857L251.778 98.1857L251.778 98.1857C250.967 98.1039 250.095 98.0158 249.162 97.9438V96.0617C252.049 94.6902 254.045 91.7475 254.045 88.3386V84.0961C252.442 83.2193 251.076 82.1608 249.939 81.0852C250.451 82.0304 251.037 82.8886 251.697 83.5372C247.03 82.2377 243.804 79.5764 241.871 77.4899C240.982 79.1678 239.39 81.6217 236.954 83.491V88.3386C236.954 91.7475 238.95 94.6902 241.837 96.0617V98.0571C240.776 98.2013 239.79 98.3842 238.883 98.5525L238.883 98.5525L238.883 98.5525L238.883 98.5526L238.883 98.5526C237.227 98.8597 235.833 99.1182 234.724 99.0044C232.554 98.7818 231.384 94.4299 231.308 90.6746Z" fill="white"/>
</mask>
<g mask="url(#mask16_246_11501)">
<rect x="225.204" y="68.7143" width="40.5909" height="42.406" fill="#0C092A"/>
</g>
</g>
</g>
<circle cx="280" cy="67" r="28" fill="#C4D0FB"/>
<mask id="mask17_246_11501" style="mask-type:alpha" maskUnits="userSpaceOnUse" x="252" y="39" width="56" height="56">
<circle cx="280" cy="67" r="28" fill="#C4C4C4"/>
</mask>
<g mask="url(#mask17_246_11501)">
<path fill-rule="evenodd" clip-rule="evenodd" d="M280 53.4962C274.377 53.4962 269.818 58.0548 269.818 63.6781V64.7144C268.786 64.8875 268 65.7849 268 66.866V69.3595C268 70.4625 268.819 71.3743 269.881 71.5208C270.279 75.0915 272.523 78.1048 275.637 79.5841V82.9312C267.935 83.3458 261.818 89.7217 261.818 97.5263H298.182C298.182 89.7217 292.065 83.3458 284.364 82.9312V79.5841C287.478 78.1048 289.722 75.0915 290.119 71.5208C291.182 71.3743 292 70.4625 292 69.3595V66.866C292 65.7849 291.214 64.8875 290.182 64.7144V63.6781C290.182 58.0548 285.623 53.4962 280 53.4962Z" fill="#D0C6AC"/>
<mask id="mask18_246_11501" style="mask-type:alpha" maskUnits="userSpaceOnUse" x="261" y="53" width="38" height="45">
<path fill-rule="evenodd" clip-rule="evenodd" d="M280 53.4962C274.377 53.4962 269.818 58.0548 269.818 63.6781V64.7144C268.786 64.8875 268 65.7849 268 66.866V69.3595C268 70.4625 268.819 71.3743 269.881 71.5208C270.279 75.0915 272.523 78.1048 275.637 79.5841V82.9312C267.935 83.3458 261.818 89.7217 261.818 97.5263H298.182C298.182 89.7217 292.065 83.3458 284.364 82.9312V79.5841C287.478 78.1048 289.722 75.0915 290.119 71.5208C291.182 71.3743 292 70.4625 292 69.3595V66.866C292 65.7849 291.214 64.8875 290.182 64.7144V63.6781C290.182 58.0548 285.623 53.4962 280 53.4962Z" fill="white"/>
</mask>
<g mask="url(#mask18_246_11501)">
<rect x="256" y="53.4962" width="48" height="44.0301" fill="#D08B5B"/>
<path fill-rule="evenodd" clip-rule="evenodd" d="M269.818 70.3821V71.8257C269.818 77.449 274.377 82.0075 280 82.0075C285.623 82.0075 290.182 77.449 290.182 71.8257V70.3821C290.182 76.0054 285.623 80.5639 280 80.5639C274.377 80.5639 269.818 76.0054 269.818 70.3821Z" fill="black" fill-opacity="0.1"/>
</g>
<path fill-rule="evenodd" clip-rule="evenodd" d="M280.091 87.0291C283.455 87.0291 286.182 85.2937 286.182 83.153C286.182 83.1524 286.182 83.1518 286.182 83.1512C293.005 84.3806 298.182 90.349 298.182 97.5264H261.818C261.818 90.2853 267.087 84.2748 274 83.1196C274 83.1307 274 83.1419 274 83.153C274 85.2937 276.727 87.0291 280.091 87.0291Z" fill="#E6E6E6"/>
<mask id="mask19_246_11501" style="mask-type:alpha" maskUnits="userSpaceOnUse" x="261" y="83" width="38" height="15">
<path fill-rule="evenodd" clip-rule="evenodd" d="M280.091 87.0291C283.455 87.0291 286.182 85.2937 286.182 83.153C286.182 83.1524 286.182 83.1518 286.182 83.1512C293.005 84.3806 298.182 90.349 298.182 97.5264H261.818C261.818 90.2853 267.087 84.2748 274 83.1196C274 83.1307 274 83.1419 274 83.153C274 85.2937 276.727 87.0291 280.091 87.0291Z" fill="white"/>
</mask>
<g mask="url(#mask19_246_11501)">
<rect x="256" y="77.6767" width="48" height="19.8496" fill="#555FA8"/>
<g opacity="0.6">
<ellipse cx="280.091" cy="83.4236" rx="7.20638" ry="4.85663" fill="black" fill-opacity="0.16"/>
</g>
</g>
<path d="M277.455 74.0677C277.455 75.037 278.575 75.6917 280.001 75.6917C281.426 75.6917 282.546 75.037 282.546 74.0677C282.546 73.8683 282.373 73.7068 282.182 73.7068C281.947 73.7068 281.842 73.8701 281.819 74.0677C281.593 74.5978 281.034 74.9187 280.001 74.9699C278.967 74.9187 278.408 74.5978 278.182 74.0677C278.159 73.8701 278.054 73.7068 277.819 73.7068C277.628 73.7068 277.455 73.8683 277.455 74.0677Z" fill="black" fill-opacity="0.6"/>
<path fill-rule="evenodd" clip-rule="evenodd" d="M277.818 70.4586C277.818 71.2559 278.795 71.9023 280 71.9023V71.9023C281.205 71.9023 282.182 71.2559 282.182 70.4586" fill="black" fill-opacity="0.16"/>
<ellipse cx="275.273" cy="67.2105" rx="1.09091" ry="1.08271" fill="black" fill-opacity="0.6"/>
<ellipse cx="284.728" cy="67.2105" rx="1.09091" ry="1.08271" fill="black" fill-opacity="0.6"/>
<path d="M272.66 64.8933C273.372 63.8992 275.323 63.3418 277.004 63.7515C277.199 63.799 277.396 63.6807 277.444 63.4871C277.492 63.2935 277.373 63.0981 277.178 63.0505C275.226 62.5747 272.966 63.2202 272.067 64.4752C271.951 64.6376 271.989 64.8629 272.153 64.9784C272.317 65.0939 272.544 65.0558 272.66 64.8933Z" fill="black" fill-opacity="0.6"/>
<path d="M287.34 64.8933C286.628 63.8992 284.677 63.3418 282.996 63.7515C282.801 63.799 282.604 63.6807 282.556 63.4871C282.508 63.2935 282.627 63.0981 282.822 63.0505C284.774 62.5747 287.034 63.2202 287.933 64.4752C288.049 64.6376 288.011 64.8629 287.847 64.9784C287.683 65.0939 287.456 65.0558 287.34 64.8933Z" fill="black" fill-opacity="0.6"/>
<mask id="mask20_246_11501" style="mask-type:alpha" maskUnits="userSpaceOnUse" x="256" y="47" width="48" height="51">
<rect x="256" y="47" width="48" height="50.5263" fill="white"/>
</mask>
<g mask="url(#mask20_246_11501)">
<path fill-rule="evenodd" clip-rule="evenodd" d="M270 64.6842C269.941 64.9049 269.699 64.9528 269.636 64.6842C269.506 62.8259 269.636 53.4467 280 53.3158C290.364 53.1849 290.494 62.8259 290.364 64.6842C290.301 64.9528 290.06 64.9049 290 64.6842C290.084 64.4038 289.401 59.4959 287.636 58.188C287.317 57.9672 286.319 57.7568 284.974 57.5996L285.637 56.0226L284.367 57.5345C283.089 57.4093 281.574 57.3311 280.057 57.33C276.547 57.3276 273.022 57.7339 272.364 58.188C270.599 59.4959 269.916 64.4038 270 64.6842Z" fill="#28354B"/>
<mask id="mask21_246_11501" style="mask-type:alpha" maskUnits="userSpaceOnUse" x="269" y="53" width="22" height="12">
<path fill-rule="evenodd" clip-rule="evenodd" d="M270 64.6842C269.941 64.9049 269.699 64.9528 269.636 64.6842C269.506 62.8259 269.636 53.4467 280 53.3158C290.364 53.1849 290.494 62.8259 290.364 64.6842C290.301 64.9528 290.06 64.9049 290 64.6842C290.084 64.4038 289.401 59.4959 287.636 58.188C287.317 57.9672 286.319 57.7568 284.974 57.5996L285.637 56.0226L284.367 57.5345C283.089 57.4093 281.574 57.3311 280.057 57.33C276.547 57.3276 273.022 57.7339 272.364 58.188C270.599 59.4959 269.916 64.4038 270 64.6842Z" fill="white"/>
</mask>
<g mask="url(#mask21_246_11501)">
<rect x="256" y="47" width="48" height="50.5263" fill="#2C1B18"/>
</g>
<g filter="url(#filter0_d_246_11501)">
<path fill-rule="evenodd" clip-rule="evenodd" d="M276.955 65.0948C277.386 65.0988 277.59 65.17 277.663 65.6163C277.737 66.0684 277.665 66.5766 277.579 67.0219C277.448 67.7019 277.23 68.368 276.723 68.865C276.456 69.1267 276.13 69.3353 275.784 69.4778C275.6 69.5534 275.406 69.608 275.211 69.6495C275.154 69.6616 274.67 69.7279 274.967 69.6942C274.273 69.7728 273.52 69.7697 272.941 69.3313C272.298 68.8455 271.858 68.0767 271.665 67.3109C271.552 66.8628 271.314 65.7912 271.748 65.4329C272.246 65.0225 276.955 65.0948 276.955 65.0948ZM272.585 63.8705C271.596 63.9043 270.936 64.0768 270.448 65.0576C269.554 66.8551 271.084 69.5508 272.792 70.2853C274.787 71.1442 277.017 70.1937 278.072 68.4747C278.631 67.5646 278.913 66.1861 278.895 65.136C278.872 63.7958 277.929 63.7586 276.82 63.7881L272.585 63.8705Z" fill="#44509F"/>
<path fill-rule="evenodd" clip-rule="evenodd" d="M283.033 65.0943C282.602 65.0984 282.398 65.1695 282.325 65.6158C282.25 66.0679 282.323 66.5762 282.409 67.0215C282.54 67.7014 282.758 68.3676 283.265 68.8645C283.532 69.1262 283.858 69.3348 284.204 69.4773C284.388 69.5529 284.582 69.6076 284.777 69.649C284.833 69.6611 285.318 69.7274 285.021 69.6937C285.715 69.7723 286.468 69.7692 287.047 69.3308C287.69 68.845 288.13 68.0763 288.323 67.3105C288.436 66.8624 288.674 65.7908 288.239 65.4325C287.742 65.022 283.033 65.0943 283.033 65.0943ZM287.403 63.87C288.392 63.9038 289.052 64.0764 289.54 65.0571C290.434 66.8546 288.904 69.5503 287.196 70.2849C285.201 71.1438 282.971 70.1933 281.916 68.4743C281.357 67.5641 281.074 66.1857 281.093 65.1356C281.116 63.7953 282.059 63.7581 283.168 63.7877L287.403 63.87Z" fill="#44509F"/>
<path fill-rule="evenodd" clip-rule="evenodd" d="M270.945 64.671C270.325 64.7056 269.616 64.7139 269.035 64.9801C268.42 65.2619 268.325 65.9002 269.1 65.9882C269.45 66.0278 269.8 65.9623 270.144 65.9014C270.425 65.8515 270.808 65.8676 271.074 65.7607C271.571 65.5616 271.539 64.6373 270.945 64.671" fill="#44509F"/>
<path fill-rule="evenodd" clip-rule="evenodd" d="M289.043 64.671C289.664 64.7056 290.372 64.7139 290.954 64.9801C291.569 65.2619 291.664 65.9002 290.888 65.9882C290.539 66.0278 290.189 65.9623 289.845 65.9014C289.563 65.8515 289.18 65.8676 288.914 65.7607C288.418 65.5616 288.45 64.6373 289.043 64.671" fill="#44509F"/>
<path fill-rule="evenodd" clip-rule="evenodd" d="M281.838 65.0474C281.484 64.6324 280.562 64.3927 279.98 64.3927C279.399 64.3927 278.503 64.6324 278.15 65.0474C277.971 65.2567 277.965 65.5367 278.274 65.6679C278.659 65.8313 279.003 65.5349 279.312 65.3799C279.706 65.1817 280.311 65.2034 280.676 65.3799C280.987 65.5302 281.328 65.8313 281.713 65.6679C282.023 65.5367 282.017 65.2567 281.838 65.0474" fill="#44509F"/>
</g>
</g>
</g>
<path d="M95.9406 65.8488C103.689 56.6508 119.236 46.3178 131.444 58.2727C138.203 64.8922 140.053 81.4643 128.403 84.8018C124.237 85.9951 124.688 82.0018 125.524 79.9457C127.042 76.212 130.558 73.4868 134.694 71.9789C145.106 68.1835 151.874 77.3577 159.63 81.6696C169.697 87.2658 185.45 89.7249 196.879 87.6437C206.758 85.845 200.613 84.7077 194.549 81.4188C189.937 78.9177 200.32 82.6444 201.776 83.4008C203.605 84.3513 205.599 84.0376 203.6 85.3588C200.213 87.5973 196.853 90.3566 193.869 93.0126" stroke="white" stroke-linecap="round"/>
<path d="M99.9999 47.015C105.504 42.3606 112.985 39.0713 124.589 39.2618C134.671 39.4273 144.562 41.1895 154.627 41.6351C165.999 42.1385 177.607 41.2037 187.451 39.102C190.806 38.3856 194.218 36.8919 197.656 36.4561" stroke="white" stroke-linecap="round"/>
<path d="M190.66 34.8595C194.064 35.3031 197.973 35.5646 201.008 35.8656C202.586 36.022 202.534 35.803 201.785 36.043C199.357 36.8214 196.409 38.514 195.242 39.908" stroke="white" stroke-linecap="round"/>
<defs>
<filter id="filter0_d_246_11501" x="268.546" y="63.782" width="22.897" height="8.82471" filterUnits="userSpaceOnUse" color-interpolation-filters="sRGB">
<feFlood flood-opacity="0" result="BackgroundImageFix"/>
<feColorMatrix in="SourceAlpha" type="matrix" values="0 0 0 0 0 0 0 0 0 0 0 0 0 0 0 0 0 0 127 0" result="hardAlpha"/>
<feOffset dy="2"/>
<feColorMatrix type="matrix" values="0 0 0 0 0 0 0 0 0 0 0 0 0 0 0 0 0 0 0.1 0"/>
<feBlend mode="normal" in2="BackgroundImageFix" result="effect1_dropShadow_246_11501"/>
<feBlend mode="normal" in="SourceGraphic" in2="effect1_dropShadow_246_11501" result="shape"/>
</filter>
<clipPath id="clip0_246_11501">
<rect x="24" y="24" width="64" height="64" rx="32" fill="white"/>
</clipPath>
</defs>
</svg>
