<svg width="100" height="101" viewBox="0 0 100 101" fill="none" xmlns="http://www.w3.org/2000/svg">
<circle cx="32" cy="32" r="32" fill="#FFD6DD"/>
<mask id="mask0_430_12709" style="mask-type:alpha" maskUnits="userSpaceOnUse" x="0" y="0" width="64" height="64">
<circle cx="32" cy="32" r="32" fill="#C4C4C4"/>
</mask>
<g mask="url(#mask0_430_12709)">
<path fill-rule="evenodd" clip-rule="evenodd" d="M33.143 16.5671C26.7164 16.5671 21.5066 21.7769 21.5066 28.2035V29.3879C20.3273 29.5857 19.4287 30.6114 19.4287 31.8469V34.6966C19.4287 35.9572 20.3641 36.9992 21.5786 37.1666C22.0327 41.2475 24.5972 44.6912 28.156 46.3818V50.2071C19.3546 50.6809 12.3638 57.9677 12.3638 66.8872H53.9222C53.9222 57.9677 46.9314 50.6809 38.13 50.2071V46.3818C41.6888 44.6912 44.2533 41.2475 44.7074 37.1666C45.9219 36.9992 46.8573 35.9572 46.8573 34.6966V31.8469C46.8573 30.6114 45.9587 29.5857 44.7794 29.3879V28.2035C44.7794 21.7769 39.5696 16.5671 33.143 16.5671Z" fill="#D0C6AC"/>
<mask id="mask1_430_12709" style="mask-type:alpha" maskUnits="userSpaceOnUse" x="12" y="16" width="42" height="51">
<path fill-rule="evenodd" clip-rule="evenodd" d="M33.143 16.5671C26.7164 16.5671 21.5066 21.7769 21.5066 28.2035V29.3879C20.3273 29.5857 19.4287 30.6114 19.4287 31.8469V34.6966C19.4287 35.9572 20.3641 36.9992 21.5786 37.1666C22.0327 41.2475 24.5972 44.6912 28.156 46.3818V50.2071C19.3546 50.6809 12.3638 57.9677 12.3638 66.8872H53.9222C53.9222 57.9677 46.9314 50.6809 38.13 50.2071V46.3818C41.6888 44.6912 44.2533 41.2475 44.7074 37.1666C45.9219 36.9992 46.8573 35.9572 46.8573 34.6966V31.8469C46.8573 30.6114 45.9587 29.5857 44.7794 29.3879V28.2035C44.7794 21.7769 39.5696 16.5671 33.143 16.5671Z" fill="white"/>
</mask>
<g mask="url(#mask1_430_12709)">
<rect x="5.71436" y="16.5671" width="54.8571" height="50.3201" fill="#FFBF75"/>
<path fill-rule="evenodd" clip-rule="evenodd" d="M21.5068 35.8653V37.5151C21.5068 43.9417 26.7166 49.1515 33.1432 49.1515C39.5698 49.1515 44.7796 43.9417 44.7796 37.5151V35.8653C44.7796 42.2919 39.5698 47.5016 33.1432 47.5016C26.7166 47.5016 21.5068 42.2918 21.5068 35.8653Z" fill="black" fill-opacity="0.1"/>
</g>
<path fill-rule="evenodd" clip-rule="evenodd" d="M28.156 47.2324C24.5025 48.0937 21.8969 49.8718 21.5468 51.9677C16.0992 54.7195 12.3638 60.3671 12.3638 66.8872H53.9222C53.9222 60.3671 50.1867 54.7195 44.7391 51.9677C44.389 49.8718 41.7835 48.0937 38.13 47.2324V50.7638C38.13 53.5181 35.8972 55.7508 33.143 55.7508C30.3887 55.7508 28.156 53.5181 28.156 50.7638V47.2324Z" fill="#B7C1DB"/>
<mask id="mask2_430_12709" style="mask-type:alpha" maskUnits="userSpaceOnUse" x="12" y="47" width="42" height="20">
<path fill-rule="evenodd" clip-rule="evenodd" d="M28.156 47.2324C24.5025 48.0937 21.8969 49.8718 21.5468 51.9677C16.0992 54.7195 12.3638 60.3671 12.3638 66.8872H53.9222C53.9222 60.3671 50.1867 54.7195 44.7391 51.9677C44.389 49.8718 41.7835 48.0937 38.13 47.2324V50.7638C38.13 53.5181 35.8972 55.7508 33.143 55.7508C30.3887 55.7508 28.156 53.5181 28.156 50.7638V47.2324Z" fill="white"/>
</mask>
<g mask="url(#mask2_430_12709)">
<rect x="5.71436" y="44.2019" width="54.8571" height="22.6853" fill="#FF6990"/>
<path fill-rule="evenodd" clip-rule="evenodd" d="M26.9091 57.2638C26.3956 57.0902 25.9093 56.8958 25.4546 56.6829V66.8872H26.9091V57.2638ZM39.3767 57.2638C39.8902 57.0902 40.3765 56.8958 40.8312 56.6829V64.5101C40.8312 64.9117 40.5056 65.2374 40.1039 65.2374C39.7023 65.2374 39.3767 64.9117 39.3767 64.5101V57.2638Z" fill="#F4F4F4"/>
<path fill-rule="evenodd" clip-rule="evenodd" d="M33.1429 58.2256C39.5695 58.2256 44.7793 55.4556 44.7793 52.0387C44.7793 50.0046 42.9331 48.1998 40.0831 47.0721C44.1962 48.1081 46.9611 50.0368 46.9611 52.2449C46.9611 55.5479 40.7745 58.2256 33.1429 58.2256ZM26.2027 47.0721C23.3527 48.1998 21.5065 50.0046 21.5065 52.0387C21.5065 55.4556 26.7163 58.2256 33.1429 58.2256C25.5113 58.2256 19.3247 55.5479 19.3247 52.2449C19.3247 50.0368 22.0896 48.1081 26.2027 47.0721Z" fill="black" fill-opacity="0.16"/>
</g>
<path fill-rule="evenodd" clip-rule="evenodd" d="M30.2334 39.8711C30.2334 41.4657 31.5358 42.7583 33.1425 42.7583V42.7583C34.7491 42.7583 36.0516 41.4657 36.0516 39.8711" fill="#0C092A"/>
<g opacity="0.3">
<path fill-rule="evenodd" clip-rule="evenodd" d="M30.6494 35.9527C30.6494 36.8639 31.7658 37.6026 33.1429 37.6026V37.6026C34.52 37.6026 35.6364 36.8639 35.6364 35.9527" fill="#0C092A"/>
</g>
<ellipse cx="27.7399" cy="32.2406" rx="1.24675" ry="1.23738" fill="#0C092A"/>
<ellipse cx="38.5451" cy="32.2406" rx="1.24675" ry="1.23738" fill="#0C092A"/>
<path d="M24.7544 29.5923C25.5679 28.4563 27.798 27.8192 29.7191 28.2874C29.942 28.3417 30.1671 28.2064 30.2218 27.9852C30.2765 27.764 30.1402 27.5406 29.9173 27.4863C27.6863 26.9426 25.1038 27.6802 24.0769 29.1145C23.9439 29.3001 23.9878 29.5576 24.1749 29.6896C24.362 29.8215 24.6214 29.778 24.7544 29.5923Z" fill="#0C092A"/>
<path d="M41.5313 29.5923C40.7178 28.4563 38.4876 27.8192 36.5665 28.2874C36.3436 28.3417 36.1186 28.2064 36.0638 27.9852C36.0091 27.764 36.1454 27.5406 36.3683 27.4863C38.5993 26.9426 41.1818 27.6802 42.2088 29.1145C42.3417 29.3001 42.2979 29.5576 42.1108 29.6896C41.9237 29.8215 41.6642 29.778 41.5313 29.5923Z" fill="#0C092A"/>
<mask id="mask3_430_12709" style="mask-type:alpha" maskUnits="userSpaceOnUse" x="5" y="9" width="56" height="58">
<rect x="5.71436" y="9.14285" width="54.8571" height="57.7444" fill="white"/>
</mask>
<g mask="url(#mask3_430_12709)">
<path fill-rule="evenodd" clip-rule="evenodd" d="M27.6458 38.3611C27.9839 38.16 28.3122 37.9646 28.6516 37.836C29.73 37.427 31.7311 37.543 33.1424 38.2825C34.5537 37.543 36.5548 37.427 37.6332 37.836C37.9726 37.9646 38.3009 38.16 38.639 38.3611C39.4961 38.871 40.4158 39.4182 41.737 39.0108C41.8137 38.9871 41.8886 39.0555 41.8656 39.1305C41.5802 40.0605 39.9938 40.6974 39.4548 40.7183C38.1651 40.7681 37.0127 40.252 35.8962 39.7518C34.9729 39.3383 34.074 38.9357 33.1424 38.8733C32.2107 38.9357 31.3119 39.3383 30.3886 39.7519C29.2721 40.252 28.1197 40.7681 26.83 40.7183C26.291 40.6974 24.7047 40.0605 24.4193 39.1305C24.3962 39.0555 24.4711 38.9871 24.5478 39.0108C25.869 39.4182 26.7887 38.871 27.6458 38.3611Z" fill="#28354B"/>
<mask id="mask4_430_12709" style="mask-type:alpha" maskUnits="userSpaceOnUse" x="24" y="37" width="18" height="4">
<path fill-rule="evenodd" clip-rule="evenodd" d="M27.6458 38.3611C27.9839 38.16 28.3122 37.9646 28.6516 37.836C29.73 37.427 31.7311 37.543 33.1424 38.2825C34.5537 37.543 36.5548 37.427 37.6332 37.836C37.9726 37.9646 38.3009 38.16 38.639 38.3611C39.4961 38.871 40.4158 39.4182 41.737 39.0108C41.8137 38.9871 41.8886 39.0555 41.8656 39.1305C41.5802 40.0605 39.9938 40.6974 39.4548 40.7183C38.1651 40.7681 37.0127 40.252 35.8962 39.7518C34.9729 39.3383 34.074 38.9357 33.1424 38.8733C32.2107 38.9357 31.3119 39.3383 30.3886 39.7519C29.2721 40.252 28.1197 40.7681 26.83 40.7183C26.291 40.6974 24.7047 40.0605 24.4193 39.1305C24.3962 39.0555 24.4711 38.9871 24.5478 39.0108C25.869 39.4182 26.7887 38.871 27.6458 38.3611Z" fill="white"/>
</mask>
<g mask="url(#mask4_430_12709)">
<rect x="15.688" y="23.9914" width="34.9091" height="31.347" fill="#0C092A"/>
</g>
<path fill-rule="evenodd" clip-rule="evenodd" d="M42.9399 17.3756C42.3665 16.7941 41.7007 16.3005 41.053 15.8054C40.9101 15.6963 40.765 15.5898 40.6253 15.4766C40.5935 15.4508 40.2682 15.2196 40.2292 15.1345C40.1356 14.9297 40.1898 15.0892 40.2028 14.8448C40.2191 14.5359 40.8539 13.6633 40.3802 13.4632C40.1718 13.3752 39.8001 13.6094 39.6002 13.6867C39.2093 13.8381 38.8136 13.9673 38.4094 14.0786C38.603 13.6957 38.9722 12.9291 38.2783 13.1343C37.7377 13.2941 37.234 13.7051 36.6908 13.8984C36.8705 13.606 37.5893 12.6999 36.9398 12.6493C36.7377 12.6335 36.1496 13.0098 35.9319 13.09C35.2802 13.3305 34.6144 13.4859 33.9301 13.6083C31.6032 14.0245 28.8822 13.9058 26.7294 14.9572C25.0697 15.7677 23.4309 17.0254 22.4721 18.6269C21.548 20.1705 21.2024 21.8599 21.0089 23.6287C20.867 24.9269 20.8555 26.2687 20.9218 27.5716C20.9435 27.9984 20.9919 29.9661 21.6167 29.3702C21.928 29.0733 21.9257 27.8744 22.0041 27.4685C22.1602 26.6611 22.3104 25.8501 22.5705 25.0685C23.0289 23.6911 23.5697 22.224 24.7118 21.2753C25.4447 20.6666 25.9593 19.8439 26.6607 19.2298C26.9757 18.954 26.7353 18.9827 27.2419 19.0189C27.5821 19.0432 27.9239 19.0525 28.2649 19.0613C29.0537 19.0817 29.8437 19.0765 30.6327 19.0793C32.2217 19.0849 33.8032 19.1072 35.3906 19.0247C36.096 18.988 36.8034 18.9681 37.507 18.9034C37.9 18.8672 38.5974 18.6172 38.9209 18.8082C39.217 18.983 39.5245 19.5537 39.7371 19.7874C40.2394 20.3398 40.8383 20.7617 41.4256 21.2146C42.6504 22.1591 43.2688 23.3452 43.6407 24.8211C44.0113 26.2916 43.9074 27.6557 44.3661 29.1028C44.4468 29.3572 44.6603 29.7958 44.9234 29.4027C44.9723 29.3297 44.9596 28.9284 44.9596 28.6974C44.9596 27.7653 45.1974 27.066 45.1944 26.1278C45.1828 23.2752 45.0898 19.5556 42.9399 17.3756Z" fill="#0C092A"/>
<mask id="mask5_430_12709" style="mask-type:alpha" maskUnits="userSpaceOnUse" x="20" y="12" width="26" height="18">
<path fill-rule="evenodd" clip-rule="evenodd" d="M42.9399 17.3756C42.3665 16.7941 41.7007 16.3005 41.053 15.8054C40.9101 15.6963 40.765 15.5898 40.6253 15.4766C40.5935 15.4508 40.2682 15.2196 40.2292 15.1345C40.1356 14.9297 40.1898 15.0892 40.2028 14.8448C40.2191 14.5359 40.8539 13.6633 40.3802 13.4632C40.1718 13.3752 39.8001 13.6094 39.6002 13.6867C39.2093 13.8381 38.8136 13.9673 38.4094 14.0786C38.603 13.6957 38.9722 12.9291 38.2783 13.1343C37.7377 13.2941 37.234 13.7051 36.6908 13.8984C36.8705 13.606 37.5893 12.6999 36.9398 12.6493C36.7377 12.6335 36.1496 13.0098 35.9319 13.09C35.2802 13.3305 34.6144 13.4859 33.9301 13.6083C31.6032 14.0245 28.8822 13.9058 26.7294 14.9572C25.0697 15.7677 23.4309 17.0254 22.4721 18.6269C21.548 20.1705 21.2024 21.8599 21.0089 23.6287C20.867 24.9269 20.8555 26.2687 20.9218 27.5716C20.9435 27.9984 20.9919 29.9661 21.6167 29.3702C21.928 29.0733 21.9257 27.8744 22.0041 27.4685C22.1602 26.6611 22.3104 25.8501 22.5705 25.0685C23.0289 23.6911 23.5697 22.224 24.7118 21.2753C25.4447 20.6666 25.9593 19.8439 26.6607 19.2298C26.9757 18.954 26.7353 18.9827 27.2419 19.0189C27.5821 19.0432 27.9239 19.0525 28.2649 19.0613C29.0537 19.0817 29.8437 19.0765 30.6327 19.0793C32.2217 19.0849 33.8032 19.1072 35.3906 19.0247C36.096 18.988 36.8034 18.9681 37.507 18.9034C37.9 18.8672 38.5974 18.6172 38.9209 18.8082C39.217 18.983 39.5245 19.5537 39.7371 19.7874C40.2394 20.3398 40.8383 20.7617 41.4256 21.2146C42.6504 22.1591 43.2688 23.3452 43.6407 24.8211C44.0113 26.2916 43.9074 27.6557 44.3661 29.1028C44.4468 29.3572 44.6603 29.7958 44.9234 29.4027C44.9723 29.3297 44.9596 28.9284 44.9596 28.6974C44.9596 27.7653 45.1974 27.066 45.1944 26.1278C45.1828 23.2752 45.0898 19.5556 42.9399 17.3756Z" fill="white"/>
</mask>
<g mask="url(#mask5_430_12709)">
<rect x="5.71387" y="9.14285" width="54.8571" height="57.7444" fill="#0C092A"/>
</g>
</g>
</g>
<circle cx="37.5" cy="77.5" r="23.5" fill="#FFD6DD"/>
<mask id="mask6_430_12709" style="mask-type:alpha" maskUnits="userSpaceOnUse" x="14" y="54" width="47" height="47">
<circle cx="37.5" cy="77.5" r="23.5" fill="#C4C4C4"/>
</mask>
<g mask="url(#mask6_430_12709)">
<path fill-rule="evenodd" clip-rule="evenodd" d="M37.5 66.1664C32.7805 66.1664 28.9545 69.9923 28.9545 74.7119V75.5817C28.0885 75.727 27.4285 76.4802 27.4285 77.3875V79.4803C27.4285 80.406 28.1155 81.1713 29.0074 81.2942C29.3409 84.291 31.2242 86.8201 33.8376 88.0616V90.8708C27.3741 91.2187 22.2402 96.57 22.2402 103.12H52.7597C52.7597 96.57 47.6258 91.2187 41.1623 90.8708V88.0616C43.7758 86.8201 45.6591 84.291 45.9926 81.2942C46.8845 81.1713 47.5714 80.406 47.5714 79.4803V77.3875C47.5714 76.4802 46.9115 75.727 46.0454 75.5817V74.7119C46.0454 69.9923 42.2195 66.1664 37.5 66.1664Z" fill="#D0C6AC"/>
<mask id="mask7_430_12709" style="mask-type:alpha" maskUnits="userSpaceOnUse" x="22" y="66" width="31" height="38">
<path fill-rule="evenodd" clip-rule="evenodd" d="M37.5 66.1664C32.7805 66.1664 28.9545 69.9923 28.9545 74.7119V75.5817C28.0885 75.727 27.4285 76.4802 27.4285 77.3875V79.4803C27.4285 80.406 28.1155 81.1713 29.0074 81.2942C29.3409 84.291 31.2242 86.8201 33.8376 88.0616V90.8708C27.3741 91.2187 22.2402 96.57 22.2402 103.12H52.7597C52.7597 96.57 47.6258 91.2187 41.1623 90.8708V88.0616C43.7758 86.8201 45.6591 84.291 45.9926 81.2942C46.8845 81.1713 47.5714 80.406 47.5714 79.4803V77.3875C47.5714 76.4802 46.9115 75.727 46.0454 75.5817V74.7119C46.0454 69.9923 42.2195 66.1664 37.5 66.1664Z" fill="white"/>
</mask>
<g mask="url(#mask7_430_12709)">
<rect width="40.2857" height="36.9538" transform="translate(17.3569 66.1664)" fill="#FFCCD7"/>
<rect x="17.3569" y="66.1664" width="40.2857" height="36.9538" fill="#FFCCD7"/>
<path fill-rule="evenodd" clip-rule="evenodd" d="M28.9546 80.3385V81.5501C28.9546 86.2696 32.7805 90.0956 37.5 90.0956C42.2196 90.0956 46.0455 86.2697 46.0455 81.5501V80.3385C46.0455 85.058 42.2196 88.884 37.5 88.884C32.7805 88.884 28.9546 85.058 28.9546 80.3385Z" fill="black" fill-opacity="0.1"/>
</g>
<path fill-rule="evenodd" clip-rule="evenodd" d="M37.5763 96.4304C41.748 96.4304 45.1299 94.4315 45.1299 91.9657C45.1299 91.8974 45.1273 91.8294 45.1221 91.7619C49.6019 93.5867 52.7597 97.9847 52.7597 103.12H22.2402C22.2402 97.9245 25.4725 93.4836 30.036 91.6987C30.0272 91.787 30.0227 91.8761 30.0227 91.9657C30.0227 94.4315 33.4046 96.4304 37.5763 96.4304Z" fill="#6223A9"/>
<mask id="mask8_430_12709" style="mask-type:alpha" maskUnits="userSpaceOnUse" x="22" y="91" width="31" height="13">
<path fill-rule="evenodd" clip-rule="evenodd" d="M37.5763 96.4304C41.748 96.4304 45.1299 94.4315 45.1299 91.9657C45.1299 91.8974 45.1273 91.8294 45.1221 91.7619C49.6019 93.5867 52.7597 97.9847 52.7597 103.12H22.2402C22.2402 97.9245 25.4725 93.4836 30.036 91.6987C30.0272 91.787 30.0227 91.8761 30.0227 91.9657C30.0227 94.4315 33.4046 96.4304 37.5763 96.4304Z" fill="white"/>
</mask>
<g mask="url(#mask8_430_12709)">
<rect x="17.3569" y="86.4609" width="40.2857" height="16.6595" fill="#6223A9"/>
</g>
<path fill-rule="evenodd" clip-rule="evenodd" d="M35.3633 83.2803C35.3633 84.4513 36.3198 85.4006 37.4996 85.4006V85.4006C38.6795 85.4006 39.636 84.4513 39.636 83.2803" fill="#0C092A"/>
<g opacity="0.3">
<path fill-rule="evenodd" clip-rule="evenodd" d="M35.6685 80.403C35.6685 81.0721 36.4883 81.6146 37.4996 81.6146V81.6146C38.511 81.6146 39.3308 81.0721 39.3308 80.403" fill="#0C092A"/>
</g>
<ellipse cx="33.5318" cy="77.6765" rx="0.915584" ry="0.9087" fill="#0C092A"/>
<ellipse cx="41.4669" cy="77.6765" rx="0.915585" ry="0.9087" fill="#0C092A"/>
<path d="M31.3391 75.7318C31.9366 74.8975 33.5743 74.4296 34.9851 74.7735C35.1488 74.8134 35.3141 74.714 35.3543 74.5516C35.3945 74.3891 35.2944 74.2251 35.1307 74.1852C33.4923 73.7858 31.5958 74.3276 30.8416 75.3808C30.744 75.5172 30.7762 75.7063 30.9136 75.8032C31.051 75.9001 31.2415 75.8681 31.3391 75.7318Z" fill="#0C092A"/>
<path d="M43.6599 75.7318C43.0625 74.8975 41.4247 74.4296 40.0139 74.7735C39.8502 74.8134 39.6849 74.714 39.6447 74.5516C39.6045 74.3891 39.7046 74.2251 39.8683 74.1852C41.5067 73.7858 43.4032 74.3276 44.1574 75.3808C44.2551 75.5172 44.2228 75.7063 44.0854 75.8032C43.9481 75.9001 43.7575 75.8681 43.6599 75.7318Z" fill="#0C092A"/>
<mask id="mask9_430_12709" style="mask-type:alpha" maskUnits="userSpaceOnUse" x="17" y="60" width="41" height="44">
<rect x="17.3569" y="60.7143" width="40.2857" height="42.406" fill="white"/>
</mask>
<g mask="url(#mask9_430_12709)">
<path fill-rule="evenodd" clip-rule="evenodd" d="M23.3081 82.6746C23.214 78.0045 27.6295 68.2558 29.2594 66.318C30.4685 64.8806 33.7908 63.6753 37.4997 63.7433C41.2086 63.8114 44.6507 64.6236 45.8926 66.1665C47.7732 68.5031 51.6712 77.3858 51.6913 82.6746C51.7055 86.4306 50.2358 90.1956 48.1815 90.3986C47.0216 90.5131 45.5482 90.3644 43.7778 90.1857L43.7778 90.1857L43.7777 90.1857C42.9675 90.1039 42.095 90.0158 41.162 89.9438V88.0617C44.0491 86.6902 46.0451 83.7475 46.0451 80.3386V76.0961C44.4416 75.2193 43.0764 74.1608 41.9391 73.0852C42.4511 74.0304 43.0368 74.8886 43.6972 75.5372C39.0303 74.2377 35.8042 71.5764 33.8709 69.4899C32.9821 71.1678 31.3901 73.6217 28.9542 75.491V80.3386C28.9542 83.7475 30.9502 86.6902 33.8373 88.0617V90.0571C32.7764 90.2013 31.7904 90.3842 30.883 90.5525L30.883 90.5525L30.8829 90.5525L30.8828 90.5526L30.8827 90.5526C29.2272 90.8597 27.8335 91.1182 26.7239 91.0044C24.5536 90.7818 23.3838 86.4299 23.3081 82.6746Z" fill="#E6E6E6"/>
<mask id="mask10_430_12709" style="mask-type:alpha" maskUnits="userSpaceOnUse" x="23" y="63" width="29" height="29">
<path fill-rule="evenodd" clip-rule="evenodd" d="M23.3081 82.6746C23.214 78.0045 27.6295 68.2558 29.2594 66.318C30.4685 64.8806 33.7908 63.6753 37.4997 63.7433C41.2086 63.8114 44.6507 64.6236 45.8926 66.1665C47.7732 68.5031 51.6712 77.3858 51.6913 82.6746C51.7055 86.4306 50.2358 90.1956 48.1815 90.3986C47.0216 90.5131 45.5482 90.3644 43.7778 90.1857L43.7778 90.1857L43.7777 90.1857C42.9675 90.1039 42.095 90.0158 41.162 89.9438V88.0617C44.0491 86.6902 46.0451 83.7475 46.0451 80.3386V76.0961C44.4416 75.2193 43.0764 74.1608 41.9391 73.0852C42.4511 74.0304 43.0368 74.8886 43.6972 75.5372C39.0303 74.2377 35.8042 71.5764 33.8709 69.4899C32.9821 71.1678 31.3901 73.6217 28.9542 75.491V80.3386C28.9542 83.7475 30.9502 86.6902 33.8373 88.0617V90.0571C32.7764 90.2013 31.7904 90.3842 30.883 90.5525L30.883 90.5525L30.8829 90.5525L30.8828 90.5526L30.8827 90.5526C29.2272 90.8597 27.8335 91.1182 26.7239 91.0044C24.5536 90.7818 23.3838 86.4299 23.3081 82.6746Z" fill="white"/>
</mask>
<g mask="url(#mask10_430_12709)">
<rect x="17.2041" y="60.7143" width="40.5909" height="42.406" fill="#0C092A"/>
</g>
</g>
</g>
<circle cx="72" cy="59" r="28" fill="#C4D0FB"/>
<mask id="mask11_430_12709" style="mask-type:alpha" maskUnits="userSpaceOnUse" x="44" y="31" width="56" height="56">
<circle cx="72" cy="59" r="28" fill="#C4C4C4"/>
</mask>
<g mask="url(#mask11_430_12709)">
<path fill-rule="evenodd" clip-rule="evenodd" d="M72.0002 45.4962C66.3769 45.4962 61.8184 50.0548 61.8184 55.6781V56.7144C60.7865 56.8875 60.0002 57.7849 60.0002 58.866V61.3595C60.0002 62.4625 60.8186 63.3743 61.8813 63.5208C62.2787 67.0915 64.5226 70.1048 67.6365 71.5841V74.9312C59.9353 75.3458 53.8184 81.7217 53.8184 89.5263H90.182C90.182 81.7217 84.065 75.3458 76.3638 74.9312V71.5841C79.4777 70.1048 81.7217 67.0915 82.119 63.5208C83.1817 63.3743 84.0002 62.4625 84.0002 61.3595V58.866C84.0002 57.7849 83.2139 56.8875 82.182 56.7144V55.6781C82.182 50.0548 77.6234 45.4962 72.0002 45.4962Z" fill="#D0C6AC"/>
<mask id="mask12_430_12709" style="mask-type:alpha" maskUnits="userSpaceOnUse" x="53" y="45" width="38" height="45">
<path fill-rule="evenodd" clip-rule="evenodd" d="M72.0002 45.4962C66.3769 45.4962 61.8184 50.0548 61.8184 55.6781V56.7144C60.7865 56.8875 60.0002 57.7849 60.0002 58.866V61.3595C60.0002 62.4625 60.8186 63.3743 61.8813 63.5208C62.2787 67.0915 64.5226 70.1048 67.6365 71.5841V74.9312C59.9353 75.3458 53.8184 81.7217 53.8184 89.5263H90.182C90.182 81.7217 84.065 75.3458 76.3638 74.9312V71.5841C79.4777 70.1048 81.7217 67.0915 82.119 63.5208C83.1817 63.3743 84.0002 62.4625 84.0002 61.3595V58.866C84.0002 57.7849 83.2139 56.8875 82.182 56.7144V55.6781C82.182 50.0548 77.6234 45.4962 72.0002 45.4962Z" fill="white"/>
</mask>
<g mask="url(#mask12_430_12709)">
<rect x="48" y="45.4962" width="48" height="44.0301" fill="#D08B5B"/>
<path fill-rule="evenodd" clip-rule="evenodd" d="M61.8184 62.3821V63.8257C61.8184 69.449 66.3769 74.0075 72.0002 74.0075C77.6234 74.0075 82.182 69.449 82.182 63.8257V62.3821C82.182 68.0054 77.6234 72.5639 72.0002 72.5639C66.3769 72.5639 61.8184 68.0054 61.8184 62.3821Z" fill="black" fill-opacity="0.1"/>
</g>
<path fill-rule="evenodd" clip-rule="evenodd" d="M72.0911 79.0291C75.455 79.0291 78.182 77.2937 78.182 75.153C78.182 75.1524 78.182 75.1518 78.182 75.1512C85.0054 76.3806 90.182 82.349 90.182 89.5264H53.8184C53.8184 82.2853 59.0873 76.2748 66.0004 75.1196C66.0003 75.1307 66.0002 75.1419 66.0002 75.153C66.0002 77.2937 68.7272 79.0291 72.0911 79.0291Z" fill="#E6E6E6"/>
<mask id="mask13_430_12709" style="mask-type:alpha" maskUnits="userSpaceOnUse" x="53" y="75" width="38" height="15">
<path fill-rule="evenodd" clip-rule="evenodd" d="M72.0911 79.0291C75.455 79.0291 78.182 77.2937 78.182 75.153C78.182 75.1524 78.182 75.1518 78.182 75.1512C85.0054 76.3806 90.182 82.349 90.182 89.5264H53.8184C53.8184 82.2853 59.0873 76.2748 66.0004 75.1196C66.0003 75.1307 66.0002 75.1419 66.0002 75.153C66.0002 77.2937 68.7272 79.0291 72.0911 79.0291Z" fill="white"/>
</mask>
<g mask="url(#mask13_430_12709)">
<rect x="48" y="69.6767" width="48" height="19.8496" fill="#555FA8"/>
<g opacity="0.6">
<ellipse cx="72.0911" cy="75.4236" rx="7.20638" ry="4.85663" fill="black" fill-opacity="0.16"/>
</g>
</g>
<path d="M69.4551 66.0677C69.4551 67.037 70.5747 67.6917 72.0005 67.6917C73.4263 67.6917 74.546 67.037 74.546 66.0677C74.546 65.8683 74.3733 65.7068 74.1824 65.7068C73.9473 65.7068 73.8424 65.8701 73.8187 66.0677C73.5928 66.5978 73.0339 66.9187 72.0005 66.9699C70.9672 66.9187 70.4082 66.5978 70.1824 66.0677C70.1587 65.8701 70.0538 65.7068 69.8187 65.7068C69.6278 65.7068 69.4551 65.8683 69.4551 66.0677Z" fill="black" fill-opacity="0.6"/>
<path fill-rule="evenodd" clip-rule="evenodd" d="M69.8184 62.4586C69.8184 63.2559 70.7952 63.9023 72.0002 63.9023V63.9023C73.2052 63.9023 74.182 63.2559 74.182 62.4586" fill="black" fill-opacity="0.16"/>
<ellipse cx="67.273" cy="59.2105" rx="1.09091" ry="1.08271" fill="black" fill-opacity="0.6"/>
<ellipse cx="76.7276" cy="59.2105" rx="1.09091" ry="1.08271" fill="black" fill-opacity="0.6"/>
<path d="M64.6601 56.8933C65.3719 55.8992 67.3233 55.3418 69.0042 55.7515C69.1993 55.799 69.3962 55.6807 69.4441 55.4871C69.492 55.2935 69.3727 55.0981 69.1777 55.0505C67.2255 54.5747 64.9659 55.2202 64.0673 56.4752C63.9509 56.6376 63.9893 56.8629 64.153 56.9784C64.3167 57.0939 64.5437 57.0558 64.6601 56.8933Z" fill="black" fill-opacity="0.6"/>
<path d="M79.3399 56.8933C78.6281 55.8992 76.6767 55.3418 74.9958 55.7515C74.8008 55.799 74.6038 55.6807 74.5559 55.4871C74.508 55.2935 74.6273 55.0981 74.8223 55.0505C76.7745 54.5747 79.0341 55.2202 79.9327 56.4752C80.0491 56.6376 80.0107 56.8629 79.847 56.9784C79.6833 57.0939 79.4563 57.0558 79.3399 56.8933Z" fill="black" fill-opacity="0.6"/>
<mask id="mask14_430_12709" style="mask-type:alpha" maskUnits="userSpaceOnUse" x="48" y="39" width="48" height="51">
<rect x="48" y="39" width="48" height="50.5263" fill="white"/>
</mask>
<g mask="url(#mask14_430_12709)">
<path fill-rule="evenodd" clip-rule="evenodd" d="M62.0001 56.6842C61.9406 56.9049 61.6995 56.9528 61.6364 56.6842C61.5057 54.8259 61.6364 45.4467 72.0001 45.3158C82.3637 45.1849 82.4945 54.8259 82.3637 56.6842C82.3006 56.9528 82.0596 56.9049 82.0001 56.6842C82.0842 56.4038 81.4008 51.4959 79.6364 50.188C79.3166 49.9672 78.3188 49.7568 76.9745 49.5996L77.6365 48.0226L76.3671 49.5345C75.0885 49.4093 73.5742 49.3311 72.0569 49.33C68.547 49.3276 65.0216 49.7339 64.3637 50.188C62.5993 51.4959 61.9159 56.4038 62.0001 56.6842Z" fill="#28354B"/>
<mask id="mask15_430_12709" style="mask-type:alpha" maskUnits="userSpaceOnUse" x="61" y="45" width="22" height="12">
<path fill-rule="evenodd" clip-rule="evenodd" d="M62.0001 56.6842C61.9406 56.9049 61.6995 56.9528 61.6364 56.6842C61.5057 54.8259 61.6364 45.4467 72.0001 45.3158C82.3637 45.1849 82.4945 54.8259 82.3637 56.6842C82.3006 56.9528 82.0596 56.9049 82.0001 56.6842C82.0842 56.4038 81.4008 51.4959 79.6364 50.188C79.3166 49.9672 78.3188 49.7568 76.9745 49.5996L77.6365 48.0226L76.3671 49.5345C75.0885 49.4093 73.5742 49.3311 72.0569 49.33C68.547 49.3276 65.0216 49.7339 64.3637 50.188C62.5993 51.4959 61.9159 56.4038 62.0001 56.6842Z" fill="white"/>
</mask>
<g mask="url(#mask15_430_12709)">
<rect x="48" y="39" width="48" height="50.5263" fill="#2C1B18"/>
</g>
<g filter="url(#filter0_d_430_12709)">
<path fill-rule="evenodd" clip-rule="evenodd" d="M68.9545 57.0948C69.3857 57.0988 69.5896 57.17 69.663 57.6163C69.7375 58.0684 69.6651 58.5766 69.5793 59.0219C69.4483 59.7019 69.2304 60.368 68.7234 60.865C68.4562 61.1267 68.1304 61.3353 67.7839 61.4778C67.5999 61.5534 67.4056 61.608 67.2113 61.6495C67.1545 61.6616 66.6696 61.7279 66.967 61.6942C66.273 61.7728 65.5202 61.7697 64.9406 61.3313C64.2983 60.8455 63.8584 60.0767 63.665 59.3109C63.5518 58.8628 63.314 57.7912 63.7485 57.4329C64.2462 57.0225 68.9545 57.0948 68.9545 57.0948V57.0948ZM64.5853 55.8705C63.5962 55.9043 62.936 56.0768 62.4482 57.0576C61.554 58.8551 63.0844 61.5508 64.7916 62.2853C66.7874 63.1442 69.017 62.1937 70.0722 60.4747C70.631 59.5646 70.9135 58.1861 70.8953 57.136C70.8721 55.7958 69.9288 55.7586 68.8201 55.7881L64.5853 55.8705Z" fill="#44509F"/>
<path fill-rule="evenodd" clip-rule="evenodd" d="M75.0334 57.0943C74.6022 57.0984 74.3984 57.1695 74.3249 57.6158C74.2505 58.0679 74.3228 58.5762 74.4086 59.0215C74.5397 59.7014 74.7575 60.3676 75.2646 60.8645C75.5317 61.1262 75.8575 61.3348 76.2041 61.4773C76.3881 61.5529 76.5824 61.6076 76.7767 61.649C76.8335 61.6611 77.3183 61.7274 77.0209 61.6937C77.7149 61.7723 78.4678 61.7692 79.0474 61.3308C79.6897 60.845 80.1296 60.0763 80.323 59.3105C80.4362 58.8624 80.6739 57.7908 80.2395 57.4325C79.7418 57.022 75.0334 57.0943 75.0334 57.0943V57.0943ZM79.4026 55.87C80.3918 55.9038 81.0519 56.0764 81.5398 57.0571C82.4338 58.8546 80.9035 61.5503 79.1963 62.2849C77.2005 63.1438 74.9709 62.1933 73.9157 60.4743C73.357 59.5641 73.0745 58.1857 73.0926 57.1356C73.1158 55.7953 74.0591 55.7581 75.1678 55.7877L79.4026 55.87Z" fill="#44509F"/>
<path fill-rule="evenodd" clip-rule="evenodd" d="M62.9453 56.671C62.325 56.7056 61.6161 56.7139 61.035 56.9801C60.4196 57.2619 60.3245 57.9002 61.1003 57.9882C61.4497 58.0278 61.7995 57.9623 62.1436 57.9014C62.4253 57.8515 62.8081 57.8676 63.0744 57.7607C63.5705 57.5616 63.5387 56.6373 62.9453 56.671" fill="#44509F"/>
<path fill-rule="evenodd" clip-rule="evenodd" d="M81.0432 56.671C81.6636 56.7056 82.3725 56.7139 82.9536 56.9801C83.5689 57.2619 83.664 57.9002 82.8882 57.9882C82.5388 58.0278 82.189 57.9623 81.845 57.9014C81.5632 57.8515 81.1805 57.8676 80.9142 57.7607C80.4179 57.5616 80.4499 56.6373 81.0432 56.671" fill="#44509F"/>
<path fill-rule="evenodd" clip-rule="evenodd" d="M73.8382 57.0474C73.4843 56.6324 72.5622 56.3927 71.9804 56.3927C71.3986 56.3927 70.5034 56.6324 70.1496 57.0474C69.9712 57.2567 69.9651 57.5367 70.2744 57.6679C70.6594 57.8313 71.0033 57.5349 71.3115 57.3799C71.7058 57.1817 72.3114 57.2034 72.6763 57.3799C72.9869 57.5302 73.3283 57.8313 73.7135 57.6679C74.0227 57.5367 74.0167 57.2567 73.8382 57.0474" fill="#44509F"/>
</g>
</g>
</g>
<defs>
<filter id="filter0_d_430_12709" x="60.5459" y="55.782" width="22.897" height="8.82471" filterUnits="userSpaceOnUse" color-interpolation-filters="sRGB">
<feFlood flood-opacity="0" result="BackgroundImageFix"/>
<feColorMatrix in="SourceAlpha" type="matrix" values="0 0 0 0 0 0 0 0 0 0 0 0 0 0 0 0 0 0 127 0" result="hardAlpha"/>
<feOffset dy="2"/>
<feColorMatrix type="matrix" values="0 0 0 0 0 0 0 0 0 0 0 0 0 0 0 0 0 0 0.1 0"/>
<feBlend mode="normal" in2="BackgroundImageFix" result="effect1_dropShadow_430_12709"/>
<feBlend mode="normal" in="SourceGraphic" in2="effect1_dropShadow_430_12709" result="shape"/>
</filter>
</defs>
</svg>
