<svg width="284" height="101" viewBox="0 0 284 101" fill="none" xmlns="http://www.w3.org/2000/svg">
<circle cx="216" cy="32" r="32" fill="#FFD6DD"/>
<mask id="mask0_395_11531" style="mask-type:alpha" maskUnits="userSpaceOnUse" x="184" y="0" width="64" height="64">
<circle cx="216" cy="32" r="32" fill="#C4C4C4"/>
</mask>
<g mask="url(#mask0_395_11531)">
<path fill-rule="evenodd" clip-rule="evenodd" d="M217.143 16.5671C210.716 16.5671 205.507 21.7769 205.507 28.2035V29.3879C204.327 29.5857 203.429 30.6114 203.429 31.8469V34.6966C203.429 35.9572 204.364 36.9992 205.579 37.1666C206.033 41.2475 208.597 44.6912 212.156 46.3818V50.2071C203.355 50.6809 196.364 57.9677 196.364 66.8872H237.922C237.922 57.9677 230.931 50.6809 222.13 50.2071V46.3818C225.689 44.6912 228.253 41.2475 228.707 37.1666C229.922 36.9992 230.857 35.9572 230.857 34.6966V31.8469C230.857 30.6114 229.959 29.5857 228.779 29.3879V28.2035C228.779 21.7769 223.57 16.5671 217.143 16.5671Z" fill="#D0C6AC"/>
<mask id="mask1_395_11531" style="mask-type:alpha" maskUnits="userSpaceOnUse" x="196" y="16" width="42" height="51">
<path fill-rule="evenodd" clip-rule="evenodd" d="M217.143 16.5671C210.716 16.5671 205.507 21.7769 205.507 28.2035V29.3879C204.327 29.5857 203.429 30.6114 203.429 31.8469V34.6966C203.429 35.9572 204.364 36.9992 205.579 37.1666C206.033 41.2475 208.597 44.6912 212.156 46.3818V50.2071C203.355 50.6809 196.364 57.9677 196.364 66.8872H237.922C237.922 57.9677 230.931 50.6809 222.13 50.2071V46.3818C225.689 44.6912 228.253 41.2475 228.707 37.1666C229.922 36.9992 230.857 35.9572 230.857 34.6966V31.8469C230.857 30.6114 229.959 29.5857 228.779 29.3879V28.2035C228.779 21.7769 223.57 16.5671 217.143 16.5671Z" fill="white"/>
</mask>
<g mask="url(#mask1_395_11531)">
<rect x="189.714" y="16.5671" width="54.8571" height="50.3201" fill="#FFBF75"/>
<path fill-rule="evenodd" clip-rule="evenodd" d="M205.507 35.8653V37.5151C205.507 43.9417 210.717 49.1515 217.143 49.1515C223.57 49.1515 228.78 43.9417 228.78 37.5151V35.8653C228.78 42.2919 223.57 47.5016 217.143 47.5016C210.717 47.5016 205.507 42.2918 205.507 35.8653Z" fill="black" fill-opacity="0.1"/>
</g>
<path fill-rule="evenodd" clip-rule="evenodd" d="M212.156 47.2324C208.503 48.0937 205.897 49.8719 205.547 51.9677C200.099 54.7195 196.364 60.3671 196.364 66.8872H237.922C237.922 60.3671 234.187 54.7195 228.739 51.9677C228.389 49.8719 225.783 48.0937 222.13 47.2324V50.7638C222.13 53.5181 219.897 55.7508 217.143 55.7508C214.389 55.7508 212.156 53.5181 212.156 50.7638V47.2324Z" fill="#B7C1DB"/>
<mask id="mask2_395_11531" style="mask-type:alpha" maskUnits="userSpaceOnUse" x="196" y="47" width="42" height="20">
<path fill-rule="evenodd" clip-rule="evenodd" d="M212.156 47.2324C208.503 48.0937 205.897 49.8719 205.547 51.9677C200.099 54.7195 196.364 60.3671 196.364 66.8872H237.922C237.922 60.3671 234.187 54.7195 228.739 51.9677C228.389 49.8719 225.783 48.0937 222.13 47.2324V50.7638C222.13 53.5181 219.897 55.7508 217.143 55.7508C214.389 55.7508 212.156 53.5181 212.156 50.7638V47.2324Z" fill="white"/>
</mask>
<g mask="url(#mask2_395_11531)">
<rect x="189.714" y="44.202" width="54.8571" height="22.6853" fill="#FF6990"/>
<path fill-rule="evenodd" clip-rule="evenodd" d="M210.909 57.2638C210.396 57.0902 209.909 56.8959 209.455 56.6829V66.8872H210.909V57.2638ZM223.377 57.2638C223.89 57.0902 224.376 56.8959 224.831 56.6829V64.5101C224.831 64.9118 224.506 65.2374 224.104 65.2374C223.702 65.2374 223.377 64.9118 223.377 64.5101V57.2638Z" fill="#F4F4F4"/>
<path fill-rule="evenodd" clip-rule="evenodd" d="M217.143 58.2256C223.569 58.2256 228.779 55.4556 228.779 52.0387C228.779 50.0046 226.933 48.1999 224.083 47.0722C228.196 48.1082 230.961 50.0368 230.961 52.2449C230.961 55.548 224.774 58.2256 217.143 58.2256ZM210.203 47.0722C207.353 48.1999 205.507 50.0046 205.507 52.0387C205.507 55.4556 210.716 58.2256 217.143 58.2256C209.511 58.2256 203.325 55.548 203.325 52.2449C203.325 50.0368 206.09 48.1082 210.203 47.0722Z" fill="black" fill-opacity="0.16"/>
</g>
<path fill-rule="evenodd" clip-rule="evenodd" d="M214.233 39.8711C214.233 41.4657 215.536 42.7583 217.142 42.7583V42.7583C218.749 42.7583 220.052 41.4657 220.052 39.8711" fill="#0C092A"/>
<g opacity="0.3">
<path fill-rule="evenodd" clip-rule="evenodd" d="M214.649 35.9527C214.649 36.8639 215.766 37.6026 217.143 37.6026V37.6026C218.52 37.6026 219.636 36.8639 219.636 35.9527" fill="#0C092A"/>
</g>
<ellipse cx="211.74" cy="32.2406" rx="1.24675" ry="1.23738" fill="#0C092A"/>
<ellipse cx="222.545" cy="32.2406" rx="1.24675" ry="1.23738" fill="#0C092A"/>
<path d="M208.754 29.5923C209.568 28.4563 211.798 27.8192 213.719 28.2874C213.942 28.3418 214.167 28.2065 214.222 27.9853C214.277 27.764 214.14 27.5407 213.917 27.4863C211.686 26.9426 209.104 27.6803 208.077 29.1145C207.944 29.3002 207.988 29.5577 208.175 29.6896C208.362 29.8216 208.621 29.778 208.754 29.5923Z" fill="#0C092A"/>
<path d="M225.531 29.5923C224.718 28.4563 222.488 27.8192 220.567 28.2874C220.344 28.3418 220.119 28.2065 220.064 27.9853C220.009 27.764 220.145 27.5407 220.368 27.4863C222.599 26.9426 225.182 27.6803 226.209 29.1145C226.342 29.3002 226.298 29.5577 226.111 29.6896C225.924 29.8216 225.664 29.778 225.531 29.5923Z" fill="#0C092A"/>
<mask id="mask3_395_11531" style="mask-type:alpha" maskUnits="userSpaceOnUse" x="189" y="9" width="56" height="58">
<rect x="189.714" y="9.14288" width="54.8571" height="57.7444" fill="white"/>
</mask>
<g mask="url(#mask3_395_11531)">
<path fill-rule="evenodd" clip-rule="evenodd" d="M211.646 38.3612C211.984 38.16 212.312 37.9647 212.652 37.836C213.73 37.4271 215.731 37.5431 217.142 38.2826C218.554 37.5431 220.555 37.4271 221.633 37.836C221.973 37.9647 222.301 38.16 222.639 38.3612C223.496 38.8711 224.416 39.4182 225.737 39.0108C225.814 38.9872 225.889 39.0555 225.866 39.1305C225.58 40.0605 223.994 40.6975 223.455 40.7184C222.165 40.7682 221.013 40.252 219.896 39.7519C218.973 39.3383 218.074 38.9357 217.142 38.8733C216.211 38.9357 215.312 39.3383 214.389 39.7519C213.272 40.252 212.12 40.7682 210.83 40.7184C210.291 40.6975 208.705 40.0605 208.419 39.1305C208.396 39.0555 208.471 38.9872 208.548 39.0108C209.869 39.4182 210.789 38.8711 211.646 38.3612Z" fill="#28354B"/>
<mask id="mask4_395_11531" style="mask-type:alpha" maskUnits="userSpaceOnUse" x="208" y="37" width="18" height="4">
<path fill-rule="evenodd" clip-rule="evenodd" d="M211.646 38.3612C211.984 38.16 212.312 37.9647 212.652 37.836C213.73 37.4271 215.731 37.5431 217.142 38.2826C218.554 37.5431 220.555 37.4271 221.633 37.836C221.973 37.9647 222.301 38.16 222.639 38.3612C223.496 38.8711 224.416 39.4182 225.737 39.0108C225.814 38.9872 225.889 39.0555 225.866 39.1305C225.58 40.0605 223.994 40.6975 223.455 40.7184C222.165 40.7682 221.013 40.252 219.896 39.7519C218.973 39.3383 218.074 38.9357 217.142 38.8733C216.211 38.9357 215.312 39.3383 214.389 39.7519C213.272 40.252 212.12 40.7682 210.83 40.7184C210.291 40.6975 208.705 40.0605 208.419 39.1305C208.396 39.0555 208.471 38.9872 208.548 39.0108C209.869 39.4182 210.789 38.8711 211.646 38.3612Z" fill="white"/>
</mask>
<g mask="url(#mask4_395_11531)">
<rect x="199.688" y="23.9915" width="34.9091" height="31.347" fill="#0C092A"/>
</g>
<path fill-rule="evenodd" clip-rule="evenodd" d="M226.94 17.3757C226.366 16.7941 225.701 16.3005 225.053 15.8055C224.91 15.6964 224.765 15.5899 224.625 15.4766C224.593 15.4509 224.268 15.2196 224.229 15.1345C224.136 14.9298 224.19 15.0892 224.203 14.8449C224.219 14.5359 224.854 13.6633 224.38 13.4632C224.172 13.3752 223.8 13.6094 223.6 13.6868C223.209 13.8382 222.814 13.9673 222.409 14.0786C222.603 13.6957 222.972 12.9292 222.278 13.1343C221.738 13.2942 221.234 13.7051 220.691 13.8984C220.87 13.606 221.589 12.6999 220.94 12.6493C220.738 12.6335 220.15 13.0098 219.932 13.09C219.28 13.3305 218.614 13.4859 217.93 13.6083C215.603 14.0245 212.882 13.9058 210.729 14.9572C209.07 15.7678 207.431 17.0254 206.472 18.6269C205.548 20.1705 205.202 21.8599 205.009 23.6288C204.867 24.9269 204.855 26.2688 204.922 27.5716C204.944 27.9985 204.992 29.9661 205.617 29.3702C205.928 29.0733 205.926 27.8744 206.004 27.4686C206.16 26.6611 206.31 25.8501 206.571 25.0685C207.029 23.6912 207.57 22.224 208.712 21.2753C209.445 20.6667 209.959 19.8439 210.661 19.2299C210.976 18.954 210.735 18.9828 211.242 19.0189C211.582 19.0432 211.924 19.0525 212.265 19.0614C213.054 19.0817 213.844 19.0765 214.633 19.0793C216.222 19.085 217.803 19.1072 219.391 19.0247C220.096 18.988 220.803 18.9682 221.507 18.9034C221.9 18.8672 222.597 18.6172 222.921 18.8083C223.217 18.983 223.524 19.5537 223.737 19.7875C224.239 20.3399 224.838 20.7617 225.426 21.2147C226.65 22.1591 227.269 23.3453 227.641 24.8212C228.011 26.2916 227.907 27.6558 228.366 29.1028C228.447 29.3572 228.66 29.7958 228.923 29.4027C228.972 29.3297 228.96 28.9284 228.96 28.6975C228.96 27.7654 229.197 27.066 229.194 26.1278C229.183 23.2752 229.09 19.5556 226.94 17.3757Z" fill="#0C092A"/>
<mask id="mask5_395_11531" style="mask-type:alpha" maskUnits="userSpaceOnUse" x="204" y="12" width="26" height="18">
<path fill-rule="evenodd" clip-rule="evenodd" d="M226.94 17.3757C226.366 16.7941 225.701 16.3005 225.053 15.8055C224.91 15.6964 224.765 15.5899 224.625 15.4766C224.593 15.4509 224.268 15.2196 224.229 15.1345C224.136 14.9298 224.19 15.0892 224.203 14.8449C224.219 14.5359 224.854 13.6633 224.38 13.4632C224.172 13.3752 223.8 13.6094 223.6 13.6868C223.209 13.8382 222.814 13.9673 222.409 14.0786C222.603 13.6957 222.972 12.9292 222.278 13.1343C221.738 13.2942 221.234 13.7051 220.691 13.8984C220.87 13.606 221.589 12.6999 220.94 12.6493C220.738 12.6335 220.15 13.0098 219.932 13.09C219.28 13.3305 218.614 13.4859 217.93 13.6083C215.603 14.0245 212.882 13.9058 210.729 14.9572C209.07 15.7678 207.431 17.0254 206.472 18.6269C205.548 20.1705 205.202 21.8599 205.009 23.6288C204.867 24.9269 204.855 26.2688 204.922 27.5716C204.944 27.9985 204.992 29.9661 205.617 29.3702C205.928 29.0733 205.926 27.8744 206.004 27.4686C206.16 26.6611 206.31 25.8501 206.571 25.0685C207.029 23.6912 207.57 22.224 208.712 21.2753C209.445 20.6667 209.959 19.8439 210.661 19.2299C210.976 18.954 210.735 18.9828 211.242 19.0189C211.582 19.0432 211.924 19.0525 212.265 19.0614C213.054 19.0817 213.844 19.0765 214.633 19.0793C216.222 19.085 217.803 19.1072 219.391 19.0247C220.096 18.988 220.803 18.9682 221.507 18.9034C221.9 18.8672 222.597 18.6172 222.921 18.8083C223.217 18.983 223.524 19.5537 223.737 19.7875C224.239 20.3399 224.838 20.7617 225.426 21.2147C226.65 22.1591 227.269 23.3453 227.641 24.8212C228.011 26.2916 227.907 27.6558 228.366 29.1028C228.447 29.3572 228.66 29.7958 228.923 29.4027C228.972 29.3297 228.96 28.9284 228.96 28.6975C228.96 27.7654 229.197 27.066 229.194 26.1278C229.183 23.2752 229.09 19.5556 226.94 17.3757Z" fill="white"/>
</mask>
<g mask="url(#mask5_395_11531)">
<rect x="189.714" y="9.14288" width="54.8571" height="57.7444" fill="#0C092A"/>
</g>
</g>
</g>
<g clip-path="url(#clip0_395_11531)">
<rect y="16" width="64" height="64" rx="32" fill="#C4D0FB"/>
<circle cx="32" cy="48" r="32" fill="#C4D0FB"/>
<path fill-rule="evenodd" clip-rule="evenodd" d="M32.0003 31.8546C25.2524 31.8546 19.7821 37.3248 19.7821 44.0727V45.418C18.5439 45.6258 17.6003 46.7027 17.6003 48V51.0546C17.6003 52.375 18.5778 53.4672 19.8487 53.6468C20.2997 57.9681 23.0031 61.6194 26.764 63.406V67.4512C17.5117 68.0147 10.1821 75.6968 10.1821 85.0908H53.8185C53.8185 75.6968 46.489 68.0147 37.2367 67.4512V63.406C40.9976 61.6194 43.7009 57.9681 44.1519 53.6468C45.4228 53.4672 46.4003 52.375 46.4003 51.0546V48C46.4003 46.7027 45.4568 45.6258 44.2185 45.418V44.0727C44.2185 37.3248 38.7482 31.8546 32.0003 31.8546Z" fill="#D0C6AC"/>
<mask id="mask6_395_11531" style="mask-type:alpha" maskUnits="userSpaceOnUse" x="10" y="31" width="44" height="55">
<path fill-rule="evenodd" clip-rule="evenodd" d="M32.0003 31.8546C25.2524 31.8546 19.7821 37.3248 19.7821 44.0727V45.418C18.5439 45.6258 17.6003 46.7027 17.6003 48V51.0546C17.6003 52.375 18.5778 53.4672 19.8487 53.6468C20.2997 57.9681 23.0031 61.6194 26.764 63.406V67.4512C17.5117 68.0147 10.1821 75.6968 10.1821 85.0908H53.8185C53.8185 75.6968 46.489 68.0147 37.2367 67.4512V63.406C40.9976 61.6194 43.7009 57.9681 44.1519 53.6468C45.4228 53.4672 46.4003 52.375 46.4003 51.0546V48C46.4003 46.7027 45.4568 45.6258 44.2185 45.418V44.0727C44.2185 37.3248 38.7482 31.8546 32.0003 31.8546Z" fill="white"/>
</mask>
<g mask="url(#mask6_395_11531)">
<rect x="3.2002" y="31.8546" width="57.6" height="53.2364" fill="#FFCCD7"/>
<path fill-rule="evenodd" clip-rule="evenodd" d="M19.7822 52.3637V54.1094C19.7822 60.8573 25.2525 66.3275 32.0004 66.3275C38.7483 66.3275 44.2186 60.8573 44.2186 54.1094V52.3637C44.2186 59.1117 38.7483 64.5819 32.0004 64.5819C25.2525 64.5819 19.7822 59.1117 19.7822 52.3637Z" fill="black" fill-opacity="0.1"/>
</g>
<path fill-rule="evenodd" clip-rule="evenodd" d="M32.0003 73.5385C35.2538 73.5385 37.8912 71.0964 37.8912 68.0839C37.8912 67.8902 37.8803 67.6989 37.859 67.5103C46.8147 68.3667 53.8185 75.9108 53.8185 85.0908H10.1821C10.1821 75.9108 17.186 68.3667 26.1416 67.5103C26.1203 67.6989 26.1094 67.8902 26.1094 68.0839C26.1094 71.0964 28.7468 73.5385 32.0003 73.5385Z" fill="#909292"/>
<mask id="mask7_395_11531" style="mask-type:alpha" maskUnits="userSpaceOnUse" x="10" y="67" width="44" height="19">
<path fill-rule="evenodd" clip-rule="evenodd" d="M32.0003 73.5385C35.2538 73.5385 37.8912 71.0964 37.8912 68.0839C37.8912 67.8902 37.8803 67.6989 37.859 67.5103C46.8147 68.3667 53.8185 75.9108 53.8185 85.0908H10.1821C10.1821 75.9108 17.186 68.3667 26.1416 67.5103C26.1203 67.6989 26.1094 67.8902 26.1094 68.0839C26.1094 71.0964 28.7468 73.5385 32.0003 73.5385Z" fill="white"/>
</mask>
<g mask="url(#mask7_395_11531)">
<rect x="3.2002" y="61.0908" width="57.6" height="24" fill="#909292"/>
</g>
<path fill-rule="evenodd" clip-rule="evenodd" d="M38.9032 85.0909C39.6453 82.4553 40.073 79.3547 40.073 76.0365C40.073 73.0033 39.7156 70.152 39.0875 67.6715C47.447 69.0674 53.8185 76.3351 53.8185 85.0909H38.9032ZM25.3156 85.0909H10.1821C10.1821 76.2559 16.6695 68.936 25.1406 67.635C24.5067 70.1241 24.1458 72.9885 24.1458 76.0365C24.1458 79.3547 24.5736 82.4553 25.3156 85.0909Z" fill="#0C1626"/>
<path fill-rule="evenodd" clip-rule="evenodd" d="M42.6914 79.8544L43.3195 79.3834C44.4944 78.5022 46.1139 78.5164 47.2732 79.4181V79.4181L42.6914 79.8544Z" fill="#E6E6E6"/>
<path fill-rule="evenodd" clip-rule="evenodd" d="M25.2368 67.2C23.9277 73.5273 26.3277 85.0909 26.3277 85.0909H22.8368L19.7822 77.2363L21.0913 75.2727L19.7822 73.9636L23.9277 67.4182C23.9277 67.4182 24.5913 67.2117 25.2368 67.2Z" fill="#0C092A"/>
<path fill-rule="evenodd" clip-rule="evenodd" d="M38.7637 67.2C40.0728 73.5273 37.6728 85.0909 37.6728 85.0909H41.1637L44.2183 77.2363L42.9092 75.2727L44.2183 73.9636L40.0728 67.4182C40.0728 67.4182 39.4092 67.2117 38.7637 67.2Z" fill="#0C092A"/>
<path fill-rule="evenodd" clip-rule="evenodd" d="M26.7638 65.7902C25.2862 66.7932 24.3638 68.2158 24.3638 69.7936C24.3638 71.4083 25.3299 72.8605 26.8684 73.8667L28.1647 72.8456L29.1638 72.9179L28.9456 72.2304L28.9625 72.217C27.6316 71.5314 26.7638 70.4072 26.7638 69.1366C26.7638 69.1366 26.7638 69.1366 26.7638 69.1366V65.7902ZM37.2365 69.1366C37.2365 69.1366 37.2365 69.1366 37.2365 69.1366C37.2365 70.4072 36.3687 71.5314 35.0377 72.217L35.0547 72.2304L34.8365 72.9179L35.8356 72.8456L37.1318 73.8667C38.6704 72.8605 39.6365 71.4083 39.6365 69.7936C39.6365 68.2158 38.7141 66.7932 37.2365 65.7902V69.1366Z" fill="#0C092A"/>
<path d="M28.9458 56.7272C28.9458 57.8992 30.2894 58.6909 32.0003 58.6909C33.7113 58.6909 35.0549 57.8992 35.0549 56.7272C35.0549 56.4862 34.8477 56.2909 34.6185 56.2909C34.3365 56.2909 34.2106 56.4884 34.1822 56.7272C33.9111 57.3682 33.2403 57.7562 32.0003 57.8181C30.7604 57.7562 30.0896 57.3682 29.8185 56.7272C29.7901 56.4884 29.6642 56.2909 29.3822 56.2909C29.153 56.2909 28.9458 56.4862 28.9458 56.7272Z" fill="#0C092A"/>
<path fill-rule="evenodd" clip-rule="evenodd" d="M29.3818 52.3636C29.3818 53.3275 30.554 54.109 32 54.109V54.109C33.446 54.109 34.6182 53.3275 34.6182 52.3636" fill="black" fill-opacity="0.16"/>
<ellipse cx="26.3276" cy="48.4362" rx="1.30909" ry="1.30909" fill="#0C092A"/>
<ellipse cx="37.6733" cy="48.4362" rx="1.30909" ry="1.30909" fill="#0C092A"/>
<path d="M23.1925 45.6344C24.0466 44.4325 26.3883 43.7585 28.4054 44.2539C28.6395 44.3114 28.8758 44.1682 28.9333 43.9342C28.9908 43.7001 28.8476 43.4638 28.6136 43.4063C26.2711 42.8311 23.5594 43.6115 22.4811 45.1289C22.3415 45.3253 22.3876 45.5977 22.584 45.7373C22.7805 45.8769 23.0529 45.8309 23.1925 45.6344Z" fill="#0C092A"/>
<path d="M40.8085 45.6344C39.9543 44.4325 37.6126 43.7585 35.5955 44.2539C35.3615 44.3114 35.1252 44.1682 35.0677 43.9342C35.0102 43.7001 35.1534 43.4638 35.3874 43.4063C37.7299 42.8311 40.4415 43.6115 41.5199 45.1289C41.6595 45.3253 41.6134 45.5977 41.417 45.7373C41.2205 45.8769 40.9481 45.8309 40.8085 45.6344Z" fill="#0C092A"/>
<mask id="mask8_395_11531" style="mask-type:alpha" maskUnits="userSpaceOnUse" x="3" y="24" width="58" height="62">
<rect x="3.2002" y="24" width="57.6" height="61.0909" fill="white"/>
</mask>
<g mask="url(#mask8_395_11531)">
<path fill-rule="evenodd" clip-rule="evenodd" d="M32.1103 60.1835C29.5988 60.266 28.4784 61.4665 27.6347 60.2465C27.0014 59.3307 27.2664 57.7907 27.8581 56.9243C28.7 55.6912 29.8422 56.2876 31.1193 56.1469C31.4666 56.1087 31.8154 56.0123 32.1103 55.8546C32.4052 56.0123 32.754 56.1087 33.1013 56.1469C34.3784 56.2876 35.5205 55.6912 36.3626 56.9243C36.9542 57.7907 37.2192 59.3307 36.5859 60.2465C35.7422 61.4665 34.6219 60.101 32.1103 60.1835ZM44.3037 45.3819C43.5565 48.4527 43.2132 51.5856 42.6714 54.6919C42.5585 55.3395 42.4349 55.9847 42.3037 56.6291C42.2762 56.7644 42.249 57.2668 42.1157 57.3304C41.7118 57.5233 40.8887 56.4975 40.6686 56.2659C40.1159 55.6843 39.5678 55.0973 38.8946 54.6409C37.5343 53.7187 35.9417 53.1733 34.2846 53.0439C33.5912 52.9897 32.6536 53.0842 32.0002 53.4787C31.3467 53.0842 30.4092 52.9897 29.7158 53.0439C28.0586 53.1733 26.466 53.7187 25.1057 54.6409C24.4325 55.0973 23.8845 55.6843 23.3317 56.2659C23.1116 56.4975 22.2885 57.5233 21.8846 57.3304C21.7513 57.2668 21.7241 56.7644 21.6966 56.6291C21.5654 55.9847 21.4418 55.3395 21.3289 54.6919C20.7872 51.5856 20.4439 48.4527 19.6967 45.3819C19.4793 45.3819 19.2886 49.4723 19.2643 49.8534C19.1656 51.4013 19.0503 52.9147 19.1976 54.4639C19.4516 57.1364 19.7164 60.4875 21.7527 62.5282C23.5927 64.3723 26.2642 64.7578 28.5685 65.9218C28.8651 66.0717 29.2587 66.2567 29.683 66.4083C30.1301 66.7493 31.0168 66.9819 32.0381 66.9819C33.1095 66.9819 34.0326 66.7261 34.4556 66.3574C34.8267 66.2166 35.1677 66.0552 35.4319 65.9218C37.7359 64.7576 40.4076 64.3723 42.2476 62.5282C44.2839 60.4875 44.5487 57.1364 44.8028 54.4639C44.95 52.9147 44.8347 51.4013 44.7361 49.8534C44.7117 49.4723 44.521 45.3819 44.3037 45.3819Z" fill="#0C092A"/>
<mask id="mask9_395_11531" style="mask-type:alpha" maskUnits="userSpaceOnUse" x="19" y="45" width="26" height="22">
<path fill-rule="evenodd" clip-rule="evenodd" d="M32.1103 60.1835C29.5988 60.266 28.4784 61.4665 27.6347 60.2465C27.0014 59.3307 27.2664 57.7907 27.8581 56.9243C28.7 55.6912 29.8422 56.2876 31.1193 56.1469C31.4666 56.1087 31.8154 56.0123 32.1103 55.8546C32.4052 56.0123 32.754 56.1087 33.1013 56.1469C34.3784 56.2876 35.5205 55.6912 36.3626 56.9243C36.9542 57.7907 37.2192 59.3307 36.5859 60.2465C35.7422 61.4665 34.6219 60.101 32.1103 60.1835ZM44.3037 45.3819C43.5565 48.4527 43.2132 51.5856 42.6714 54.6919C42.5585 55.3395 42.4349 55.9847 42.3037 56.6291C42.2762 56.7644 42.249 57.2668 42.1157 57.3304C41.7118 57.5233 40.8887 56.4975 40.6686 56.2659C40.1159 55.6843 39.5678 55.0973 38.8946 54.6409C37.5343 53.7187 35.9417 53.1733 34.2846 53.0439C33.5912 52.9897 32.6536 53.0842 32.0002 53.4787C31.3467 53.0842 30.4092 52.9897 29.7158 53.0439C28.0586 53.1733 26.466 53.7187 25.1057 54.6409C24.4325 55.0973 23.8845 55.6843 23.3317 56.2659C23.1116 56.4975 22.2885 57.5233 21.8846 57.3304C21.7513 57.2668 21.7241 56.7644 21.6966 56.6291C21.5654 55.9847 21.4418 55.3395 21.3289 54.6919C20.7872 51.5856 20.4439 48.4527 19.6967 45.3819C19.4793 45.3819 19.2886 49.4723 19.2643 49.8534C19.1656 51.4013 19.0503 52.9147 19.1976 54.4639C19.4516 57.1364 19.7164 60.4875 21.7527 62.5282C23.5927 64.3723 26.2642 64.7578 28.5685 65.9218C28.8651 66.0717 29.2587 66.2567 29.683 66.4083C30.1301 66.7493 31.0168 66.9819 32.0381 66.9819C33.1095 66.9819 34.0326 66.7261 34.4556 66.3574C34.8267 66.2166 35.1677 66.0552 35.4319 65.9218C37.7359 64.7576 40.4076 64.3723 42.2476 62.5282C44.2839 60.4875 44.5487 57.1364 44.8028 54.4639C44.95 52.9147 44.8347 51.4013 44.7361 49.8534C44.7117 49.4723 44.521 45.3819 44.3037 45.3819Z" fill="white"/>
</mask>
<g mask="url(#mask9_395_11531)">
<rect x="13.6729" y="39.7092" width="36.6546" height="33.1637" fill="#0C092A"/>
</g>
<path fill-rule="evenodd" clip-rule="evenodd" d="M23.5462 35.3501C23.5731 35.3382 23.5065 35.3337 23.3464 35.3364C23.5409 35.336 23.6075 35.3406 23.5462 35.3501M21.7712 31.9202C21.7708 31.9159 21.7749 31.9532 21.7712 31.9202ZM45.2579 39.4397C45.2003 38.716 45.0982 37.9967 44.9266 37.2896C44.7904 36.7276 44.6042 36.1914 44.3841 35.6552C44.2512 35.3313 43.9406 34.8863 43.9042 34.5369C43.8682 34.1927 44.1368 33.8114 44.1941 33.4106C44.2498 33.0206 44.2403 32.6105 44.1603 32.224C43.9785 31.3463 43.3762 30.5301 42.446 30.3013C42.2384 30.2502 41.7994 30.3132 41.6526 30.1923C41.4844 30.0536 41.3672 29.5812 41.2149 29.3917C40.7806 28.8515 40.1033 28.5036 39.389 28.6249C38.863 28.7141 39.165 28.8229 38.7707 28.5133C38.5514 28.3412 38.3876 28.0784 38.1747 27.8921C37.8545 27.6122 37.4873 27.3726 37.1073 27.176C36.1131 26.6615 34.9792 26.2875 33.8686 26.1053C31.8428 25.7727 29.6806 26.0626 27.7169 26.5895C26.7398 26.8516 25.7561 27.1843 24.8485 27.6243C24.4594 27.813 24.2348 27.9694 23.8291 28.0189C23.1901 28.0967 22.6489 28.0928 22.0436 28.3638C20.1811 29.1977 19.3423 31.1322 20.067 32.9836C20.2128 33.3559 20.4102 33.6829 20.6823 33.9836C21.0141 34.3503 21.1341 34.2781 20.8483 34.6998C20.421 35.3304 20.0607 36.0027 19.7674 36.7009C18.9974 38.534 18.8686 40.5986 18.9187 42.5535C18.9362 43.2379 18.9656 43.9307 19.0735 44.6085C19.1201 44.9019 19.1332 45.4536 19.3533 45.6713C19.4649 45.7817 19.624 45.8433 19.7827 45.7993C20.1557 45.696 20.0274 45.4207 20.0361 45.1652C20.0797 43.8815 20.0208 42.7459 20.3261 41.4777C20.5516 40.5407 20.9275 39.6897 21.4145 38.8519C22.0338 37.7862 22.7024 36.8503 23.5542 35.9379C23.7544 35.7233 23.7982 35.6323 24.0667 35.6168C24.27 35.605 24.5675 35.7443 24.7651 35.7925C25.201 35.8987 25.6377 36.0037 26.0815 36.0753C26.8975 36.2068 27.7055 36.2156 28.5288 36.1898C30.1491 36.1392 31.7764 36.0255 33.3474 35.6175C34.3907 35.3465 35.3157 34.8602 36.315 34.5037C36.3329 34.4973 36.5833 34.3189 36.6272 34.3261C36.6885 34.3362 37.0586 34.7245 37.1211 34.7734C37.6066 35.1542 38.1393 35.3141 38.6637 35.609C39.3102 35.9726 38.6841 35.4523 39.0407 35.9054C39.1446 36.0374 39.1979 36.2821 39.2813 36.4316C39.5465 36.9078 39.9156 37.3264 40.3571 37.6585C40.7837 37.9794 41.4247 38.1344 41.6422 38.552C41.81 38.8743 41.8665 39.3122 42.0018 39.6562C42.3569 40.5584 42.8258 41.3998 43.2947 42.2496C43.6725 42.9344 44.0857 43.5327 44.1277 44.3152C44.1423 44.5876 43.8831 46.2216 44.5145 45.7247C44.6081 45.651 44.8099 44.8179 44.8513 44.6765C45.0196 44.1021 45.0794 43.5025 45.1556 42.9123C45.3071 41.7386 45.3569 40.6218 45.2579 39.4397" fill="#28354B"/>
<mask id="mask10_395_11531" style="mask-type:alpha" maskUnits="userSpaceOnUse" x="18" y="25" width="28" height="21">
<path fill-rule="evenodd" clip-rule="evenodd" d="M23.5462 35.3501C23.5731 35.3382 23.5065 35.3337 23.3464 35.3364C23.5409 35.336 23.6075 35.3406 23.5462 35.3501M21.7712 31.9202C21.7708 31.9159 21.7749 31.9532 21.7712 31.9202ZM45.2579 39.4397C45.2003 38.716 45.0982 37.9967 44.9266 37.2896C44.7904 36.7276 44.6042 36.1914 44.3841 35.6552C44.2512 35.3313 43.9406 34.8863 43.9042 34.5369C43.8682 34.1927 44.1368 33.8114 44.1941 33.4106C44.2498 33.0206 44.2403 32.6105 44.1603 32.224C43.9785 31.3463 43.3761 30.5301 42.446 30.3013C42.2384 30.2502 41.7994 30.3132 41.6526 30.1923C41.4844 30.0536 41.3672 29.5812 41.2149 29.3917C40.7806 28.8515 40.1033 28.5036 39.389 28.6249C38.863 28.7141 39.165 28.8229 38.7707 28.5133C38.5514 28.3412 38.3876 28.0784 38.1746 27.8921C37.8545 27.6122 37.4873 27.3726 37.1073 27.176C36.1131 26.6615 34.9792 26.2875 33.8686 26.1053C31.8428 25.7727 29.6806 26.0626 27.7169 26.5895C26.7398 26.8516 25.7561 27.1843 24.8485 27.6243C24.4594 27.813 24.2348 27.9694 23.8291 28.0189C23.1901 28.0967 22.6489 28.0928 22.0436 28.3638C20.1811 29.1977 19.3423 31.1322 20.067 32.9836C20.2128 33.3559 20.4102 33.6829 20.6823 33.9836C21.0141 34.3503 21.1341 34.2781 20.8483 34.6998C20.421 35.3304 20.0607 36.0027 19.7674 36.7009C18.9974 38.534 18.8686 40.5986 18.9187 42.5535C18.9362 43.2379 18.9656 43.9307 19.0735 44.6085C19.1201 44.9019 19.1332 45.4536 19.3533 45.6713C19.4649 45.7817 19.624 45.8433 19.7827 45.7993C20.1557 45.696 20.0274 45.4207 20.0361 45.1652C20.0797 43.8815 20.0208 42.7459 20.3261 41.4777C20.5516 40.5407 20.9275 39.6897 21.4145 38.8519C22.0338 37.7862 22.7024 36.8503 23.5542 35.9379C23.7544 35.7233 23.7982 35.6323 24.0667 35.6168C24.27 35.605 24.5675 35.7443 24.7651 35.7925C25.201 35.8987 25.6377 36.0037 26.0815 36.0753C26.8975 36.2068 27.7055 36.2156 28.5288 36.1898C30.1491 36.1392 31.7764 36.0255 33.3474 35.6175C34.3907 35.3465 35.3157 34.8602 36.315 34.5037C36.3329 34.4973 36.5833 34.3189 36.6272 34.3261C36.6885 34.3362 37.0586 34.7245 37.121 34.7734C37.6066 35.1542 38.1393 35.3141 38.6637 35.609C39.3102 35.9726 38.6841 35.4523 39.0407 35.9054C39.1446 36.0374 39.1979 36.2821 39.2813 36.4316C39.5465 36.9078 39.9156 37.3264 40.3571 37.6585C40.7837 37.9794 41.4247 38.1344 41.6422 38.552C41.81 38.8743 41.8665 39.3122 42.0018 39.6562C42.3569 40.5584 42.8258 41.3998 43.2947 42.2496C43.6725 42.9344 44.0857 43.5327 44.1277 44.3152C44.1423 44.5876 43.8831 46.2216 44.5145 45.7247C44.6081 45.651 44.8098 44.8179 44.8513 44.6765C45.0196 44.1021 45.0794 43.5025 45.1556 42.9123C45.3071 41.7386 45.3569 40.6218 45.2579 39.4397" fill="white"/>
</mask>
<g mask="url(#mask10_395_11531)">
<rect x="3.2002" y="24" width="57.6" height="61.0909" fill="#0C092A"/>
</g>
</g>
</g>
<circle cx="221.5" cy="77.5" r="23.5" fill="#FFD6DD"/>
<mask id="mask11_395_11531" style="mask-type:alpha" maskUnits="userSpaceOnUse" x="198" y="54" width="47" height="47">
<circle cx="221.5" cy="77.5" r="23.5" fill="#C4C4C4"/>
</mask>
<g mask="url(#mask11_395_11531)">
<path fill-rule="evenodd" clip-rule="evenodd" d="M221.5 66.1664C216.78 66.1664 212.955 69.9923 212.955 74.7119V75.5817C212.088 75.727 211.429 76.4802 211.429 77.3875V79.4803C211.429 80.406 212.115 81.1713 213.007 81.2942C213.341 84.291 215.224 86.8201 217.838 88.0616V90.8708C211.374 91.2187 206.24 96.57 206.24 103.12H236.76C236.76 96.57 231.626 91.2187 225.162 90.8708V88.0616C227.776 86.8201 229.659 84.291 229.993 81.2942C230.884 81.1713 231.571 80.406 231.571 79.4803V77.3875C231.571 76.4802 230.911 75.727 230.045 75.5817V74.7119C230.045 69.9923 226.219 66.1664 221.5 66.1664Z" fill="#D0C6AC"/>
<mask id="mask12_395_11531" style="mask-type:alpha" maskUnits="userSpaceOnUse" x="206" y="66" width="31" height="38">
<path fill-rule="evenodd" clip-rule="evenodd" d="M221.5 66.1664C216.78 66.1664 212.955 69.9923 212.955 74.7119V75.5817C212.088 75.727 211.429 76.4802 211.429 77.3875V79.4803C211.429 80.406 212.115 81.1713 213.007 81.2942C213.341 84.291 215.224 86.8201 217.838 88.0616V90.8708C211.374 91.2187 206.24 96.57 206.24 103.12H236.76C236.76 96.57 231.626 91.2187 225.162 90.8708V88.0616C227.776 86.8201 229.659 84.291 229.993 81.2942C230.884 81.1713 231.571 80.406 231.571 79.4803V77.3875C231.571 76.4802 230.911 75.727 230.045 75.5817V74.7119C230.045 69.9923 226.219 66.1664 221.5 66.1664Z" fill="white"/>
</mask>
<g mask="url(#mask12_395_11531)">
<rect width="40.2857" height="36.9538" transform="translate(201.357 66.1664)" fill="#FFCCD7"/>
<rect x="201.357" y="66.1664" width="40.2857" height="36.9538" fill="#FFCCD7"/>
<path fill-rule="evenodd" clip-rule="evenodd" d="M212.955 80.3385V81.5501C212.955 86.2696 216.781 90.0956 221.5 90.0956C226.22 90.0956 230.045 86.2697 230.045 81.5501V80.3385C230.045 85.058 226.22 88.884 221.5 88.884C216.781 88.884 212.955 85.058 212.955 80.3385Z" fill="black" fill-opacity="0.1"/>
</g>
<path fill-rule="evenodd" clip-rule="evenodd" d="M221.576 96.4305C225.748 96.4305 229.13 94.4315 229.13 91.9657C229.13 91.8974 229.127 91.8294 229.122 91.7619C233.602 93.5867 236.76 97.9847 236.76 103.12H206.24C206.24 97.9245 209.473 93.4836 214.036 91.6987C214.027 91.7871 214.023 91.8761 214.023 91.9657C214.023 94.4315 217.405 96.4305 221.576 96.4305Z" fill="#6223A9"/>
<mask id="mask13_395_11531" style="mask-type:alpha" maskUnits="userSpaceOnUse" x="206" y="91" width="31" height="13">
<path fill-rule="evenodd" clip-rule="evenodd" d="M221.576 96.4305C225.748 96.4305 229.13 94.4315 229.13 91.9657C229.13 91.8974 229.127 91.8294 229.122 91.7619C233.602 93.5867 236.76 97.9847 236.76 103.12H206.24C206.24 97.9245 209.473 93.4836 214.036 91.6987C214.027 91.7871 214.023 91.8761 214.023 91.9657C214.023 94.4315 217.405 96.4305 221.576 96.4305Z" fill="white"/>
</mask>
<g mask="url(#mask13_395_11531)">
<rect x="201.357" y="86.4609" width="40.2857" height="16.6595" fill="#6223A9"/>
</g>
<path fill-rule="evenodd" clip-rule="evenodd" d="M219.363 83.2803C219.363 84.4513 220.32 85.4006 221.5 85.4006V85.4006C222.68 85.4006 223.636 84.4513 223.636 83.2803" fill="#0C092A"/>
<g opacity="0.3">
<path fill-rule="evenodd" clip-rule="evenodd" d="M219.668 80.403C219.668 81.0721 220.488 81.6146 221.5 81.6146V81.6146C222.511 81.6146 223.331 81.0721 223.331 80.403" fill="#0C092A"/>
</g>
<ellipse cx="217.532" cy="77.6765" rx="0.915584" ry="0.9087" fill="#0C092A"/>
<ellipse cx="225.467" cy="77.6765" rx="0.915585" ry="0.9087" fill="#0C092A"/>
<path d="M215.339 75.7318C215.937 74.8975 217.574 74.4296 218.985 74.7735C219.149 74.8134 219.314 74.714 219.354 74.5516C219.394 74.3891 219.294 74.2251 219.131 74.1852C217.492 73.7858 215.596 74.3276 214.842 75.3808C214.744 75.5172 214.776 75.7063 214.914 75.8032C215.051 75.9001 215.242 75.8681 215.339 75.7318Z" fill="#0C092A"/>
<path d="M227.66 75.7318C227.062 74.8975 225.425 74.4296 224.014 74.7735C223.85 74.8134 223.685 74.714 223.645 74.5516C223.605 74.3891 223.705 74.2251 223.868 74.1852C225.507 73.7858 227.403 74.3276 228.157 75.3808C228.255 75.5172 228.223 75.7063 228.085 75.8032C227.948 75.9001 227.758 75.8681 227.66 75.7318Z" fill="#0C092A"/>
<mask id="mask14_395_11531" style="mask-type:alpha" maskUnits="userSpaceOnUse" x="201" y="60" width="41" height="44">
<rect x="201.357" y="60.7143" width="40.2857" height="42.406" fill="white"/>
</mask>
<g mask="url(#mask14_395_11531)">
<path fill-rule="evenodd" clip-rule="evenodd" d="M207.308 82.6746C207.214 78.0045 211.63 68.2558 213.259 66.318C214.468 64.8806 217.791 63.6753 221.5 63.7433C225.209 63.8114 228.651 64.6236 229.893 66.1665C231.773 68.5031 235.671 77.3858 235.691 82.6746C235.706 86.4306 234.236 90.1956 232.182 90.3986C231.022 90.5131 229.548 90.3644 227.778 90.1857L227.778 90.1857L227.778 90.1857C226.967 90.1039 226.095 90.0158 225.162 89.9438V88.0617C228.049 86.6902 230.045 83.7475 230.045 80.3386V76.0961C228.442 75.2193 227.076 74.1608 225.939 73.0852C226.451 74.0304 227.037 74.8886 227.697 75.5372C223.03 74.2377 219.804 71.5764 217.871 69.4899C216.982 71.1678 215.39 73.6217 212.954 75.491V80.3386C212.954 83.7475 214.95 86.6902 217.837 88.0617V90.0571C216.776 90.2013 215.79 90.3842 214.883 90.5525L214.883 90.5525L214.883 90.5525L214.883 90.5526L214.883 90.5526C213.227 90.8597 211.833 91.1182 210.724 91.0044C208.554 90.7818 207.384 86.4299 207.308 82.6746Z" fill="#E6E6E6"/>
<mask id="mask15_395_11531" style="mask-type:alpha" maskUnits="userSpaceOnUse" x="207" y="63" width="29" height="29">
<path fill-rule="evenodd" clip-rule="evenodd" d="M207.308 82.6746C207.214 78.0045 211.63 68.2558 213.259 66.318C214.468 64.8806 217.791 63.6753 221.5 63.7433C225.209 63.8114 228.651 64.6236 229.893 66.1665C231.773 68.5031 235.671 77.3858 235.691 82.6746C235.706 86.4306 234.236 90.1956 232.182 90.3986C231.022 90.5131 229.548 90.3644 227.778 90.1857L227.778 90.1857L227.778 90.1857C226.967 90.1039 226.095 90.0158 225.162 89.9438V88.0617C228.049 86.6902 230.045 83.7475 230.045 80.3386V76.0961C228.442 75.2193 227.076 74.1608 225.939 73.0852C226.451 74.0304 227.037 74.8886 227.697 75.5372C223.03 74.2377 219.804 71.5764 217.871 69.4899C216.982 71.1678 215.39 73.6217 212.954 75.491V80.3386C212.954 83.7475 214.95 86.6902 217.837 88.0617V90.0571C216.776 90.2013 215.79 90.3842 214.883 90.5525L214.883 90.5525L214.883 90.5525L214.883 90.5526L214.883 90.5526C213.227 90.8597 211.833 91.1182 210.724 91.0044C208.554 90.7818 207.384 86.4299 207.308 82.6746Z" fill="white"/>
</mask>
<g mask="url(#mask15_395_11531)">
<rect x="201.204" y="60.7143" width="40.5909" height="42.406" fill="#0C092A"/>
</g>
</g>
</g>
<circle cx="256" cy="59" r="28" fill="#C4D0FB"/>
<mask id="mask16_395_11531" style="mask-type:alpha" maskUnits="userSpaceOnUse" x="228" y="31" width="56" height="56">
<circle cx="256" cy="59" r="28" fill="#C4C4C4"/>
</mask>
<g mask="url(#mask16_395_11531)">
<path fill-rule="evenodd" clip-rule="evenodd" d="M256 45.4962C250.377 45.4962 245.818 50.0548 245.818 55.6781V56.7144C244.786 56.8875 244 57.7849 244 58.866V61.3595C244 62.4625 244.819 63.3743 245.881 63.5208C246.279 67.0915 248.523 70.1048 251.637 71.5841V74.9312C243.935 75.3458 237.818 81.7217 237.818 89.5263H274.182C274.182 81.7217 268.065 75.3458 260.364 74.9312V71.5841C263.478 70.1048 265.722 67.0915 266.119 63.5208C267.182 63.3743 268 62.4625 268 61.3595V58.866C268 57.7849 267.214 56.8875 266.182 56.7144V55.6781C266.182 50.0548 261.623 45.4962 256 45.4962Z" fill="#D0C6AC"/>
<mask id="mask17_395_11531" style="mask-type:alpha" maskUnits="userSpaceOnUse" x="237" y="45" width="38" height="45">
<path fill-rule="evenodd" clip-rule="evenodd" d="M256 45.4962C250.377 45.4962 245.818 50.0548 245.818 55.6781V56.7144C244.786 56.8875 244 57.7849 244 58.866V61.3595C244 62.4625 244.819 63.3743 245.881 63.5208C246.279 67.0915 248.523 70.1048 251.637 71.5841V74.9312C243.935 75.3458 237.818 81.7217 237.818 89.5263H274.182C274.182 81.7217 268.065 75.3458 260.364 74.9312V71.5841C263.478 70.1048 265.722 67.0915 266.119 63.5208C267.182 63.3743 268 62.4625 268 61.3595V58.866C268 57.7849 267.214 56.8875 266.182 56.7144V55.6781C266.182 50.0548 261.623 45.4962 256 45.4962Z" fill="white"/>
</mask>
<g mask="url(#mask17_395_11531)">
<rect x="232" y="45.4962" width="48" height="44.0301" fill="#D08B5B"/>
<path fill-rule="evenodd" clip-rule="evenodd" d="M245.818 62.3821V63.8257C245.818 69.449 250.377 74.0075 256 74.0075C261.623 74.0075 266.182 69.449 266.182 63.8257V62.3821C266.182 68.0054 261.623 72.5639 256 72.5639C250.377 72.5639 245.818 68.0054 245.818 62.3821Z" fill="black" fill-opacity="0.1"/>
</g>
<path fill-rule="evenodd" clip-rule="evenodd" d="M256.091 79.0291C259.455 79.0291 262.182 77.2937 262.182 75.153C262.182 75.1524 262.182 75.1518 262.182 75.1512C269.005 76.3806 274.182 82.349 274.182 89.5264H237.818C237.818 82.2853 243.087 76.2748 250 75.1196C250 75.1307 250 75.1419 250 75.153C250 77.2937 252.727 79.0291 256.091 79.0291Z" fill="#E6E6E6"/>
<mask id="mask18_395_11531" style="mask-type:alpha" maskUnits="userSpaceOnUse" x="237" y="75" width="38" height="15">
<path fill-rule="evenodd" clip-rule="evenodd" d="M256.091 79.0291C259.455 79.0291 262.182 77.2937 262.182 75.153C262.182 75.1524 262.182 75.1518 262.182 75.1512C269.005 76.3806 274.182 82.349 274.182 89.5264H237.818C237.818 82.2853 243.087 76.2748 250 75.1196C250 75.1307 250 75.1419 250 75.153C250 77.2937 252.727 79.0291 256.091 79.0291Z" fill="white"/>
</mask>
<g mask="url(#mask18_395_11531)">
<rect x="232" y="69.6767" width="48" height="19.8496" fill="#555FA8"/>
<g opacity="0.6">
<ellipse cx="256.091" cy="75.4236" rx="7.20638" ry="4.85663" fill="black" fill-opacity="0.16"/>
</g>
</g>
<path d="M253.455 66.0677C253.455 67.037 254.575 67.6917 256.001 67.6917C257.426 67.6917 258.546 67.037 258.546 66.0677C258.546 65.8683 258.373 65.7068 258.182 65.7068C257.947 65.7068 257.842 65.8701 257.819 66.0677C257.593 66.5978 257.034 66.9187 256.001 66.9699C254.967 66.9187 254.408 66.5978 254.182 66.0677C254.159 65.8701 254.054 65.7068 253.819 65.7068C253.628 65.7068 253.455 65.8683 253.455 66.0677Z" fill="black" fill-opacity="0.6"/>
<path fill-rule="evenodd" clip-rule="evenodd" d="M253.818 62.4586C253.818 63.2559 254.795 63.9023 256 63.9023V63.9023C257.205 63.9023 258.182 63.2559 258.182 62.4586" fill="black" fill-opacity="0.16"/>
<ellipse cx="251.273" cy="59.2105" rx="1.09091" ry="1.08271" fill="black" fill-opacity="0.6"/>
<ellipse cx="260.728" cy="59.2105" rx="1.09091" ry="1.08271" fill="black" fill-opacity="0.6"/>
<path d="M248.66 56.8933C249.372 55.8992 251.323 55.3418 253.004 55.7515C253.199 55.799 253.396 55.6807 253.444 55.4871C253.492 55.2935 253.373 55.0981 253.178 55.0505C251.226 54.5747 248.966 55.2202 248.067 56.4752C247.951 56.6376 247.989 56.8629 248.153 56.9784C248.317 57.0939 248.544 57.0558 248.66 56.8933Z" fill="black" fill-opacity="0.6"/>
<path d="M263.34 56.8933C262.628 55.8992 260.677 55.3418 258.996 55.7515C258.801 55.799 258.604 55.6807 258.556 55.4871C258.508 55.2935 258.627 55.0981 258.822 55.0505C260.774 54.5747 263.034 55.2202 263.933 56.4752C264.049 56.6376 264.011 56.8629 263.847 56.9784C263.683 57.0939 263.456 57.0558 263.34 56.8933Z" fill="black" fill-opacity="0.6"/>
<mask id="mask19_395_11531" style="mask-type:alpha" maskUnits="userSpaceOnUse" x="232" y="39" width="48" height="51">
<rect x="232" y="39" width="48" height="50.5263" fill="white"/>
</mask>
<g mask="url(#mask19_395_11531)">
<path fill-rule="evenodd" clip-rule="evenodd" d="M246 56.6842C245.941 56.9049 245.699 56.9528 245.636 56.6842C245.506 54.8259 245.636 45.4467 256 45.3158C266.364 45.1849 266.494 54.8259 266.364 56.6842C266.301 56.9528 266.06 56.9049 266 56.6842C266.084 56.4038 265.401 51.4959 263.636 50.188C263.317 49.9672 262.319 49.7568 260.974 49.5996L261.637 48.0226L260.367 49.5345C259.089 49.4093 257.574 49.3311 256.057 49.33C252.547 49.3276 249.022 49.7339 248.364 50.188C246.599 51.4959 245.916 56.4038 246 56.6842Z" fill="#28354B"/>
<mask id="mask20_395_11531" style="mask-type:alpha" maskUnits="userSpaceOnUse" x="245" y="45" width="22" height="12">
<path fill-rule="evenodd" clip-rule="evenodd" d="M246 56.6842C245.941 56.9049 245.699 56.9528 245.636 56.6842C245.506 54.8259 245.636 45.4467 256 45.3158C266.364 45.1849 266.494 54.8259 266.364 56.6842C266.301 56.9528 266.06 56.9049 266 56.6842C266.084 56.4038 265.401 51.4959 263.636 50.188C263.317 49.9672 262.319 49.7568 260.974 49.5996L261.637 48.0226L260.367 49.5345C259.089 49.4093 257.574 49.3311 256.057 49.33C252.547 49.3276 249.022 49.7339 248.364 50.188C246.599 51.4959 245.916 56.4038 246 56.6842Z" fill="white"/>
</mask>
<g mask="url(#mask20_395_11531)">
<rect x="232" y="39" width="48" height="50.5263" fill="#2C1B18"/>
</g>
<g filter="url(#filter0_d_395_11531)">
<path fill-rule="evenodd" clip-rule="evenodd" d="M252.955 57.0948C253.386 57.0988 253.59 57.17 253.663 57.6163C253.737 58.0684 253.665 58.5766 253.579 59.0219C253.448 59.7019 253.23 60.368 252.723 60.865C252.456 61.1267 252.13 61.3353 251.784 61.4778C251.6 61.5534 251.406 61.608 251.211 61.6495C251.154 61.6616 250.67 61.7279 250.967 61.6942C250.273 61.7728 249.52 61.7697 248.941 61.3313C248.298 60.8455 247.858 60.0767 247.665 59.3109C247.552 58.8628 247.314 57.7912 247.748 57.4329C248.246 57.0225 252.955 57.0948 252.955 57.0948ZM248.585 55.8705C247.596 55.9043 246.936 56.0768 246.448 57.0576C245.554 58.8551 247.084 61.5508 248.792 62.2853C250.787 63.1442 253.017 62.1937 254.072 60.4747C254.631 59.5646 254.913 58.1861 254.895 57.136C254.872 55.7958 253.929 55.7586 252.82 55.7881L248.585 55.8705Z" fill="#44509F"/>
<path fill-rule="evenodd" clip-rule="evenodd" d="M259.033 57.0943C258.602 57.0984 258.398 57.1695 258.325 57.6158C258.25 58.0679 258.323 58.5762 258.409 59.0215C258.54 59.7014 258.758 60.3676 259.265 60.8645C259.532 61.1262 259.858 61.3348 260.204 61.4773C260.388 61.5529 260.582 61.6076 260.777 61.649C260.833 61.6611 261.318 61.7274 261.021 61.6937C261.715 61.7723 262.468 61.7692 263.047 61.3308C263.69 60.845 264.13 60.0763 264.323 59.3105C264.436 58.8624 264.674 57.7908 264.239 57.4325C263.742 57.022 259.033 57.0943 259.033 57.0943ZM263.403 55.87C264.392 55.9038 265.052 56.0764 265.54 57.0571C266.434 58.8546 264.904 61.5503 263.196 62.2849C261.201 63.1438 258.971 62.1933 257.916 60.4743C257.357 59.5641 257.074 58.1857 257.093 57.1356C257.116 55.7953 258.059 55.7581 259.168 55.7877L263.403 55.87Z" fill="#44509F"/>
<path fill-rule="evenodd" clip-rule="evenodd" d="M246.945 56.671C246.325 56.7056 245.616 56.7139 245.035 56.9801C244.42 57.2619 244.325 57.9002 245.1 57.9882C245.45 58.0278 245.8 57.9623 246.144 57.9014C246.425 57.8515 246.808 57.8676 247.074 57.7607C247.571 57.5616 247.539 56.6373 246.945 56.671" fill="#44509F"/>
<path fill-rule="evenodd" clip-rule="evenodd" d="M265.043 56.671C265.664 56.7056 266.372 56.7139 266.954 56.9801C267.569 57.2619 267.664 57.9002 266.888 57.9882C266.539 58.0278 266.189 57.9623 265.845 57.9014C265.563 57.8515 265.18 57.8676 264.914 57.7607C264.418 57.5616 264.45 56.6373 265.043 56.671" fill="#44509F"/>
<path fill-rule="evenodd" clip-rule="evenodd" d="M257.838 57.0474C257.484 56.6324 256.562 56.3927 255.98 56.3927C255.399 56.3927 254.503 56.6324 254.15 57.0474C253.971 57.2567 253.965 57.5367 254.274 57.6679C254.659 57.8313 255.003 57.5349 255.312 57.3799C255.706 57.1817 256.311 57.2034 256.676 57.3799C256.987 57.5302 257.328 57.8313 257.713 57.6679C258.023 57.5367 258.017 57.2567 257.838 57.0474" fill="#44509F"/>
</g>
</g>
</g>
<path d="M71.9406 57.8488C79.6886 48.6508 95.2363 38.3178 107.444 50.2727C114.203 56.8922 116.053 73.4643 104.403 76.8018C100.237 77.9951 100.688 74.0018 101.524 71.9457C103.042 68.212 106.558 65.4868 110.694 63.9789C121.106 60.1835 127.874 69.3577 135.63 73.6696C145.697 79.2658 161.45 81.7249 172.879 79.6437C182.758 77.845 176.613 76.7077 170.549 73.4188C165.937 70.9177 176.32 74.6444 177.776 75.4008C179.605 76.3513 181.599 76.0376 179.6 77.3588C176.213 79.5973 172.853 82.3566 169.869 85.0126" stroke="white" stroke-linecap="round"/>
<path d="M75.9999 39.015C81.5036 34.3606 88.9852 31.0713 100.589 31.2618C110.671 31.4273 120.562 33.1895 130.627 33.6351C141.999 34.1385 153.607 33.2037 163.451 31.102C166.806 30.3856 170.218 28.8919 173.656 28.4561" stroke="white" stroke-linecap="round"/>
<path d="M166.66 26.8595C170.064 27.3031 173.973 27.5646 177.008 27.8656C178.586 28.022 178.534 27.803 177.785 28.043C175.357 28.8214 172.409 30.514 171.242 31.908" stroke="white" stroke-linecap="round"/>
<defs>
<filter id="filter0_d_395_11531" x="244.546" y="55.782" width="22.897" height="8.82471" filterUnits="userSpaceOnUse" color-interpolation-filters="sRGB">
<feFlood flood-opacity="0" result="BackgroundImageFix"/>
<feColorMatrix in="SourceAlpha" type="matrix" values="0 0 0 0 0 0 0 0 0 0 0 0 0 0 0 0 0 0 127 0" result="hardAlpha"/>
<feOffset dy="2"/>
<feColorMatrix type="matrix" values="0 0 0 0 0 0 0 0 0 0 0 0 0 0 0 0 0 0 0.1 0"/>
<feBlend mode="normal" in2="BackgroundImageFix" result="effect1_dropShadow_395_11531"/>
<feBlend mode="normal" in="SourceGraphic" in2="effect1_dropShadow_395_11531" result="shape"/>
</filter>
<clipPath id="clip0_395_11531">
<rect y="16" width="64" height="64" rx="32" fill="white"/>
</clipPath>
</defs>
</svg>
