<svg xmlns="http://www.w3.org/2000/svg" width="14" height="16" fill="none" viewBox="0 0 14 16">
  <path stroke="#0C092A" stroke-linecap="round" stroke-linejoin="round" stroke-width="2" d="M6.567 1A5.521 5.521 0 0 0 1 6.567c0 2.21 2.947 6.059 4.585 7.942a1.228 1.228 0 0 0 1.965 0c1.637-1.883 4.584-5.65 4.584-7.942C12.134 3.457 9.596 1 6.567 1Z"/>
  <path stroke="#0C092A" stroke-linecap="round" stroke-linejoin="round" stroke-width="2" d="M6.567 7.631c-.737 0-1.31-.573-1.31-1.31 0-.737.573-1.31 1.31-1.31.737 0 1.31.573 1.31 1.31 0 .737-.573 1.31-1.31 1.31Z"/>
</svg>
