<svg xmlns="http://www.w3.org/2000/svg" width="17" height="16" fill="none" viewBox="0 0 17 16">
  <path stroke="#0C092A" stroke-linecap="round" stroke-linejoin="round" stroke-width="2" d="M15 7.733c0-.4-.333-.8-.8-.866l-.4-.067c-.4-.067-.667-.333-.867-.733 0-.067-.066-.134-.066-.267-.134-.333-.134-.8.066-1.133l.267-.334c.267-.333.267-.866-.067-1.133-.133-.067-.266-.2-.4-.333A1.01 1.01 0 0 0 11.6 2.8l-.333.267c-.334.2-.734.266-1.134.066-.066-.066-.133-.066-.266-.066a1.087 1.087 0 0 1-.734-.867l-.066-.4a.77.77 0 0 0-.8-.8h-.534c-.4 0-.8.333-.866.8l-.067.4c-.067.4-.333.667-.733.8-.067 0-.134.067-.267.067-.333.2-.733.2-1.067 0L4.4 2.8c-.333-.267-.867-.267-1.133.067l-.4.4c-.334.266-.334.8-.067 1.133l.267.333c.2.334.266.734.066 1.134-.066.066-.066.133-.133.2-.133.4-.467.666-.867.733l-.333.067c-.467.066-.8.4-.8.866v.534c0 .4.333.8.8.866l.4.067c.4.067.667.333.867.733 0 .067.066.134.066.267.134.333.134.8-.066 1.133l-.267.334c-.267.333-.267.866.067 1.133.133.067.266.2.4.333.333.267.8.267 1.133.067l.333-.267c.334-.2.734-.266 1.134-.066.066.066.133.066.266.066.4.134.667.467.734.867l.066.4c.067.4.4.733.867.8h.533c.4 0 .8-.333.867-.8l.067-.4c.066-.4.333-.667.733-.867.067 0 .133-.066.267-.066.333-.134.8-.134 1.133.066l.333.267c.334.267.867.267 1.134-.067l.4-.4c.266-.333.266-.8.066-1.133l-.266-.333c-.2-.334-.267-.734-.067-1.134.067-.066.067-.133.067-.266.133-.4.466-.667.866-.734l.4-.066c.4-.067.734-.4.8-.867v-.267c0-.066-.133-.133-.133-.2Zm-7 2.934A2.675 2.675 0 0 1 5.333 8c0-1.467 1.2-2.667 2.667-2.667 1.467 0 2.667 1.2 2.667 2.667 0 1.467-1.2 2.667-2.667 2.667Z"/>
</svg>
