<svg width="145" height="142" viewBox="0 0 145 142" fill="none" xmlns="http://www.w3.org/2000/svg">
<path d="M101.371 85.4762C116.933 69.9137 116.933 44.682 101.371 29.1195C85.8083 13.557 60.5766 13.557 45.0142 29.1195C29.4518 44.682 29.4518 69.9137 45.0142 85.4762C60.5766 101.039 85.8083 101.039 101.371 85.4762Z" fill="#2E2F9D"/>
<path d="M75.0354 55.4119C75.0354 55.1546 75.1376 54.9078 75.3196 54.7259C75.5015 54.544 75.7482 54.4418 76.0055 54.4418H83.8823C84.1388 54.4418 84.3849 54.3399 84.5662 54.1585C84.7476 53.9771 84.8495 53.7311 84.8495 53.4745V45.3806C84.8495 45.1238 84.7477 44.8774 84.5664 44.6956C84.3851 44.5137 84.1391 44.4112 83.8823 44.4104H75.0354V30.8838C75.035 30.7145 74.9902 30.5483 74.9054 30.4017C74.8206 30.2552 74.6988 30.1335 74.5522 30.0488C74.4056 29.964 74.2394 29.9193 74.0701 29.9189C73.9008 29.9186 73.7344 29.9627 73.5875 30.0469L64.1093 35.5172C63.9624 35.602 63.8403 35.724 63.7555 35.8709C63.6706 36.0178 63.6258 36.1844 63.6257 36.3541V43.1391C63.6257 43.3063 63.5927 43.4719 63.5286 43.6263C63.4646 43.7807 63.3707 43.921 63.2523 44.0391C63.134 44.1572 62.9935 44.2508 62.8389 44.3145C62.6843 44.3782 62.5187 44.4108 62.3515 44.4104H56.6264C56.3691 44.4104 56.1223 44.5126 55.9404 44.6946C55.7585 44.8765 55.6563 45.1233 55.6563 45.3806V53.489C55.6562 53.6163 55.6814 53.7423 55.7302 53.8598C55.7789 53.9774 55.8504 54.0841 55.9406 54.174C56.0307 54.2638 56.1377 54.335 56.2553 54.3835C56.373 54.4319 56.4991 54.4566 56.6264 54.4562H62.476C62.7328 54.457 62.9788 54.5596 63.1601 54.7414C63.3414 54.9233 63.4432 55.1696 63.4432 55.4264V70.1201C63.4432 76.6619 65.5138 84.695 77.8357 84.695C79.9165 84.7142 81.9919 84.4789 84.0155 83.9942C84.2229 83.9398 84.4064 83.8183 84.5374 83.6485C84.6684 83.4787 84.7395 83.2704 84.7395 83.056V74.6087C84.7395 74.4725 84.7108 74.3379 84.6553 74.2135C84.5998 74.0891 84.5187 73.9779 84.4174 73.8869C84.316 73.7959 84.1967 73.7273 84.0671 73.6855C83.9375 73.6438 83.8005 73.6297 83.6651 73.6444C82.4894 73.7776 82.0116 73.8529 80.555 74.0816C76.6774 74.6869 75.0354 72.6134 75.0354 69.5264V55.4119Z" fill="white"/>
<path d="M108.139 127.619C108.009 127.692 107.849 127.679 107.729 127.587C106.585 126.703 105.143 126.036 103.538 126.036C99.4612 126.038 96.1875 129.444 96.1875 133.873C96.1875 135.917 96.9281 137.775 98.1029 139.137C99.4317 140.684 101.531 141.676 103.754 141.676C105.268 141.676 106.689 141.212 107.924 140.158V140.998C107.924 141.202 108.088 141.366 108.291 141.366H111.417C111.62 141.366 111.784 141.202 111.784 140.998V126.161C111.784 125.879 111.479 125.701 111.235 125.843L108.139 127.619ZM104.306 137.666C102.263 137.666 100.605 136.114 100.605 133.832C100.605 131.563 102.25 130.011 104.293 130.011C106.349 130.011 108.008 131.563 108.008 133.832C108.008 136.114 106.362 137.666 104.306 137.666Z" fill="#25207D"/>
<path d="M20.7428 125.982C16.5024 125.982 13.0469 129.391 13.0469 133.886C13.0469 138.394 16.4516 141.693 20.6921 141.693C24.9325 141.693 28.388 138.325 28.388 133.802C28.388 129.324 24.9832 125.982 20.7428 125.982ZM20.7166 137.666C18.8029 137.666 17.248 136.114 17.248 133.832C17.248 131.563 18.7898 129.998 20.7052 129.998C22.632 129.998 24.1869 131.565 24.1869 133.832C24.1869 136.114 22.6451 137.666 20.7166 137.666Z" fill="#25207D"/>
<path d="M52.852 125.969C48.5903 125.969 44.9922 129.475 44.9922 133.831C44.9922 138.491 48.6427 141.694 53.1371 141.694C55.9422 141.694 58.5605 140.273 59.6501 137.623C59.7304 137.426 59.6304 137.199 59.4322 137.13L56.5255 136.123C56.3551 136.064 56.1716 136.143 56.0847 136.302C55.5096 137.36 54.2431 138.024 53.0699 138.024C51.2643 138.024 49.6897 136.938 49.4194 135.069H59.8696C60.0597 135.069 60.217 134.919 60.2334 134.728C60.2661 134.316 60.2662 133.897 60.2662 133.488C60.2645 129.034 57.2776 125.969 52.852 125.969ZM49.5275 132.154C49.6766 131.165 50.8039 129.529 52.7439 129.529C54.9296 129.529 55.839 131.068 55.9061 132.154H49.5275Z" fill="#25207D"/>
<path d="M88.1195 126.039C87.2282 126.039 85.0621 126.218 83.5678 128.128H83.5137V119.081C83.5137 118.799 83.2073 118.621 82.9632 118.762L79.3241 120.869C79.2111 120.934 79.1406 121.056 79.1406 121.187V140.997C79.1406 141.201 79.3045 141.365 79.5076 141.365H83.0369C83.2401 141.365 83.404 141.201 83.404 140.997V139.564H83.458C84.8835 141.447 87.0086 141.654 87.995 141.654C92.3681 141.654 95.2469 137.723 95.2469 133.832C95.2486 130.024 92.5336 126.039 88.1195 126.039ZM87.1053 137.667C85.0621 137.667 83.404 136.114 83.404 133.832C83.404 131.564 85.049 130.011 87.0922 130.011C89.1485 130.011 90.8067 131.564 90.8067 133.832C90.8067 136.114 89.1616 137.667 87.1053 137.667Z" fill="#25207D"/>
<path d="M70.9211 126.038C70.346 126.038 67.8358 126.271 66.6856 128.292H66.6447V126.104C66.6447 125.821 66.3383 125.644 66.0941 125.785L62.496 127.868C62.383 127.934 62.3125 128.055 62.3125 128.187V140.998C62.3125 141.202 62.4764 141.366 62.6795 141.366H66.3055C66.5087 141.366 66.6725 141.202 66.6725 140.998V133.02C66.6725 131.481 67.5229 130.106 69.3727 130.106C71.1816 130.106 71.9779 131.343 71.9779 133.02V140.996C71.9779 141.2 72.1418 141.364 72.345 141.364H75.984C76.1872 141.364 76.3511 141.2 76.3511 140.996V132.018C76.3511 128.924 74.7322 126.038 70.9211 126.038Z" fill="#25207D"/>
<path d="M122.259 126.038C121.684 126.038 119.173 126.271 118.023 128.292H117.981V126.104C117.981 125.821 117.674 125.644 117.43 125.785L113.832 127.868C113.719 127.934 113.648 128.055 113.648 128.187V140.998C113.648 141.202 113.812 141.366 114.015 141.366H117.641C117.845 141.366 118.008 141.202 118.008 140.998V133.02C118.008 131.481 118.859 130.106 120.709 130.106C122.518 130.106 123.314 131.343 123.314 133.02V140.996C123.314 141.2 123.478 141.364 123.681 141.364H127.32C127.523 141.364 127.687 141.2 127.687 140.996V132.018C127.687 128.924 126.07 126.038 122.259 126.038Z" fill="#25207D"/>
<path d="M39.7341 133.029L45.0248 126.952C45.2313 126.714 45.0641 126.342 44.7479 126.342H40.1405C40.0356 126.342 39.9357 126.388 39.8652 126.467L34.7794 132.24V119.084C34.7794 118.802 34.473 118.624 34.2288 118.765L30.5898 120.872C30.4767 120.937 30.4062 121.059 30.4062 121.19V140.997C30.4062 141.2 30.5701 141.365 30.7733 141.365H34.4123C34.6155 141.365 34.7794 141.2 34.7794 140.997V134.244H34.8891L40.0848 141.217C40.1536 141.31 40.2634 141.365 40.3781 141.365H44.9888C45.2935 141.365 45.4656 141.015 45.2804 140.773L39.7178 133.494C39.6129 133.354 39.6194 133.16 39.7341 133.029Z" fill="#25207D"/>
<path d="M138.875 133.029L144.165 126.952C144.372 126.713 144.205 126.342 143.889 126.342H139.281C139.176 126.342 139.076 126.388 139.006 126.467L133.92 132.237V119.063C133.92 118.78 133.614 118.603 133.369 118.744L129.73 120.85C129.617 120.916 129.547 121.037 129.547 121.169V140.996C129.547 141.2 129.711 141.364 129.914 141.364H133.553C133.756 141.364 133.92 141.2 133.92 140.996V134.244H134.03L139.225 141.217C139.294 141.31 139.404 141.364 139.519 141.364H144.129C144.434 141.364 144.606 141.015 144.421 140.773L138.86 133.494C138.754 133.354 138.76 133.16 138.875 133.029Z" fill="#25207D"/>
<path d="M7.82403 130.604C7.82403 130.402 7.98788 130.238 8.18942 130.238H11.1665C11.3681 130.238 11.5319 130.073 11.5319 129.871V126.802C11.5319 126.6 11.3681 126.436 11.1665 126.436H7.82403V125.113V123.77V121.31C7.82403 121.028 7.51927 120.852 7.27514 120.993L3.69505 123.065C3.58199 123.131 3.51154 123.252 3.51154 123.382V125.953C3.51154 126.219 3.29526 126.436 3.02982 126.436H0.865382C0.663849 126.436 0.5 126.6 0.5 126.802V129.87C0.5 130.072 0.663849 130.236 0.865382 130.236H3.0757C3.27723 130.236 3.44108 130.4 3.44108 130.602V136.172C3.44108 138.651 4.22428 141.695 8.88086 141.695C9.33144 141.695 10.2916 141.672 11.2173 141.429C11.3779 141.386 11.491 141.24 11.491 141.072V137.877C11.491 137.658 11.3009 137.487 11.0846 137.512C10.6406 137.561 10.4604 137.591 9.90983 137.676C8.44502 137.906 7.82403 137.121 7.82403 135.95V130.724V130.604Z" fill="#25207D"/>
</svg>
